<svg enable-background="new 0 0 636 500" height="500" viewBox="0 0 636 500" width="636" xmlns="http://www.w3.org/2000/svg" xmlns:xlink="http://www.w3.org/1999/xlink"><clipPath id="a"><path d="m336.3 192.9c11.1 23.2 6.1 50.9-12.4 68.7l-27.7 26.8-26.8-27.7c-17.8-18.5-21.9-46.3-10-69.1l.7-1.4c9.4-18.1 9-39.8-1.2-57.4-5.5-9.6-8.2-20.2-8-30.9.2-10 2.9-19.9 8-28.9l42.4-73 39.6 74.4c4.9 9.1 7.2 19.1 7 29.1-.2 10.6-3.2 21.2-9.1 30.6-10.8 17.3-12 38.9-3.2 57.4z"/></clipPath><clipPath id="b"><path d="m266.6 200.7c12.6 17.8 12.4 41.7-.5 59.3l-19.4 26.4-26.4-19.4c-17.6-12.9-25-35.7-18.3-56.4l.4-1.3c5.3-16.5 1.8-34.6-9.2-47.9-6-7.2-9.7-15.8-11.1-24.7-1.3-8.4-.5-17.1 2.6-25.3l24.9-67.1 43.8 56.6c5.4 6.9 8.8 15 10.1 23.4 1.4 8.9.3 18.2-3.2 26.9-6.6 16-4.5 34.3 5.5 48.5z"/></clipPath><clipPath id="c"><path d="m198.8 281.6h143.9l-10.1 190.1c-.8 14.3-12.6 25.5-26.8 25.5h-37.3-32c-14.3 0-26-11.1-26.8-25.4z"/></clipPath><path d="m551.3 274.2-1-1.7-.3-1.9-.6-1.9-1.1-1.5-1.4.8-1.7.6-1.6.8-1.7.6-1.6.7-1.7.6-1.3 1.4-1.8.3-1.7.6-1.4 1.2-1.5.9-1.9.2-1.6.8-1.4 1.1-1.6.7-1.7.6-1.6.8-1.6.7-1.7.5-1.6.9-1.5 1-1.7.5-1.7.5-1.7.7-1.5.9-1.4 1.2-1.7.6-1.8.4-1.4 1.1-1.8.3-1.2 1.5-1.6.8-1.7.7-1.3 1.2-1.2 1.3-1.7.7-1.1 1.4-1.3 1.2-1 1.5-1.2 1.3-.8 1.6-.6 1.7-.9 1.5-.7 1.6-.7 1.6-.3 1.8-1 1.5-.2 1.8-.6 1.7-.2 1.8-.5 1.7-.5 1.7-.7 1.7-.5 1.7-.4 1.8.1 1.9-1 1.6-.1 1.8-.3 1.8-.7 1.7-.3 1.8-.4 1.7-.5 1.7v1.8l-.5 1.7-.6 1.7-.8 1.7-.4 1.7-.1 1.8-.2 1.8-.6 1.7-.5 1.7-.8 1.7-.5 1.7-.2 1.8v1.9l-.5 1.7-.6 1.7-.4 1.7-.5 1.7-.3 1.8-1 1.6.2 1.9-.7 1.7-.2 1.8-.8 1.6-.4 1.8-.3 1.8-.4 1.7-.2 1.8-.9 1.6-.2 1.8-.5 1.7-.5 1.7-.6 1.7-.6 1.7-.1 1.8-.4 1.7-.2 1.8-.4 1.8-.9 1.6-.3 1.8-.8 1.6-.4 1.8-.2 1.8-.1 1.8-.7 1.7-.1 1.8-.4 1.8-1 1.6-.1 1.8-.1 1.8-.5 1.7-.6 1.7-.3 1.8-.7 1.7-.6 1.7-.2 1.8-.3 1.8-.8 1.6-.2 1.8-.2 1.8-.8 1.7-.1 1.8-.5 1.7-.2.5c1.4 1.3 2.4 3 2.9 5.1.9 3.6 1.7 7.3 2.4 10.9l.6-1.5.4-1.7.6-1.7.1-1.8.4-1.7.8-1.7.5-1.7-.2-1.9.8-1.6.3-1.8.1-1.8 1.2-1.6.4-1.8-.1-1.9 1-1.6.4-1.7-.1-1.9.5-1.7 1-1.6.5-1.7.2-1.8.3-1.8.4-1.7.2-1.8.9-1.6.2-1.8.6-1.7.2-1.8.3-1.8.9-1.6.3-1.8.3-1.8.6-1.7.7-1.7v-1.9l.4-1.7.8-1.7v-1.9l.8-1.7.5-1.7.1-1.8.4-1.8.6-1.7.4-1.8.9-1.6.3-1.8.1-1.8.5-1.7.7-1.7v-1.9l.6-1.7.5-1.7.6-1.7.5-1.7.3-1.8.3-1.8.3-1.8.9-1.6.6-1.7.3-1.8.1-1.8.8-1.7.5-1.7.1-1.8.4-1.8 1.1-1.6.1-1.8.4-1.8.5-1.7.4-1.8.6-1.7.4-1.8.3-1.8.9-1.6-.2-1.9.8-1.7.6-1.7-.1-1.9.8-1.7.8-1.7.2-1.8.6-1.7.3-1.8.1-1.8.7-1.7.1-1.8.7-1.7.9-1.6.6-1.7.5-1.8 1.3-1.4.9-1.6 1.4-1.2.8-1.8 1.6-.9 1.6-1 1.3-1.4 1.8-.5 1.5-1.1 1.7-.7 1.7-.7 1.9-.2 1.4-1.2 1.7-.7 1.8-.4 1.5-1.1 1.6-.8 1.6-.9 1.8-.3 1.6-.8 1.6-.8 1.5-1 1.6-.8 1.6-.8 1.7-.5 1.6-.9 1.9-.2 1.6-.9 1.6-.9 1.6-.8 1.6-.9 1.6-.8 1.7-.7 1.7-.7 1.7-.7 1.6-.8 1.5-.6z" fill="#fab400"/><path d="m487.2 330.7-1.5 1-1.4 1.2-1.4 1.1-1.5 1.1-1.9.5-1.3 1.3-1.7.8-1.2 1.4-1 1.6v1.9l-.4 1.9-.3 1.8-.8 1.8-.6 1.8-.3 1.9-.1 1.9-.7 1.6 1.5-.7 1.5-.9 1.5-1.1 1.6-.8 1.2-1.4 1.7-.7 1.5-1.1 1.6-1 .1-1.8.4-1.7.5-1.6.2-1.8.9-1.5.1-1.8.8-1.6.1-1.8.4-1.6z" fill="#ff6a36"/><path d="m538.3 282.2-1.9-1-1.8-.4-1.8-.5-1.8-.6-1.7-.8-1.7-.7-1.7-1.1-1.6.9-1.5.8-1.5.8-1.5.9-1.5.8-1.8.2-1.6.8-1.5.8-1.4 1-1.7.6 1.7 1 1.8.4 1.6.9 2 .2 1.6.9 1.9.5 1.5.8 1.6-.6 1.6-.6 1.5-.9 1.4-.9 1.7-.5 1.7-.5 1.5-.9 1.4-1 1.7-.5z" fill="#fff6e1"/><path d="m502.5 298.2-1.7-.7h-1.8l-1.6-.8-1.7-.4-1.5-1.1-1.8-.2-1.3 1.2-1.5.9-1 1.5-1.2 1.3-.9 1.6-.9 1.5-.9 1.5-.6 1.7-.8 1.6-.9 1.6-.1 1.7 1.6-.5h1.8l1.7-.5 1.8-.1 1.8-.2 1.6-.5.5-1.7.9-1.7 1.3-1.4.9-1.7 1.3-1.5 1.6-1.1 1.7-.8z" fill="#fff6e1"/><path d="m73.3 497c.6.6 1.1-.1 2-.1s.9-.3 1.8-.3.9-.1 1.8-.1h1.8c.9 0 .9.6 1.8.6s.9-.6 1.8-.6.9.5 1.8.5.9-.3 1.8-.3.9-.2 1.8-.2.9.1 1.8.1.9-.2 1.8-.2.9.2 1.8.2.9.6 1.8.6.9-.4 1.8-.4.9-.1 1.8-.1.9-.4 1.8-.4.9.7 1.8.7.9-.7 1.8-.7.9.8 1.8.8.9.1 1.8.1.9-.2 1.8-.2.9-.1 1.8-.1.9.2 1.8.2.9-.3 1.8-.3.9-.2 1.8-.2h1.8c.9 0 .9.7 1.8.7s.9-.6 1.8-.6.9-.2 1.8-.2.9.3 1.8.3.9.3 1.8.3.9-.7 1.8-.7.9.5 1.8.5.9-.5 1.8-.5.9.9 1.8.9.9-.4 1.8-.4.9.3 1.8.3.9-.7 1.8-.7.9.8 1.8.8.9-.5 1.8-.5.9.1 1.8.1.9-.1 1.8-.1.9-.3 1.8-.3h1.8c.9 0 .9.1 1.8.1s.9.7 1.8.7.9-.7 1.8-.7.9.2 1.8.2.9-.2 1.8-.2.9.1 1.8.1.9.5 1.8.5.9-.7 1.8-.7.9.6 1.8.6.9-.4 1.8-.4.9.7 1.8.7.9-.3 1.8-.3.9-.1 1.8-.1.9.1 1.8.1.9-.3 1.8-.3.9-.3 1.8-.3h1.8c.9 0 .9.7 1.8.7s.9-.2 1.8-.2.8.2 1.5-.4c.6-.6.7-.5.7-1.4s-.6-.9-.6-1.8.2-.9.2-1.8-.3-.9-.3-1.8.6-.9.6-1.8-.6-.9-.6-1.8.3-.9.3-1.8-.2-.9-.2-1.8.8-.9.8-1.8-.1-.9-.1-1.8.1-.9.1-1.8-.4-.9-.4-1.8.1-.9.1-1.8-.3-.9-.3-1.8-.1-.9-.1-1.8 0-.9 0-1.8.2-.9.2-1.8.2-.9.2-1.8 0-.9 0-1.8-.1-.9-.1-1.8-.2-.9-.2-1.8-.3-.9-.3-1.8.7-.9.7-1.8-.5-.9-.5-1.8.5-.9.5-1.8-.1-.9-.1-1.8-.5-.9-.5-1.8.4-.9.4-1.8-.3-.9-.3-1.8-.4-.9-.4-1.8.7-.9.7-1.8 0-.9 0-1.8.2-.9.2-1.8-.1-.9-.1-1.8-.1-.9-.1-1.8-.3-.9-.3-1.8.3-.9.3-1.8-.6-.9-.6-1.8.1-.9.1-1.8.2-.9.2-1.8-.2-.9-.2-1.8.2-.9.2-1.8.4-.9.4-1.8-.3-.9-.3-1.8.2-.9.2-1.8-.4-.9-.4-1.8-.3-.9-.3-1.8.4-.9.4-1.8.1-.9.1-1.8-.6-.9-.6-1.8.4-.9.4-1.8.3-.9.3-1.8-.2-.9-.2-1.8.2-.9.2-1.8-.6-.9-.6-1.8 0-.9 0-1.8.9-.9.9-1.8 0-.9 0-1.8-.5-.9-.5-1.8-.3-.9-.3-1.8.4-.9.4-1.8.3-.9.3-1.8-.8-.9-.8-1.8.2-.9.2-1.8.1-.9.1-1.8.3-.9.3-1.8-.1-.9-.1-1.8-.2-.9-.2-1.8-.4-.9-.4-1.8-.1-.9-.1-1.8.4-.9.4-1.8.5-.9.5-1.8-.1-.9-.1-1.8-.3-.9-.3-1.8.2-.9.2-1.8.1-.9.1-1.8-.7-.9-.7-1.8-.1-.9-.1-1.8 0-.9 0-1.8.2-.9.2-1.8.5-.9.5-1.8-.7-.9-.7-1.8.6-.9.6-1.8-.5-.9-.5-1.8.4-.9.4-1.8-.3-.9-.3-1.8-.2-.9-.2-1.8.3-.9.3-1.8.5-.9.5-1.8-.6-.9-.6-1.8.3-.9.3-1.8-.4-.9-.4-1.8.5-.9.5-1.8-.2-.9-.2-1.8-.4-.9-.4-1.8.6-.9.6-1.8-.7-.9-.7-1.8.3-.9.3-1.8.4-.9.4-1.8-.2-.9-.2-1.8-.4-.9-.4-1.8-.1-.9-.1-1.8.4-.9.4-1.8-.4-.9-.4-1.8.1-.9.1-1.8 0-.9 0-1.8.1-.9.1-1.8.6-.9.6-1.8-.6-.9-.6-1.8-.1-.9-.1-1.8.1-.9.1-1.8 0-.9 0-1.8.7-.9.7-1.8.1-.9.1-1.8-.1-.9-.1-1.8-.8-.9-.8-1.8.2-.9.2-1.8.8-.9.8-1.8-.5-.9-.5-1.8.4-.9.4-1.8-.3-.9-.3-1.8.1-.9.1-1.8-.4-.9-.4-1.8.6-.9.6-1.8-.6-.9-.6-1.8.4-.9.4-1.8.2-.9.2-1.8-.5-.9-.5-1.8.6-.9.6-1.8-.6-.9-.6-1.8-.3-.9-.3-1.8.1-.9.1-1.8.7-.9.7-1.8 0-.9 0-1.8-.4-.9-.4-1.8.3-.9.3-1.8-.7-.9-.7-1.8.2-.9.2-1.8.7-1.1.1-1.7-.8-.4-1.7-.4-.9.5-1.8.5-.9-.3-1.8-.3-.9-.3-1.8-.3-.9.1-1.8.1-.9 0-1.8 0-.9.6-1.8.6-.9.3-1.8.3-.9-.4-1.8-.4-.9-.1-1.8-.1-.9-.3-1.8-.3-.9.2-1.8.2-.9.2-1.8.2-.9-.3-1.8-.3-.9.6-1.8.6-.9-.4-1.8-.4-.9.3-1.8.3-.9-.8-1.8-.8-.9.6-1.8.6-.9-.6-1.8-.6-.9.9-1.8.9-.9-.8-1.8-.8-.9.2-1.8.2-.9-.1-1.8-.1-.9.2-1.8.2-.9-.2-1.8-.2-.9.5-1.8.5-.9-.5-1.8-.5-.9 0-1.8 0-.9.1-1.8.1-.9.1-1.8.1-.9.1-1.8.1-.9.2-1.8.2-.9.1-1.8.1-.9-.6-1.8-.6-.9.6-1.8.6-.9-.7-1.8-.7-.9.1-1.8.1-.9.2-1.8.2-.9-.4-1.8-.4-.9.9-1.8.9-.9-.1-1.8-.1-.9.2-1.8.2-.9-.4-1.8-.4-.9.2-1.8.2-.9.1-1.8.1-.9-.4-1.8-.4-.9.4-1.8.4-.9-.8-1.8-.8-.9.5-1.8.5-.9.4-1.8.4-.9-.3-1.8-.3-.9.3-1.8.3-.9-.1-1.8-.1-.9-.2-1.8-.2-.9-.2-1.8-.2-.9-.4-1.8-.4-.9.2-1.8.2-.9.6-1.8.6-.9-.7-1.8-.7-.9.4-1.8.4-.9-.1-1.8-.1-.9.3-1.8.3-1.5-1.2-2.1-.5c-.6.6-.1 1.2-.1 2.1s.1.9.1 1.8.1.9.1 1.8v1.8c0 .9.2.9.2 1.8s-.1.9-.1 1.8-.2.9-.2 1.8.5.9.5 1.8.2.9.2 1.8-.4.9-.4 1.8.3.9.3 1.8v1.8 1.8c0 .9-.6.9-.6 1.8s.1.9.1 1.8-.3.9-.3 1.8.9.9.9 1.8-.4.9-.4 1.8-.3.9-.3 1.8-.1.9-.1 1.8.3.9.3 1.8.5.9.5 1.8-.8.9-.8 1.8.4.9.4 1.8-.4.9-.4 1.8-.1.9-.1 1.8.8.9.8 1.8-.1.9-.1 1.8.1.9.1 1.8-.4.9-.4 1.8-.3.9-.3 1.8.4.9.4 1.8-.3.9-.3 1.8v1.8c0 .9.1.9.1 1.8s.2.9.2 1.8-.1.9-.1 1.8-.2.9-.2 1.8.7.9.7 1.8.1.9.1 1.8-.5.9-.5 1.8-.3.9-.3 1.8.4.9.4 1.8-.5.9-.5 1.8.9.9.9 1.8-.2.9-.2 1.8v1.8c0 .9-.7.9-.7 1.8s.2.9.2 1.8.5.9.5 1.8-.4.9-.4 1.8v1.8c0 .9.2.9.2 1.8s.5.9.5 1.8-.7.9-.7 1.8-.1.9-.1 1.8.5.9.5 1.8v1.8 1.8c0 .9.4.9.4 1.8s.1.9.1 1.8-.5.9-.5 1.8.4.9.4 1.8v1.8c0 .9-.5.9-.5 1.8s.2.9.2 1.8v1.8c0 .9.1.9.1 1.8s-.4.9-.4 1.8-.1.9-.1 1.8.6.9.6 1.8-.3.9-.3 1.8v1.8c0 .9.1.9.1 1.8s-.3.9-.3 1.8.3.9.3 1.8.1.9.1 1.8v1.8c0 .9.2.9.2 1.8s-.4.9-.4 1.8-.5.9-.5 1.8.9.9.9 1.8-.8.9-.8 1.8.1.9.1 1.8.4.9.4 1.8-.4.9-.4 1.8.6.9.6 1.8-.7.9-.7 1.8.6.9.6 1.8-.4.9-.4 1.8.3.9.3 1.8-.2.9-.2 1.8.3.9.3 1.8-.9.9-.9 1.8.2.9.2 1.8-.2.9-.2 1.8.9.9.9 1.8-1 .9-1 1.8.1.9.1 1.8.6.9.6 1.8.1.9.1 1.8.2.9.2 1.8-.3.9-.3 1.8.3.9.3 1.8-.5.9-.5 1.8v1.8c0 .9.4.9.4 1.8s.1.9.1 1.8-.1.9-.1 1.8-.3.9-.3 1.8.3.9.3 1.8-.6.9-.6 1.8.7.9.7 1.8-.3.9-.3 1.8.4.9.4 1.8.1.9.1 1.8-.1.9-.1 1.8-.7.9-.7 1.8.8.9.8 1.8-.2.9-.2 1.8-.1.9-.1 1.8-.3.9-.3 1.8.3.9.3 1.8v1.8c0 .9.4.9.4 1.8s-.5.9-.5 1.8.4.9.4 1.8.1.9.1 1.8-.1.9-.1 1.8-.4.9-.4 1.8.5.9.5 1.8-.4.9-.4 1.8.4.9.4 1.8-.5.9-.5 1.8.3.9.3 1.8-.2.9-.2 1.8-.2.9-.2 1.8.2.9-.1 1.8c-.3.6-.7.9-.1 1.6z" fill="#ffdcd2"/><path d="m130.2 472.8v.2l-2.5-.6-2.6.3-2.5-.4-2.5-.7-2.6-.1-2.2-1.3-2.5-.6-2.1-1.6-2.2-1.3-2.5-.8-1.6-2-2.5-.9-1.4-2.3-2.4-1.2-1.1-2.4-1.9-1.7-1.5-2.1-1.3-2.2-1.1-2.3-.7-2.5-1.6-2.1-.1-2.6-1.5-2.2-.1-2.6v-2.6l-.8-2.4.2-2.6-.4-2.5.5-2.6-.7-2.5.1-2.5.4-2.6-.2-2.5.3-2.5-.5-2.5.4-2.6-.2-2.5.6-2.5-.7-2.6.2-2.5.5-2.5-.5-2.5.3-2.6-.3-2.5v-2.5l.4-2.6-.8-2.5.5-2.5.4-2.6-.7-2.5.7-2.5-.5-2.6.3-2.5-.4-2.5-.3-2.6 1-2.5v-2.5l-.9-2.6.3-2.5v-2.5l.1-2.6-.4-2.5.4-2.5.3-2.6-.3-2.5-.4-2.5.8-2.6-.6-2.5.1-2.5-.3-2.6v-2.5l.3-2.5.5-2.6-.8-2.5.4-2.5-.4-2.6.3-2.5-.3-2.6.7-2.5-.6-2.5.4-2.6.5-2.5-.6-2.5.1-2.6-.1-2.5v-2.5l.3-2.6.2-2.5-.8-2.5.6-2.6v-2.5l.1-2.6v-2.5l-.9-2.5.4-2.6-.3-2.5v-2.5l.8-2.6-.3-2.5 2.5.3 2.6-.8h2.5l2.6.8 2.6-.8 2.5.5 2.6-.5 2.6.4 2.5.4 2.6-.8h2.6l2.5.9 2.6.1 2.6-.2 2.5-.7 2.6.5 2.6-.2 2.5.4 2.6-.4 2.6.5h2.5l2.6-.2 2.6.1 2.5-.4 2.6.3 2.6-.2 2.5-.2 2.6.5 2.6-.2 2.6.2 2.5-.3 2.6-.1 2.6.1 2.4.2-.1 2.3-.1 2.5v2.6l.6 2.5-.7 2.5.1 2.6.1 2.5.7 2.5-.8 2.5.1 2.6.2 2.5-.3 2.5v2.6l.5 2.5-.4 2.5v2.6l.3 2.5-.3 2.5.2 2.5-.3 2.6-.1 2.5.9 2.5-.1 2.6-.3 2.5.4 2.5-.6 2.6.2 2.5-.2 2.5v2.6l.2 2.5.1 2.5-.4 2.6.2 2.5-.4 2.5.5 2.6.1 2.5.2 2.5-.5 2.6-.1 2.5.7 2.5v2.6l-.1 2.5-.4 2.5.4 2.6-.8 2.5.5 2.5-.3 2.6.1 2.5.6 2.6-.8 2.5.6 2.5-.7 2.6.6 2.5.1 2.5-.6 2.6.2 2.5.2 2.5-.2 2.6-.2 2.5.2 2.5-.1 2.6.2 2.5-.4 2.5v2.6l.8 2.5-.3 2.6.1 2.5v2.5l-.5 2.6.7 2.5.1 2.6-.2 2.5-.6 2.5v2.6l-.5 2.5-.5 2.4-.3 2.6-.6 2.5-1.3 2.2-1.3 2.2-.6 2.5-1.3 2.3-2.2 1.6-1.4 2.1-1.3 2.2-2.1 1.5-2 1.6-1.8 1.7-2.4 1-1.9 1.7-2 1.7-2.4 1-2.3 1.1-2.7.1-2.3.9-2.6.2-2.5.4-2.4.8z" fill="#ffaf9b"/><path d="m336.5 192.8c.3.5.1 1.3.3 1.9s1.1.9 1.3 1.4c.2.6 0 1.3.2 1.9s.8 1 1 1.6.3 1.2.5 1.8-.2 1.3-.1 1.9c.2.6.7 1.1.8 1.7s0 1.2.1 1.8.3 1.2.4 1.8.2 1.2.3 1.8-.1 1.2 0 1.8.9 1.1 1 1.7c0 .6-.7 1.3-.7 1.9v1.8c0 .6.6 1.2.6 1.8s-.2 1.2-.2 1.8-.1 1.2-.1 1.8-.1 1.2-.2 1.8-.1 1.2-.2 1.8.3 1.3.2 1.9-1 1.1-1.1 1.6c-.1.6.1 1.3 0 1.8-.1.6-.1 1.2-.3 1.8s-.6 1.1-.8 1.7.3 1.4.1 1.9c-.2.6-.9 1-1.1 1.5-.2.6-.1 1.2-.4 1.8-.2.6-.7 1-1 1.6-.2.6-.8 1-1 1.5-.3.5 0 1.4-.2 1.9-.3.5-.6 1-.9 1.6-.3.5-.6 1.1-.9 1.6s-.4 1.2-.7 1.7-.9.9-1.3 1.4c-.3.5-.5 1.1-.9 1.6s-1 .8-1.3 1.3c-.4.5-.9.8-1.3 1.3s-.9.8-1.3 1.3-.1 1.5-.6 1.9c-.4.4-1.4.3-1.9.8-.4.4-.3 1.4-.8 1.8-.7.6-.7.6-1.4 1.2s-.7.6-1.4 1.2-.9.4-1.6 1-.3 1-1 1.6-1 .3-1.6.9c-.7.6-.5.8-1.2 1.4s-.7.6-1.4 1.2-.7.6-1.3 1.3c-.7.6-1 .3-1.6 1-.7.6-.6.7-1.2 1.4-.7.6-.5.8-1.2 1.4s-.8.5-1.4 1.1c-.7.6-.4.9-1 1.6-.7.6-.9.4-1.5 1.1-.7.6-.9.4-1.5 1-.7.6 0 1.3-.7 1.9s-.8.5-1.4 1.2c-.7.6-1.2.1-1.8.7-.7.6-.1 1.2-.7 1.9-.7.6-.9.4-1.6 1s-.4 1.3-1.4 1.2c-.9 0-.5-.8-1.1-1.5s-.8-.5-1.4-1.2-.3-1-1-1.6c-.6-.7-.6-.7-1.3-1.3-.6-.7-.7-.6-1.3-1.3s-1.3 0-1.9-.7-.2-1.1-.8-1.8-.8-.5-1.5-1.1c-.6-.7-.5-.8-1.1-1.5s-.8-.5-1.4-1.2-.8-.5-1.5-1.1c-.6-.7-.5-.7-1.2-1.4-.6-.7-.5-.7-1.2-1.4-.6-.7-.8-.5-1.5-1.1-.6-.7-.6-.7-1.2-1.4s-.4-.9-1-1.6-.9-.4-1.5-1.1-.3-1-.9-1.7-.5-.8-1.1-1.5-.8-.5-1.5-1.1c-.6-.7-1-.3-1.7-.9-.4-.4-.3-1.4-.7-1.9-.4-.4-1.2-.5-1.6-1s-1-.8-1.3-1.3c-.4-.5-.4-1.2-.8-1.7s-1-.8-1.4-1.3-.1-1.4-.4-1.9-1-.8-1.3-1.3-.2-1.3-.5-1.8-.7-1-1-1.5-.4-1.1-.7-1.7c-.3-.5-1.1-.8-1.4-1.4s-.6-1.1-.8-1.6c-.2-.6-.5-1.1-.8-1.7-.2-.6.1-1.3-.1-1.9s-.7-1-.9-1.6.1-1.3 0-1.9c-.2-.6-.8-1-1-1.6-.1-.6-.7-1.1-.8-1.7s-.1-1.2-.2-1.8.3-1.3.2-1.9-.5-1.2-.6-1.8.1-1.2.1-1.8c-.1-.6-.3-1.2-.4-1.8 0-.6.1-1.2.1-1.8s-.4-1.2-.4-1.8.3-1.2.3-1.8-.5-1.2-.5-1.8.5-1.2.5-1.8c.1-.6-.1-1.2 0-1.8s.7-1.1.8-1.7.2-1.2.3-1.8.1-1.2.2-1.8-.3-1.3-.1-1.9c.1-.6.2-1.2.4-1.8s1.1-.9 1.3-1.5-.1-1.3.1-1.9.4-1.2.6-1.7c.2-.6.7-1 .9-1.6s.7-1 1-1.5c.2-.6 0-1.4.2-1.9.3-.5.5-1.1.8-1.7.4-.7.8-.5 1.2-1.2.3-.5.4-1.2.6-1.7.3-.5.6-1.1.9-1.6.2-.6.7-1 .9-1.6s-.3-1.4-.1-2 .6-1 .8-1.6.6-1.1.8-1.7.2-1.2.3-1.8c.2-.6.8-1 1-1.6.1-.6.2-1.2.3-1.8s-.1-1.3 0-1.9.4-1.2.5-1.8.2-1.2.3-1.8-.5-1.3-.5-1.9c.1-.6.4-1.2.5-1.8 0-.6 0-1.2 0-1.8s.2-1.2.2-1.8 0-1.2 0-1.8.4-1.2.4-1.8-.9-1.1-1-1.7.1-1.2 0-1.8-.2-1.2-.3-1.8.3-1.3.2-1.9-.9-1.1-1-1.6c-.1-.6-.1-1.2-.2-1.8s-.3-1.2-.5-1.7c-.2-.6-.6-1.1-.8-1.6-.2-.6.1-1.3-.1-1.9s-.6-1.1-.8-1.6c-.2-.6-.1-1.3-.3-1.8-.2-.6-.5-1.1-.7-1.7-.3-.5-.8-.9-1.1-1.5-.3-.5-.1-1.3-.3-1.9-.3-.5-.9-.9-1.3-1.4-.3-.5-.8-.9-1-1.5-.3-.5-.5-1.1-.8-1.6s-.1-1.3-.4-1.8-.4-1.1-.6-1.7-.6-1-.8-1.6-.5-1.1-.7-1.6c-.2-.6-.4-1.1-.6-1.7s-.4-1.1-.6-1.7-.8-1-1-1.6c-.1-.6-.1-1.2-.3-1.8-.1-.6-.1-1.2-.2-1.8s-.5-1.1-.6-1.7.4-1.3.3-1.9-.9-1.1-1-1.7.5-1.3.5-1.8c0-.6.1-1.2.1-1.8s-.5-1.2-.5-1.8.3-1.2.3-1.8-.6-1.2-.5-1.8c0-.6.9-1.1.9-1.7s-.2-1.2-.2-1.8c.1-.6-.2-1.2-.1-1.8s0-1.2.1-1.8.4-1.1.5-1.7.7-1.1.8-1.6c.1-.6.4-1.1.5-1.7.2-.6 0-1.2.2-1.8s0-1.3.2-1.8c.2-.6.4-1.1.6-1.7s1.1-.8 1.4-1.4c.2-.6-.1-1.3.1-1.9.2-.5.9-.9 1.2-1.4s.7-1 1-1.5.1-1.3.4-1.8.3-1.2.6-1.7c.4-.8.8-.5 1.3-1.3.4-.8.8-.6 1.2-1.4s-.2-1.2.2-1.9c.4-.8 1.1-.4 1.5-1.2s.5-.7 1-1.5c.4-.8.5-.7 1-1.5.4-.8.1-1 .6-1.7.4-.8.5-.7 1-1.5.4-.8.7-.6 1.2-1.4.4-.8-.2-1.2.2-1.9.4-.8 1-.5 1.4-1.2.4-.8.5-.7 1-1.5.4-.8-.1-1.1.4-1.8.4-.8.8-.6 1.3-1.3.4-.8 0-1 .5-1.8.4-.8.8-.6 1.3-1.3.4-.8.1-1 .5-1.8s.3-.8.8-1.6c.4-.8.7-.6 1.2-1.4.4-.8.9-.5 1.4-1.3.4-.8.3-.8.8-1.6.4-.8-.1-1.1.3-1.9s.7-.6 1.2-1.4c.4-.8.6-.7 1-1.5s.6-.7 1.1-1.4c.4-.8-.3-1.2.2-2 .4-.8 1.2-.4 1.6-1.1.4-.8-.2-1.2.2-1.9.4-.8 1.2-.3 1.6-1.1s.2-.9.6-1.7.7-.6 1.1-1.4-.3-1.2.2-2c.4-.8.4-.8.9-1.6.4-.8 1.2-.3 1.7-1.1.4-.8.4-.8.8-1.6s0-1.1.4-1.8c.4-.8 1-.5 1.4-1.2.4-.8 0-1.1.4-1.8.4-.8.8-.6 1.3-1.3.5-.8.5-.7 1-1.5.4-.8-.1-1.1.4-1.9.4-.8 1-.5 1.4-1.2.5-.8.3-.8.8-1.6.4-.8.2-.9.7-1.7s.4-.8.9-1.6.3-.8.8-1.6.1-1.8 1-1.8.8.8 1.2 1.6-.2 1.1.2 1.9.6.7 1.1 1.5c.4.8.8.6 1.2 1.4s.2.9.6 1.7.2.9.7 1.7l.8 1.6c.4.8.1 1 .5 1.7.4.8.6.7 1 1.5s.2.9.7 1.7c.4.8 1 .5 1.4 1.3s.5.7.9 1.5-.1 1.1.3 1.9.6.7 1 1.5.7.6 1.2 1.4c.4.8-.1 1.1.3 1.9s.8.6 1.2 1.4.3.8.8 1.6c.4.8.8.6 1.2 1.4s-.2 1.1.2 1.9.3.8.8 1.6c.4.8.9.5 1.3 1.3s.6.7 1 1.5.4.8.8 1.6.6.7 1 1.5-.2 1.1.2 1.9 1.1.4 1.5 1.2.1 1 .5 1.8.3.9.7 1.6c.4.8.7.7 1.1 1.4.4.8.5.8.9 1.6s.5.7 1 1.5c.4.8.3.9.7 1.7s0 1 .4 1.8.3.8.7 1.6.8.6 1.2 1.4.5.7.9 1.5.5.8.9 1.5c.4.8.2.9.7 1.7.4.8.5.7 1 1.5.4.8.2.9.6 1.7s.3.9.7 1.7.6.7 1 1.5.7.6 1.1 1.4.5.7.9 1.5.5.8.9 1.6-.1 1.1.3 1.9c.3.5 1.1.8 1.3 1.3.3.5.1 1.3.3 1.8s.7 1 1 1.5c.2.5.6 1 .8 1.6s.3 1.1.5 1.7.6 1.1.8 1.6c.2.6.2 1.2.3 1.8.2.6-.2 1.3-.1 1.9s.7 1.1.8 1.6c.1.6.3 1.1.4 1.7s.6 1.1.7 1.7-.5 1.3-.4 1.9.9 1.1.9 1.7c.1.6-.7 1.3-.7 1.8v1.8c0 .6.3 1.2.3 1.8s.1 1.2.1 1.8-.2 1.2-.2 1.8.3 1.2.2 1.8c0 .6.1 1.2 0 1.8s-.1 1.2-.2 1.8-.8 1.1-.9 1.7.4 1.3.2 1.9c-.1.6-.1 1.2-.2 1.8s-.6 1.1-.7 1.7c-.2.6-.6 1.1-.8 1.6-.2.6.3 1.4.1 1.9-.2.6-.9 1-1.1 1.5-.2.6 0 1.3-.2 1.8-.2.6-1.2.8-1.5 1.3-.2.5-.1 1.2-.4 1.8-.3.5-.8.9-1.1 1.5-.3.5.1 1.4-.2 1.9s-1.3.7-1.6 1.2-.2 1.3-.5 1.8-.7 1-1 1.5-.5 1.1-.8 1.6-.3 1.2-.6 1.8c-.3.5-.5 1.1-.8 1.6s-.6 1-.8 1.6-1.1.9-1.3 1.4c-.2.6.2 1.4 0 1.9-.2.6-.6 1.1-.8 1.7s-.1 1.2-.3 1.8-.4 1.1-.6 1.7-.8 1.1-.9 1.6c-.1.6.5 1.3.4 1.9s-.8 1.1-.9 1.7.2 1.2.1 1.8-.8 1.1-.9 1.7.2 1.2.2 1.8v1.8c0 .6-.2 1.2-.2 1.8s.2 1.2.3 1.8c0 .6.3 1.2.4 1.8 0 .6.1 1.2.1 1.8s-.5 1.3-.5 1.9c.1.6.4 1.2.4 1.8.1.6.7 1.1.8 1.7s-.6 1.3-.5 1.9.8 1.1.9 1.7.1 1.2.2 1.8c.2.6.6 1.1.8 1.7s-.2 1.3 0 1.9 1 .9 1.2 1.5.1 1.2.4 1.8c.2.6.7 1 .9 1.6s-.2 1.5.1 2.1c.6.6 1.1.3 1.4 1z" fill="#3f6e56"/><g clip-path="url(#a)" fill="#15433d"><path d="m258.1 51.7c.4 1.5 2 1.8 3 2.8s1.9 2.1 2.8 3.2c.3.4.7.8 1 1.1 1.8 1.7 1.9 1.6 3.7 3.3s1.8 1.6 3.6 3.4c1.8 1.7 1.5 2 3.3 3.7s2.1 1.3 3.9 3.1c1.8 1.7 1.3 2.2 3.1 3.9s1.8 1.6 3.6 3.4c1.8 1.7 1.8 1.7 3.5 3.5 1.8 1.7 2.1 1.4 3.8 3.1 1.8 1.7 1.4 2.1 3.1 3.8s1.7 1.7 3.5 3.5c.4.4.7.7 1 1s.6.6.9.9c.5.5 1 .9 1.4 1.2.4-.5.8-1 1.3-1.6.2-.3.5-.6.8-.9s.6-.6.9-1c1.7-1.8 1.4-2 3.1-3.9 1.7-1.8 2.1-1.5 3.7-3.3 1.7-1.8 1.6-1.9 3.2-3.7 1.7-1.8 1.3-2.2 2.9-4 1.7-1.8 2-1.5 3.6-3.4 1.7-1.8 1.7-1.8 3.3-3.6 1.7-1.8 1.7-1.8 3.3-3.6 1.7-1.8 1.7-1.8 3.3-3.6 1.7-1.8 1.4-2.1 3-3.9s1.9-1.6 3.4-3.2c.6-1 1.4-1.9 2.2-2.8l.6-.7c.1-.2.5-.2.4-.6-.2-.5-1.7-1.9-2.2-2-.4-.1-.4.3-.5.4-.7.8-1.7 1.2-2.5 1.8-.2.3-.4.6-.7 1-1.7 1.8-1.4 2.1-3 3.9-1.7 1.8-1.9 1.6-3.6 3.4s-1.2 2.2-2.9 4.1c-1.7 1.8-2.1 1.4-3.7 3.3-1.7 1.8-1.5 2-3.1 3.8-1.7 1.8-1.6 1.9-3.2 3.7s-1.5 2-3.2 3.8-1.7 1.8-3.4 3.6-2 1.5-3.6 3.3c-1.7 1.8-1.5 1.9-3.2 3.8-.1.1-.1.1-.2.2v.1c0 .1-.1.1-.1.2h-.1s-.1 0-.1-.1h-.1c-.1 0-.1-.1-.2-.2-1.8-1.7-1.9-1.6-3.7-3.3s-1.4-2.1-3.2-3.8-2.1-1.3-3.9-3.1c-1.8-1.7-1.6-1.9-3.4-3.6s-1.9-1.6-3.7-3.3-1.6-1.9-3.4-3.6-1.6-1.9-3.4-3.6-1.7-1.8-3.4-3.5c-1.8-1.7-1.8-1.7-3.5-3.4-1.8-1.7-2-1.5-3.7-3.2l-3.3-3.3c-.6-.6-1.3-1-2-1.5s-.7-1.8-1.8-2c-.4-.4-2.3 1.6-2.2 2z"/><path d="m248.6 119.8c.7 1.8 2.7 2.5 4 3.8s2.5 2.8 3.8 4.1c.5.5.9 1 1.4 1.5 2.3 2.3 2.5 2.1 4.8 4.4s2.4 2.2 4.8 4.5c2.3 2.3 2.1 2.6 4.4 4.8 2.3 2.3 2.7 1.9 5 4.2s1.9 2.7 4.2 5 2.4 2.2 4.8 4.5c2.3 2.3 2.3 2.3 4.7 4.6 2.3 2.3 2.6 2 5 4.3 1.2 1.1 1.7 1.8 2.1 2.5.2.3.5.7.8 1.1.2.2.3.4.6.6.1.1.2.2.4.4.1.1.3.3.5.5 1.5 1.5 2.6 2.5 3.1 3.1 1.5-1.6 2.2-2.5 4.4-4.9s2-2.6 4.2-5.1c2.2-2.4 1.9-2.7 4.1-5.1s2.6-2.1 4.8-4.5 2.1-2.5 4.3-4.9 1.8-2.8 3.9-5.2c2.2-2.4 2.5-2.2 4.7-4.6s2.2-2.4 4.4-4.9c2.2-2.4 2.2-2.4 4.4-4.9 2.2-2.4 2.2-2.4 4.4-4.9 2.2-2.4 1.9-2.7 4-5.2 2.1-2.4 2.4-2.2 4.4-4.4.9-1.3 1.9-2.5 2.9-3.7l.8-.9c.2-.2.6-.4.6-.8-.1-.6-1.7-2-2.3-2-.4 0-.5.4-.7.6-.9 1-2.1 1.7-3.2 2.6-.3.4-.6.8-1 1.3-2.2 2.4-1.9 2.7-4 5.2-2.2 2.4-2.4 2.2-4.6 4.6s-1.7 2.8-3.9 5.3c-2.2 2.4-2.6 2-4.8 4.5-2.2 2.4-2 2.6-4.2 5s-2.1 2.5-4.2 5c-2.2 2.4-2 2.6-4.2 5s-2.2 2.4-4.4 4.8-2.5 2.1-4.7 4.6c-2.2 2.4-2.1 2.5-4.2 5-2.2 2.4-2 2.6-4.2 5-.4.4-.7.8-.9 1.1-.1.2-.2.3-.4.4-.1.1-.1.1-.1.1v.1c-.1.1-.2.3-.3.5-.1 0-.2-.1-.5-.4-2.2-2.2-2-2.6-4.3-4.9s-2.7-1.9-5-4.2-2.2-2.5-4.5-4.8-2.5-2.1-4.8-4.4-2.2-2.4-4.5-4.7-2.2-2.4-4.5-4.7-2.2-2.4-4.6-4.7c-2.3-2.3-2.3-2.3-4.7-4.6-2.3-2.3-2.5-2.1-4.9-4.4l-4.4-4.4c-.8-.8-1.7-1.3-2.5-2-.9-.8-1.2-2.3-2.4-2.6-1-.3-3 1.7-2.8 2.2z"/><path d="m255.5 202c.5 1.5 2.1 1.8 3.2 2.8s2 2.1 3 3.2c.4.4.7.7 1.1 1.1 1.9 1.7 2 1.5 3.9 3.3 1.9 1.7 1.9 1.6 3.8 3.3s1.6 2 3.5 3.7 2.2 1.3 4.1 3.1c1.9 1.7 1.4 2.2 3.3 3.9s1.9 1.6 3.8 3.3c1.8 1.7 1.9 1.7 3.7 3.5 1.9 1.7 2.1 1.4 4 3.1.9.9 1.3 1.4 1.7 1.9.2.3.4.5.6.8.1.2.3.3.4.5.1.1.2.2.3.3.2.2.4.4.6.6 1.2 1.1 2 1.8 2.3 2.2 1.3-1.3 2-1.9 3.9-3.8 1.8-1.8 1.6-2 3.4-3.7 1.8-1.8 1.6-2 3.4-3.8s2.2-1.4 4-3.1c1.8-1.8 1.7-1.8 3.5-3.6s1.4-2.2 3.2-3.9c1.8-1.8 2.1-1.5 3.9-3.2 1.8-1.8 1.8-1.8 3.6-3.5 1.8-1.8 1.8-1.8 3.6-3.5 1.8-1.8 1.8-1.8 3.6-3.5 1.8-1.8 1.5-2.1 3.3-3.8 1.7-1.7 2-1.5 3.7-3.1.7-1 1.6-1.9 2.4-2.8l.6-.7c.2-.2.6-.2.5-.6-.1-.6-1.6-2-2.1-2.2-.4-.1-.4.3-.6.4-.7.7-1.8 1.2-2.7 1.7-.2.3-.5.6-.8.9-1.8 1.8-1.5 2.1-3.3 3.8-1.8 1.8-2.1 1.5-3.9 3.3s-1.4 2.2-3.2 4-2.2 1.3-4 3.1-1.7 1.9-3.5 3.7-1.7 1.9-3.5 3.6c-1.8 1.8-1.7 1.9-3.5 3.7s-1.9 1.7-3.7 3.5-2.1 1.4-3.9 3.2-1.7 1.9-3.5 3.7-1.7 1.9-3.5 3.7c-.3.3-.6.6-.8.8-.1.1-.1.1-.2.2s0 0-.1.1v.1c-.1.1-.1.2-.2.4-.1 0-.2-.1-.4-.3-.1-.1-.3-.3-.4-.4-.2-.2-.3-.3-.4-.5-.3-.3-.5-.6-.6-.8-.4-.5-.8-1-1.7-1.9-1.9-1.7-2.2-1.3-4.1-3s-1.7-1.9-3.6-3.6-2-1.5-3.9-3.3c-1.9-1.7-1.7-1.9-3.6-3.6s-1.7-1.9-3.6-3.6-1.8-1.8-3.6-3.5c-1.9-1.7-1.9-1.7-3.7-3.4-1.9-1.7-2.1-1.5-3.9-3.2l-3.5-3.3c-.6-.6-1.4-.9-2.1-1.4s-.8-1.9-1.9-2c-.2-.3-2.1 1.7-1.9 2.1z"/></g><g clip-path="url(#a)"><path d="m286 362.5c1.5-4.1 1.3-8.6 2-12.9.7-4.4 1.6-8.8 2.5-13.2.3-1.6.6-3.2.8-4.8 1-7.8.8-7.8 1.8-15.6s.9-7.8 1.9-15.5c.9-7.8 1.2-7.7 2-15.5s.3-7.8 1.1-15.6c.4-3.9.7-5.8 1-7.8.3-1.9.6-3.9.9-7.8.6-7.8.5-7.8 1.1-15.6.3-3.9.4-5.9.6-7.8.1-2 .2-3.9.5-7.8.5-7.8 0-7.8.5-15.6s.9-7.8 1.3-15.6c.3-7.8.3-7.8.7-15.6.3-7.8 0-7.8.2-15.6s-.1-7.8.1-15.6.7-7.8.8-15.6c0-7.8 0-7.8.1-15.6 0-7.8-.6-7.8-.6-15.6-.1-7.8.4-7.8.3-15.6s-.1-7.8-.2-15.6-.1-7.8-.3-15.6-.1-7.8-.4-15.6-.6-7.8-1-15.6c-.3-7.5 0-7.8-.3-14.9-.4-3.7-.6-7.5-.9-11.2l-.2-2.8c0-.7.1-1.7-.3-2.3-.6-.9-2.6-.7-3 .2-.3.7 0 1.5 0 2.2.2 3.2 0 6.4-.1 9.6.1 1.1.2 2.3.3 3.8.4 7.8.8 7.8 1.1 15.6s-.1 7.8.2 15.6.8 7.8 1.1 15.6c.2 7.8-.4 7.8-.2 15.6.1 7.8.3 7.8.5 15.6.1 7.8.2 7.8.2 15.6s.2 7.8.2 15.6c-.1 7.8-.1 7.8-.2 15.6s-.5 7.8-.7 15.6 0 7.8-.2 15.6.1 7.8-.3 15.6c-.3 7.8-.1 7.8-.4 15.6s-.7 7.8-1.2 15.6.1 7.8-.4 15.6c-.2 3.9-.4 5.8-.6 7.8-.2 1.9-.3 3.9-.7 7.8-.6 7.8-.4 7.8-1 15.6-.3 3.9-.5 5.8-.7 7.8-.2 1.9-.4 3.9-.8 7.8-.8 7.8-1 7.7-1.8 15.5s-.9 7.8-1.8 15.5c-1 7.7-1 7.7-2 15.5-1 7.7-.7 7.8-1.7 15.5l-2.4 14.7c-.4 2.5-.6 5.1-.9 7.7-.4 2.8-1.7 5.5-1.5 8.4-.1.6 2.6 1.2 3 .1z" fill="#15433d"/></g><path d="m266.8 200.6c.3.5.6 1.1.9 1.6s.7 1 1 1.5.9.9 1.1 1.4c.3.5.2 1.3.5 1.8s.6 1 .9 1.6c.3.5.2 1.2.4 1.8s.5 1.1.7 1.6c.2.6 1 .9 1.2 1.5s0 1.3.2 1.8c.2.6-.1 1.3.1 1.9s.4 1.1.5 1.7.1 1.2.2 1.8.5 1.1.6 1.7.4 1.2.5 1.8.3 1.2.3 1.8.2 1.2.2 1.8-.5 1.2-.5 1.8.2 1.2.2 1.8.5 1.2.4 1.8c0 .6-.4 1.2-.4 1.8-.1.6-.3 1.2-.3 1.8-.1.6-.3 1.2-.4 1.8s-.6 1.1-.7 1.7.2 1.3 0 1.9c-.1.6 0 1.2-.2 1.8s-.2 1.2-.4 1.8-.6 1.1-.8 1.6c-.2.6-.7 1-1 1.6-.2.6-.4 1.1-.7 1.7-.2.5-.3 1.2-.6 1.7s-.6 1-.9 1.6c-.3.5-.4 1.1-.7 1.7-.3.5-.7 1-1.1 1.5-.3.5-.5 1.1-.8 1.6s-.9.8-1.3 1.3c-.5.7-.6.7-1.2 1.4-.5.7-.7.6-1.2 1.4-.5.7-.4.9-.9 1.6s-.6.7-1.1 1.5c-.5.7-.3.9-.8 1.6s-.3.9-.9 1.6c-.5.7-.7.6-1.2 1.4-.5.7-.2 1-.8 1.7-.5.7-.7.6-1.2 1.3s-.9.5-1.4 1.2-.7.6-1.3 1.3c-.5.7-.2 1-.7 1.7s-.4.9-.9 1.6-1.1.3-1.6 1.1c-.5.7 0 1.1-.5 1.9-.5.7-.5.7-1.1 1.5-.5.7-.5.7-1.1 1.5-.5.7-.4 1.6-1.3 1.8-.9.1-.6-1.3-1.3-1.9-.7-.5-1-.1-1.8-.7-.7-.5-.5-.9-1.2-1.4s-.8-.4-1.6-.9c-.7-.5-.9-.2-1.7-.8-.7-.5-.6-.7-1.3-1.3-.7-.5-.6-.8-1.3-1.3s-.7-.5-1.5-1.1c-.7-.5-.9-.2-1.7-.8-.7-.5-.4-.9-1.2-1.5-.7-.5-.9-.3-1.6-.9-.7-.5-.6-.8-1.3-1.3s-1.1-.1-1.8-.6-.6-.8-1.3-1.3-1-.2-1.7-.7-.5-.9-1.2-1.4-.8-.5-1.5-1-.5-.9-1.2-1.4c-.5-.4-1.1-.5-1.6-.9s-.9-.8-1.4-1.1c-.5-.4-1.3-.4-1.7-.8s-.6-1.1-1.1-1.5c-.4-.4-.8-.9-1.2-1.3s-1.1-.6-1.5-1.1-.6-1.1-1-1.5c-.4-.5-.8-.9-1.2-1.4s-.5-1.1-.9-1.6c-.3-.5-.6-1-.9-1.5s-.6-1-.9-1.5-.5-1.1-.8-1.6-1-.8-1.3-1.4c-.3-.5-.2-1.3-.4-1.8-.3-.5-.2-1.2-.5-1.8-.2-.6-.8-1-1-1.5-.2-.6-.2-1.2-.4-1.8s-.8-1-1-1.6-.2-1.2-.3-1.8c-.2-.6-.6-1.1-.7-1.7s-.1-1.2-.2-1.8.1-1.2 0-1.8-.2-1.2-.2-1.8c-.1-.6-.4-1.2-.4-1.8s-.3-1.2-.4-1.8c0-.6-.4-1.2-.4-1.8s.8-1.2.8-1.8.1-1.2.1-1.8-.7-1.3-.6-1.9.9-1.1 1-1.7-.4-1.3-.3-1.9.3-1.2.4-1.8.2-1.2.3-1.8.8-1 1-1.6.3-1.2.5-1.7c.2-.6.2-.6.4-1.3.2-.6-.3-1.4-.2-2 .2-.6.6-1.1.7-1.7s.8-1.1.9-1.7.1-1.2.2-1.8.4-1.2.4-1.8c.1-.6-.3-1.3-.3-1.9.1-.6.3-1.2.3-1.8s.3-1.2.3-1.8.3-1.2.3-1.8-.4-1.2-.4-1.8-.7-1.2-.7-1.8c-.1-.6.8-1.3.7-1.9s-.8-1.1-.9-1.7-.2-1.2-.3-1.8.1-1.3 0-1.9-.7-1.1-.9-1.7-.1-1.2-.2-1.8c-.2-.6-.8-1-1-1.6s-.3-1.2-.5-1.7c-.2-.6-.5-1.1-.7-1.7s-.1-1.3-.3-1.8c-.3-.5-.9-.9-1.2-1.4s-.2-1.2-.5-1.8c-.3-.5-.5-1.1-.8-1.7-.3-.5-1-.8-1.3-1.3s-.2-1.3-.5-1.8c-.4-.5-1.1-.7-1.5-1.2s-.6-1.1-1-1.6-.5-1.1-.9-1.6-.8-.9-1.2-1.4-.8-.9-1.2-1.4c-.3-.5-1-.8-1.3-1.3s-.6-1.1-.9-1.6-.2-1.3-.5-1.8-1-.9-1.2-1.4c-.3-.6.1-1.4-.1-2s-.5-1.1-.7-1.7-.7-1-.9-1.6-.8-1-1-1.6-.4-1.2-.6-1.7c-.2-.6 0-1.3-.1-1.9s.1-1.3 0-1.9-.5-1.2-.6-1.8-.7-1.2-.7-1.8c-.1-.6.3-1.3.3-1.9s.1-1.2.1-1.8-.2-1.2-.2-1.8-.1-1.2 0-1.8c0-.6-.3-1.3-.3-1.9s.4-1.2.4-1.8c.1-.6.7-1.1.8-1.8.1-.6-.4-1.3-.3-1.9s.4-1.2.5-1.8.6-1.1.8-1.7c.1-.6-.2-1.3-.1-1.9.2-.6.5-1.1.7-1.7s.7-1 .9-1.6c.3-.8.5-.8.8-1.6s-.5-1.1-.2-2c.3-.8.4-.8.7-1.6s.9-.6 1.2-1.5c.3-.8 0-.9.3-1.8.3-.8.2-.9.5-1.7s.6-.7.9-1.6c.3-.8.4-.8.7-1.7.3-.8-.3-1.1 0-1.9s.6-.7.9-1.6c.3-.8-.1-1 .3-1.8.3-.8 1.1-.5 1.5-1.4.3-.8.1-.9.4-1.8.3-.8.1-.9.4-1.8.3-.8.2-.9.5-1.7s.7-.7 1-1.5-.2-1 .1-1.9c.3-.8.8-.7 1.1-1.5s0-.9.4-1.8c.3-.8.6-.7.9-1.6.3-.8-.3-1.1 0-1.9s.9-.6 1.3-1.4c.3-.8.3-.8.6-1.7.3-.8.1-.9.4-1.8.3-.8.5-.8.8-1.6s.1-.9.4-1.7.7-.7 1-1.5.2-.9.5-1.7-.1-1 .2-1.8.1-.9.4-1.8c.3-.8.2-.9.5-1.7s.4-.8.7-1.6.4-.8.8-1.6c.3-.8.1-.9.4-1.8.3-.8.3-.8.6-1.7.3-.8.5-.8.8-1.6s.1-.9.4-1.8c.3-.8.9-.6 1.3-1.4.3-.8-.3-1.1 0-1.9s.2-1 1.1-1.1.7.1 1.3.8c.5.7.1 1 .7 1.7.5.7.5.7 1.1 1.4.5.7.9.4 1.4 1.1s.1 1.1.6 1.8.7.6 1.2 1.3.5.7 1.1 1.4c.5.7.6.6 1.2 1.3.5.7.4.8 1 1.5.5.7.9.4 1.4 1.1s.5.7 1.1 1.4c.5.7.7.6 1.2 1.3s.6.6 1.2 1.3c.5.7 0 1.1.6 1.8.5.7.4.8 1 1.5.5.7.6.7 1.1 1.4s1.2.2 1.7.9-.1 1.2.5 1.9c.5.7 1 .3 1.6 1 .5.7.5.8 1 1.5s.6.6 1.2 1.3c.5.7-.1 1.2.5 1.9.5.7 1.3.1 1.8.8s.6.7 1.1 1.4.5.8 1 1.5.1 1.1.6 1.8.9.4 1.4 1.1.6.7 1.1 1.4.5.8 1 1.5.4.8.9 1.6c.5.7.4.8.9 1.5s1 .3 1.6 1c.5.7 0 1.1.6 1.8.5.7 1 .4 1.5 1.1s.1 1 .7 1.7c.5.7 1.1.3 1.6 1s.1 1 .7 1.7.9.4 1.5 1.1.5.8 1 1.5.1 1.1.6 1.8c.4.5 1.1.7 1.4 1.2.4.5.5 1.2.8 1.7s.7 1 1 1.5.6 1 .9 1.6c.3.5.4 1.2.6 1.7.3.5 1.3.7 1.5 1.3.3.6-.2 1.4 0 2s.5 1.1.7 1.7 1 .9 1.2 1.5.2 1.2.4 1.8.3 1.2.5 1.8.3 1.2.4 1.8.2 1.2.4 1.8c.1.6.6 1.1.7 1.7s-.6 1.3-.5 1.9.5 1.2.5 1.8.2 1.2.3 1.8c0 .6-.3 1.2-.2 1.8 0 .6.7 1.2.6 1.8 0 .6-.6 1.2-.6 1.8s.2 1.2.1 1.8-.4 1.2-.5 1.8-.5 1.1-.6 1.7.4 1.3.3 1.9-.4 1.2-.5 1.8-.3 1.2-.5 1.8-.1 1.3-.3 1.8c-.2.6-.7 1.1-.9 1.6-.2.6-.3 1.2-.5 1.8s-.7 1-.9 1.6-.6 1.1-.8 1.6c-.2.6-.5 1.1-.7 1.7s.5 1.4.4 2-1.1 1-1.2 1.6.5 1.3.4 1.9-.3 1.2-.3 1.8c-.1.6-.3 1.2-.3 1.8-.1.6-.5 1.2-.5 1.8s.4 1.2.4 1.8-.5 1.2-.5 1.8.2 1.2.3 1.8v1.8c0 .6.1 1.2.2 1.8s-.3 1.3-.2 1.9.3 1.2.4 1.8.4 1.2.6 1.7c.1.6.1 1.2.3 1.8s.7 1.1.9 1.6c.2.6.1 1.2.3 1.8s.1 1.3.3 1.8c.2.6 1.3.8 1.5 1.4s.3 1.2.6 1.7-.1 1.4.1 2c.3.5 1.3.7 1.6 1.2s.3 1.2.6 1.7.6 1.1.9 1.6.5 1.2.8 1.7c.8 1.5 1.1 1.3 1.5 1.8z" fill="#8aa579"/><g clip-path="url(#b)" fill="#15433d"><path d="m180.8 94c.5 1.3 2 1.1 2.9 1.7 1 .6 1.9 1.4 2.8 2.1.3.3.7.5 1 .7 1.7 1.1 1.9.9 3.6 2s1.8 1 3.5 2.1 1.5 1.4 3.3 2.5c1.7 1.1 2 .6 3.7 1.7s1.4 1.6 3.1 2.7 1.8 1 3.5 2.1l3.4 2.2c1.7 1.1 2 .7 3.7 1.8s1.4 1.5 3.2 2.6l3.4 2.2c.3.2.5.3.9.5.5.3.8.5 1.2.7.7.4 1.4.7 2.3 1.3.1-.2.5-.9 1-1.7s.9-1.5 1.2-1.9c.1-.3.3-.5.4-.8.2-.5.4-.9 1-1.8 1.1-1.7 1.6-1.4 2.7-3.1s1-1.8 2.1-3.5.7-2 1.7-3.7c1.1-1.7 1.5-1.5 2.6-3.2s1.1-1.7 2.2-3.4 1.1-1.7 2.2-3.4 1.1-1.7 2.2-3.4.8-1.9 1.9-3.6 1.4-1.5 2.4-3.1c.3-1 .8-1.8 1.3-2.6l.4-.6c.1-.2.4-.2.2-.6-.3-.5-2-1.6-2.5-1.6-.4 0-.3.3-.4.4-.5.7-1.2 1.2-1.9 1.8-.1.3-.2.6-.5.9-1.1 1.7-.8 1.9-1.9 3.7-1.1 1.7-1.4 1.5-2.5 3.2s-.6 2-1.7 3.8c-1.1 1.7-1.6 1.4-2.7 3.1s-.9 1.8-2 3.6c-1.1 1.7-1 1.8-2.1 3.5s-.9 1.8-2 3.5-1.2 1.7-2.3 3.4-1.5 1.5-2.6 3.2c-.5.9-.8 1.3-1 1.8-.1.2-.2.4-.4.7-.1.1 0 .1-.1.2 0 .1-.1.1-.1.1-.1 0-.1 0-.2 0h-.1c-.2-.1-.5-.3-.8-.5-1.7-1.1-1.8-.9-3.6-2-1.7-1.1-1.5-1.5-3.2-2.6s-2-.6-3.7-1.7-1.6-1.3-3.3-2.4-1.9-.9-3.6-2-1.6-1.3-3.3-2.4-1.6-1.2-3.3-2.3-1.7-1.2-3.4-2.3-1.7-1.1-3.5-2.2c-1.7-1.1-1.9-.8-3.6-1.9l-3.3-2.1c-.6-.4-1.3-.5-1.9-.8-.7-.3-.8-1.5-1.8-1.3-.4.1-1.9 2.4-1.7 2.7z"/><path d="m182.2 152.1c.8 1.5 2.5 1.6 3.7 2.5 1.3.9 2.4 1.9 3.6 2.9.4.3.9.7 1.3 1 2.2 1.5 2.4 1.3 4.6 2.9 2.2 1.5 2.3 1.4 4.5 3 2.2 1.5 2 1.8 4.2 3.4 2.2 1.5 2.5 1.1 4.7 2.6s1.9 2.1 4.1 3.6 2.3 1.4 4.5 3c2.2 1.5 2.2 1.5 4.4 3.1 2.2 1.5 2.5 1.2 4.7 2.7s1.9 2 4.1 3.5c2.6 1.8 3.2 2.3 5.2 3.7.2-.3.7-1.1 1.4-2.2.3-.6.7-1.1.9-1.5.1-.1.2-.3.2-.4.1-.1.1-.2.2-.3.2-.4.3-.7.5-1 .3-.6.6-1.2 1.3-2.4 1.4-2.3 1.1-2.5 2.5-4.8s1.9-2 3.3-4.3 1.3-2.3 2.7-4.6 1-2.6 2.4-4.9 1.8-2.1 3.2-4.4l2.8-4.6c1.4-2.3 1.4-2.3 2.8-4.6s1.4-2.3 2.9-4.6c1.4-2.3 1.1-2.5 2.5-4.8 1.4-2.2 1.7-2.1 3-4.2.5-1.2 1.1-2.3 1.8-3.5l.5-.8c.1-.2.5-.4.3-.8-.3-.5-2-1.6-2.6-1.6-.4 0-.4.4-.5.6-.6.9-1.5 1.7-2.3 2.5-.1.3-.3.7-.6 1.2-1.4 2.3-1.1 2.5-2.5 4.8s-1.7 2.1-3.1 4.4-.9 2.6-2.3 4.9-1.9 2-3.3 4.3-1.2 2.4-2.6 4.7-1.3 2.4-2.7 4.7-1.2 2.4-2.6 4.7-1.5 2.3-2.9 4.6-1.8 2.1-3.2 4.4-1.3 2.4-2.7 4.7c-.7 1.2-1 1.7-1.3 2.3-.2.3-.3.6-.5 1-.1.2-.2.4-.4.7-.1.1-.1.2-.1.3-.1-.1-.2-.1-.4-.1 0 0-.1 0-.1-.1-.1-.1-.3-.2-.4-.3-.3-.2-.6-.4-1.1-.7-2.2-1.5-1.9-1.9-4.2-3.5-2.2-1.5-2.5-1.1-4.7-2.6s-2.1-1.7-4.3-3.3c-2.2-1.5-2.4-1.3-4.6-2.9-2.2-1.5-2.1-1.7-4.3-3.3-2.2-1.5-2.1-1.7-4.3-3.2s-2.1-1.6-4.4-3.2c-2.2-1.5-2.2-1.5-4.4-3.1-2.2-1.5-2.4-1.3-4.6-2.8l-4.2-3c-.7-.5-1.6-.8-2.4-1.2-.9-.5-1.2-1.8-2.3-1.8-.5 0-2.1 2.3-1.9 2.7z"/><path d="m196.2 216.8c.6 1.3 2.2 1.3 3.3 2s2.1 1.6 3.2 2.4c.4.3.8.6 1.2.8 1.9 1.2 2.1 1 4 2.3 1.9 1.2 2 1.1 3.9 2.3s1.7 1.5 3.7 2.8c1.9 1.2 2.2.8 4.2 2 1.9 1.2 1.6 1.8 3.5 3s2 1.1 3.9 2.3 1.9 1.2 3.9 2.5c1.9 1.2 2.2.9 4.1 2.1s1.6 1.7 3.6 2.9c2.3 1.5 2.9 1.8 4.7 3 .1-.2.6-.8 1.3-1.7s1.3-1.7 1.4-1.9c.2-.3.3-.6.5-.8.3-.5.6-1 1.3-1.9 1.4-1.8 1.1-2 2.5-3.9 1.4-1.8 1.8-1.5 3.2-3.4 1.4-1.8 1.3-1.9 2.7-3.7s.9-2.2 2.3-4 1.7-1.6 3.1-3.4 1.4-1.8 2.8-3.7c1.4-1.8 1.4-1.8 2.8-3.7 1.4-1.8 1.4-1.8 2.8-3.7 1.4-1.8 1-2.1 2.4-3.9 1.3-1.8 1.6-1.6 2.9-3.3.5-1 1.1-1.9 1.7-2.8l.5-.7c.1-.2.5-.2.3-.6-.2-.5-1.9-1.7-2.4-1.8-.4 0-.3.3-.5.4-.6.8-1.5 1.3-2.2 1.9-.1.3-.3.6-.6 1-1.4 1.8-1 2.1-2.4 3.9s-1.7 1.6-3 3.5c-1.4 1.8-.9 2.2-2.3 4s-1.8 1.5-3.2 3.3-1.2 2-2.6 3.8-1.3 1.9-2.6 3.8c-1.4 1.8-1.2 2-2.6 3.8s-1.4 1.8-2.8 3.6-1.7 1.6-3.1 3.4-1.2 1.9-2.6 3.8c-.7.9-1 1.4-1.3 1.9-.2.2-.3.5-.5.8-.1.1-.2.3-.3.5-.1.1-.1.2-.1.2-.1 0-.2 0-.3-.1h-.1c-.1-.1-.2-.1-.4-.2-.3-.2-.6-.3-.9-.6-1.9-1.2-1.7-1.6-3.6-2.9-1.9-1.2-2.2-.8-4.2-2-1.9-1.2-1.8-1.4-3.8-2.7-1.9-1.2-2.1-1-4-2.3-1.9-1.2-1.8-1.4-3.8-2.6-1.9-1.2-1.8-1.4-3.8-2.6-1.9-1.2-1.9-1.3-3.8-2.6-1.9-1.2-1.9-1.2-3.9-2.4-1.9-1.2-2.1-1-4-2.2l-3.7-2.4c-.6-.4-1.4-.6-2.1-.9-.8-.4-1-1.6-2-1.5-.8.2-2.3 2.6-2.2 2.9z"/></g><g clip-path="url(#b)"><path d="m249 350c.8-3.6 0-7.4 0-11.1.1-3.8.3-7.6.4-11.4 0-1.4.1-2.7.1-4.1-.1-6.6-.4-6.6-.6-13.2s-.3-6.6-.5-13.2c-.3-6.6 0-6.6-.3-13.2-.4-6.6-.9-6.6-1.3-13.2-.2-3.3-.2-5-.1-6.6 0-1.7 0-3.3-.2-6.6-.6-6.6-.7-6.6-1.2-13.2s-.6-6.6-1.3-13.2-1.1-6.5-1.8-13.1-.2-6.6-1.1-13.2c-.8-6.6-.8-6.6-1.7-13.1-.8-6.6-1.1-6.5-2.1-13.1-1-6.5-1.3-6.5-2.3-13-.5-3.3-.6-4.9-.7-6.6s-.3-3.3-.8-6.6c-1.1-6.5-1.1-6.5-2.2-13.1-1.1-6.5-1.7-6.4-2.9-12.9s-.7-6.6-2-13.1-1.3-6.5-2.5-13c-1.3-6.5-1.3-6.5-2.6-13-1.4-6.5-1.3-6.5-2.7-13s-1.8-6.4-3.2-12.8c-1.4-6.2-1.1-6.5-2.5-12.3-1-3-1.7-6.1-2.5-9.2l-.6-2.3c-.2-.6-.1-1.4-.6-1.9-.7-.6-2.7-.1-2.9.8-.2.6.2 1.3.3 1.8.7 2.6.9 5.4 1.3 8.1.3.9.6 1.9.9 3.1 1.5 6.4 1.9 6.3 3.4 12.8 1.5 6.4 1.1 6.5 2.5 13 1.4 6.4 2 6.3 3.3 12.8s.8 6.6 2 13.1c1.3 6.5 1.5 6.4 2.7 12.9 1.3 6.5 1.3 6.5 2.5 13s1.4 6.5 2.5 13c1 6.5 1 6.5 2.1 13 .5 3.3.7 4.9.8 6.6.2 1.6.3 3.3.8 6.6 1 6.5 1.1 6.5 2.1 13s1.2 6.5 2 13.1c.8 6.5 1.1 6.5 1.9 13.1s.4 6.6 1.1 13.2 1.2 6.5 2 13.1c.7 6.6.6 6.6 1.1 13.2.6 6.6.8 6.6 1.3 13.1.3 3.3.4 4.9.4 6.6.1 1.6.2 3.3.4 6.6.4 6.6.2 6.6.6 13.2.3 6.6.3 6.6.6 13.2.2 6.6.2 6.6.4 13.2s.5 6.6.6 13.2l-.2 12.6c0 2.2.2 4.3.3 6.5.1 2.4-.8 4.8-.2 7.2.3.4 3 .6 3.2-.4z" fill="#15433d"/></g><path d="m198.5 281.3c.6-.7 1.2.4 2.1.4s.9.3 1.8.3.9-.7 1.8-.7h1.8c.9 0 .9.1 1.8.1s.9-.3 1.8-.3.9.9 1.8.9.9-.7 1.8-.7.9.5 1.8.5.9.1 1.8.1.9-.6 1.8-.6.9.7 1.8.7.9-.8 1.8-.8.9.8 1.8.8.9.1 1.8.1.9-.5 1.8-.5.9.3 1.8.3.9.1 1.8.1.9-.3 1.8-.3.9-.2 1.8-.2.9.3 1.8.3.9-.5 1.8-.5.9.5 1.8.5h1.8c.9 0 .9-.5 1.8-.5s.9-.1 1.8-.1h1.8c.9 0 .9.3 1.8.3h1.8c.9 0 .9-.2 1.8-.2h1.8c.9 0 .9.6 1.8.6s.9.3 1.8.3.9-.7 1.8-.7.9.3 1.8.3.9-.2 1.8-.2.9-.2 1.8-.2.9.2 1.8.2.9.3 1.8.3.9.2 1.8.2.9-.4 1.8-.4.9-.1 1.8-.1.9.2 1.8.2.9.2 1.8.2.9-.2 1.8-.2.9-.2 1.8-.2.9-.4 1.8-.4.9.6 1.8.6h1.8c.9 0 .9-.8 1.8-.8s.9.7 1.8.7.9.2 1.8.2.9-.1 1.8-.1.9.1 1.8.1.9.1 1.8.1.9-.6 1.8-.6.9-.1 1.8-.1.9.5 1.8.5.9.1 1.8.1.9.1 1.8.1.9-.8 1.8-.8.9.1 1.8.1h1.8c.9 0 .9.9 1.8.9s.9-.3 1.8-.3.9.1 1.8.1.9-.6 1.8-.6.9.4 1.8.4.9.3 1.8.3.9-.1 1.8-.1.9-.4 1.8-.4.9-.1 1.8-.1.9.4 1.8.4.9.2 1.8.2.9-.5 1.8-.5.9.5 1.8.5.9-.5 1.8-.5h1.8c.9 0 .9.3 1.8.3s1.5-1 2.1-.3c.6.6-.4 1.2-.5 2.1 0 .9-.1.9-.2 1.8 0 .9-.1.9-.2 1.8 0 .9-.2.9-.2 1.8s.4.9.4 1.8-.3.9-.4 1.8c0 .9-.1.9-.2 1.8 0 .9.2.9.2 1.8s-.4.9-.4 1.8.3.9.2 1.8c0 .9-.2.9-.3 1.8 0 .9-.3.9-.3 1.8s.7.9.6 1.8c0 .9-.5.9-.5 1.8s-.3.9-.4 1.8c0 .9.8.9.7 1.8 0 .9-.7.9-.8 1.8 0 .9.6.9.6 1.8s-.4.9-.4 1.8-.4.9-.5 1.8c0 .9.3.9.3 1.8s-.1.9-.2 1.8c0 .9.3.9.3 1.8s-.1.9-.1 1.8-.3.9-.3 1.8 0 .9-.1 1.8c0 .9-.6.9-.6 1.8s.2.9.1 1.8c0 .9.5.9.4 1.8 0 .9-.5.9-.5 1.8s0 .9-.1 1.8c0 .9-.3.9-.3 1.8s.5.9.4 1.8c0 .9.1.9 0 1.8 0 .9-.8.9-.9 1.8 0 .9.6.9.5 1.8 0 .9-.3.9-.4 1.8 0 .9-.1.9-.1 1.8s.2.9.1 1.8c0 .9.1.9.1 1.8v1.8c0 .9-.1.9-.1 1.8s0 .9-.1 1.8c0 .9-.1.9-.1 1.8s-.2.9-.3 1.8c0 .9-.5.9-.5 1.8s-.2.9-.2 1.8.5.9.4 1.8v1.8c0 .9.1.9.1 1.8s-.4.9-.4 1.8-.7.9-.8 1.8c0 .9.4.9.3 1.8 0 .9-.2.9-.2 1.8s.1.9 0 1.8c0 .9.2.9.1 1.8 0 .9-.3.9-.3 1.8s-.4.9-.4 1.8.6.9.5 1.8c0 .9-.5.9-.5 1.8s-.2.9-.3 1.8c0 .9.7.9.7 1.8s-.5.9-.6 1.8c0 .9.3.9.3 1.8s-.4.9-.5 1.8c0 .9-.1.9-.2 1.8 0 .9.5.9.4 1.8 0 .9.1.9 0 1.8 0 .9-.6.9-.6 1.8s-.3.9-.3 1.8.1.9 0 1.8c0 .9.2.9.2 1.8s-.6.9-.6 1.8.7.9.7 1.8-.7.9-.8 1.8c0 .9.1.9 0 1.8 0 .9.7.9.6 1.8 0 .9-.8.9-.9 1.8 0 .9.4.9.3 1.8 0 .9.2.9.1 1.8 0 .9-.8.9-.9 1.7 0 .9.4.9.3 1.8 0 .9-.3.9-.3 1.8s-.2.9-.2 1.8.5.9.4 1.8c0 .9-.6.9-.6 1.8s.5.9.4 1.8c0 .9-.2.9-.2 1.8s-.1.9-.2 1.8c0 .9.4.9.3 1.8 0 .9-.5.9-.6 1.8v1.8 1.8c0 .9.3.9.3 1.8s-.1.9-.1 1.8v1.8c0 .9-.4.9-.5 1.8 0 .9-.2.9-.3 1.8 0 .9.6.9.6 1.8s-.7.9-.7 1.8.4.9.3 1.8c0 .9 0 .9-.1 1.8 0 .9.1.9 0 1.8 0 .9-.7.9-.7 1.8s.3.9.3 1.8-.2.9-.2 1.8c0 .6-.3 1.2-.4 1.7-.1.6.4 1.3.3 1.8-.1.6-.9 1-1 1.6s.3 1.3.1 1.9-.5 1.1-.7 1.6c-.2.6-.8.9-1.1 1.5-.3.5-.6 1-.9 1.5s-.4 1.1-.7 1.6-.4 1.2-.8 1.6c-.4.5-.7 1-1.1 1.4s-1 .7-1.5 1.1c-.4.4-.8.9-1.2 1.3s-1 .7-1.4 1c-.5.4-1.2.4-1.7.7s-1 .6-1.5.9-1.1.5-1.6.7c-.5.3-.7 1.4-1.2 1.6s-1.4-.4-2-.2-1 .7-1.6.9-1.2.2-1.8.3-1.1.8-1.7.8c-.6.1-1.2-.2-1.8-.2s-1.2 0-1.8 0c-.9 0-.9.1-1.8.1s-.9-.2-1.8-.2-.9.3-1.8.3-.9-.1-1.8-.1-.9-.4-1.8-.4-.9.2-1.8.2-.9.2-1.8.2-.9-.4-1.8-.4-.9.3-1.8.3-.9-.1-1.8-.1-.9-.3-1.8-.3-.9 0-1.8 0-.9.9-1.8.9-.9 0-1.8 0-.9-.5-1.8-.5-.9-.3-1.8-.3-.9.5-1.8.5-.9.2-1.8.2-.9-.2-1.8-.2-.9.3-1.8.3-.9 0-1.8 0-.9-.2-1.8-.2-.9.1-1.8.1-.9 0-1.8 0-.9-.4-1.8-.4-.9 0-1.8 0-.9-.1-1.8-.1-.9.3-1.8.3-.9-.2-1.8-.2-.9-.3-1.8-.3-.9.7-1.8.7-.9.1-1.8.1-.9 0-1.8 0-.9-.5-1.8-.5-.9.5-1.8.5-.9-.6-1.8-.6-.9.1-1.8.1-.9-.2-1.8-.2-.9.3-1.8.3c-.6 0-1.2.5-1.8.5s-1.2 0-1.8-.1-1.1-.5-1.7-.6-1.1-.5-1.7-.7-1.2 0-1.8-.2-1-.6-1.6-.8c-.5-.2-1-.6-1.6-.8-.5-.3-1.2-.2-1.7-.5s-1.2-.4-1.7-.7-.8-.9-1.3-1.3-.7-1-1.2-1.4c-.4-.4-1.3-.4-1.7-.8s-.2-1.4-.6-1.9c-.4-.4-1-.7-1.4-1.2s-1-.8-1.3-1.3-.6-1-.9-1.6c-.3-.5-.1-1.3-.3-1.8-.3-.5-.3-1.1-.6-1.7-.2-.5-.8-.9-1-1.5s0-1.2-.1-1.8-.8-1-.9-1.6.3-1.2.3-1.8c-.1-.6-.5-1.1-.5-1.7-.1-.9.2-.9.2-1.8-.1-.9-.2-.9-.3-1.8s-.5-.9-.6-1.8.3-.9.2-1.8.4-.9.3-1.8 0-.9 0-1.8c-.1-.9-.3-.9-.3-1.8-.1-.9-.5-.9-.5-1.8-.1-.9-.2-.9-.3-1.8s.3-.9.2-1.8.1-.9 0-1.8-.2-.9-.3-1.8.3-.9.2-1.8-.5-.9-.5-1.8c-.1-.9-.3-.9-.4-1.8s.7-.9.7-1.8c-.1-.9-.7-.9-.7-1.8-.1-.9 0-.9-.1-1.8s.4-.9.4-1.8c-.1-.9-.4-.9-.4-1.8-.1-.9-.2-.9-.2-1.8-.1-.9.5-.9.4-1.8s-.1-.9-.1-1.8c-.1-.9.1-.9 0-1.8s-.5-.9-.6-1.8-.1-.9-.2-1.8.1-.9 0-1.8-.1-.9-.2-1.8-.3-.9-.4-1.8.4-.9.3-1.8-.2-.9-.2-1.8c-.1-.9.3-.9.3-1.8-.1-.9-.1-.9-.2-1.8s-.7-.9-.8-1.8.3-.9.3-1.8c-.1-.9.4-.9.3-1.8s-.2-.9-.2-1.8c-.1-.9.1-.9.1-1.8-.1-.9-.3-.9-.4-1.8s-.3-.9-.4-1.8-.2-.9-.2-1.8c-.1-.9-.2-.9-.2-1.8-.1-.9.5-.9.4-1.8s-.3-.9-.3-1.8c-.1-.9-.5-.9-.6-1.8s.2-.9.2-1.8c-.1-.9.1-.9 0-1.8s.1-.9 0-1.8.3-.9.3-1.8c-.1-.9-.5-.9-.5-1.8-.1-.9-.3-.9-.4-1.8s-.2-.9-.2-1.8c-.1-.9.2-.9.1-1.8s.3-.9.2-1.8-.1-.9-.1-1.8c-.1-.9-.2-.9-.3-1.8s0-.9 0-1.8c-.1-.9-.2-.9-.3-1.8s.1-.9 0-1.8-.3-.9-.3-1.8c-.1-.9.2-.9.2-1.8-.1-.9.1-.9 0-1.8s.1-.9.1-1.8c-.1-.9-.3-.9-.3-1.8-.1-.9 0-.9-.1-1.8s-.3-.9-.4-1.8-.3-.9-.3-1.8c-.1-.9.1-.9.1-1.8-.1-.9-.4-.9-.5-1.8s.1-.9.1-1.8c-.1-.9.3-.9.3-1.8-.1-.9.2-.9.1-1.8s-.5-.9-.5-1.8c-.1-.9-.3-.9-.3-1.8-.1-.9.6-.9.6-1.8-.1-.9-.7-.9-.8-1.8s-.1-.9-.1-1.8c-.1-.9-.1-.9-.1-1.8-.1-.9-.2-.9-.3-1.8s.8-.9.8-1.8c-.1-.9-.6-.9-.6-1.8-.1-.9.4-.9.3-1.8s-.2-.9-.3-1.8-.4-.9-.5-1.8.2-.9.1-1.8.3-.9.2-1.8-.1-.9-.1-1.8c-.1-.9-.4-.9-.5-1.8s.4-.9.4-1.8c-.1-.9-.3-.9-.3-1.8-.1-.9.2-.9.2-1.8-.1-.9-.6-.9-.7-1.8s.2-.9.2-1.8c-.1-.9-.5-.9-.6-1.8s.4-.9.3-1.8-.1-.9-.2-1.8.3-.9.3-1.8c-.1-.9-.3-.9-.4-1.8s0-.9-.1-1.8-.6-.9-.6-1.8c-.1-.9.3-.9.3-1.8-.1-.9 0-.9-.1-1.8s-.5-.9-.5-1.8c-.1-.9.2-.9.1-1.8s.1-.9-.2-1.7c1.4-1.2 1-1.6 1.6-2.3z" fill="#ffaf9b"/><g clip-path="url(#c)"><path d="m253.4 301.2c-.2-.6-.6-1.1-.8-1.7s.3-1.5 0-2c-.2-.6-.7-1-1-1.6s-.3-1.2-.6-1.8-1.2-.8-1.5-1.4 0-1.4-.3-1.9c-.3-.6-.2-1.3-.5-1.8s-1-.9-1.3-1.5-.3-1.2-.5-1.8c-.3-.6-.7-1-1-1.6s-.4-1.2-.7-1.7c-.2-.6-.6-1.1-.9-1.7-.2-.6-.5-1.1-.7-1.7s-.3-1.2-.5-1.8-.7-1.1-.9-1.7-.7-1.1-.9-1.7.3-1.4.1-2-.1-1.2-.3-1.9c-.2-.6-.6-1.1-.7-1.7s0-1.3-.1-1.9-.4-1.2-.5-1.8-.2-1.2-.3-1.9c0-.6.4-1.1.4-1.7s.2-1.1.3-1.6c.1-.6.1-1.1.2-1.6.1-.6-.2-1.2-.2-1.7.1-.6.5-1.1.6-1.6.1-.6.2-1.1.2-1.7s-.3-1.1-.3-1.7-.5-1.2-.6-1.7c-.1-.6-.3-1.1-.5-1.7s-.4-1.1-.6-1.6c-.2-.6-.1-1.3-.3-1.8-.3-.5-.4-1.2-.7-1.7s-.5-1.1-.9-1.6-.9-.8-1.3-1.2-.9-.8-1.4-1.2-1.3-.3-1.8-.6-.8-.9-1.3-1.2-1-.6-1.6-.8c-.5-.3-1-.6-1.6-.8s-1-.7-1.6-.8c-.6-.2-1.1-.4-1.7-.6-.6-.1-1.3.5-1.9.4s-1.2-.3-1.7-.3c-.6 0-1.2-.1-1.8-.1s-1.2-.5-1.8-.4c-.6 0-1.2.4-1.8.5s-1.1.5-1.7.6-1.2 0-1.8.2-1 .6-1.6.8-1.4-.1-1.9.2-.9.8-1.4 1.2c-.5.3-1.2.4-1.7.8s-.8 1-1.2 1.4-.6 1-1 1.5-.6 1-.9 1.6c-.3.5-.7 1-.9 1.5s-.8 1-.9 1.6c-.2.6.1 1.3 0 1.9s.1 1.2 0 1.8c0 .6-.3 1.2-.3 1.8s-.3 1.2-.3 1.8c-.2.6.1 1.2 0 1.8s-.6 1.1-.7 1.7-.2 1.2-.3 1.8-.3 1.2-.4 1.8-.3 1.2-.4 1.8.3 1.3.2 1.9-.8 1.1-.9 1.7.1 1.2 0 1.8c0 .6.5 1.2.4 1.9v1.8c0 .6-.6 1.2-.6 1.8s.7 1.2.8 1.8 0 1.2.1 1.8.4 1.1.5 1.7-.6 1.4-.4 2 .7 1.1.9 1.7.8 1 1 1.6.6 1 .9 1.6c.3.5.4 1.2.7 1.7s.5 1.1.9 1.6.4 1.2.8 1.7c.4.4 1.1.5 1.5.9s1.1.4 1.5.8.8.7 1.3 1c.4.3.4 1.3.9 1.6s1 .5 1.5.8.9.7 1.4.9c.6.3 1.6-.2 2.3 0s1.2.8 1.9.9c-.4 0-.7 0-1.1 0 0 .4-.5.6-1 1.3-.3.4-.4 1.1-.9 1.5-.4.4-.8.8-1.3 1.2-.4.4-1 .6-1.4 1s-.5 1.1-1 1.5c-.4.4-1.1.6-1.5.9-.5.4-.9.8-1.3 1.1-.5.4-1.2.5-1.6.8-.6.5-.9 1-1.2 1.3-.4.4-.9.7-1.4 1.1-.4.4-.9.8-1.3 1.2s-.8.9-1.2 1.3c-.4.5-.3 1.2-.6 1.7-.3.6-.9.9-1.1 1.5s-.2 1.2-.3 1.8-.5 1.3-.4 1.8c.1.6.4 1.2.6 1.8s.6 1.1.9 1.6.3 1.2.7 1.7c.3.5.7 1 1.1 1.4s1.1.6 1.6 1c.4.4.7 1 1.1 1.4s.9.8 1.4 1.2 1.2.4 1.7.7 1.1.5 1.6.8.6 1.3 1.1 1.6 1.1.5 1.6.8.9.9 1.4 1.2 1.5-.2 2 .1c.6.3.9.8 1.4 1.1s.9.9 1.4 1.2 1 .6 1.6.9c.5.3 1.2.4 1.7.7s1.2.4 1.7.7 1 .8 1.5 1.1 1.1.5 1.7.8c.6.2 1.4-.1 2 .1s1.1.5 1.7.7.9 1 1.5 1.2 1.2.3 1.8.5 1.2.4 1.8.6 1.3-.1 1.9.1c.6.1 1.1.6 1.7.8.6.1 1.3-.2 1.9-.2.6.1 1.2.1 1.8.1s1.2.3 1.8.3 1.3.4 1.9.3 1.1-.8 1.7-1 1.2-.2 1.8-.5.9-.9 1.4-1.2 1.1-.5 1.5-1c.4-.4.8-.9 1.2-1.4s1.1-.7 1.4-1.2c.4-.5.6-1.1.9-1.6s.3-1.2.6-1.7.7-1 .9-1.5c.2-.6.3-1.1.5-1.7s.4-1.1.5-1.7 0-1.2.1-1.8.6-1.1.6-1.7 0-1.2 0-1.8 0-1.2 0-1.8-.5-1.2-.5-1.8.3-1.2.2-1.8-.2-1.2-.2-1.8c-.1-.6 0-1.2-.1-1.8s0-1.2-.1-1.8-.7-1.1-.9-1.7c-.1-.6 0-1.2-.1-1.8s.1-1.3-.1-1.8c-.2-.6-1.1-.9-1.3-1.5s.4-1.4.2-1.9c-.2-.6-1.2-.9-1.4-1.4-.2-.6-.2-1.2-.4-1.8zm-45.3 16.2c.1-1.1 1.2-1.7 1.8-1.3-.4.4-1.4 1-1.8 1.3z" fill="#ffdcd2"/></g><path clip-path="url(#c)" d="m209.4 316.3c-.4.4-.7.7-1 1 .1-1.1.5-1.4 1-1z" fill="#fab400"/><g clip-path="url(#c)"><path d="m379.5 375.4c-.3.5-.6 1-.9 1.5s-.6 1-.9 1.5-.9.8-1.2 1.3 0 1.4-.4 1.9-.9.8-1.3 1.2c-.4.5-.7.9-1.1 1.4-.4.4-1.2.5-1.6.9s-.3 1.4-.7 1.8-.9.8-1.3 1.2c-.5.4-1.3.2-1.8.6-.5.3-1 .6-1.5 1-.5.3-.8.9-1.3 1.2s-1 .7-1.5 1c-.5.2-1.1.5-1.6.7s-1.2.3-1.7.5c-.6.2-1.2.1-1.8.2s-1.1.6-1.6.8c-.6.1-1.2.2-1.8.3s-1.2.2-1.7.3c-.6.1-1.2-.1-1.8-.1s-1.2-.4-1.8-.4c-.7 0-1.2.9-1.8 1s-1.2.2-1.8.3c-.6.2-1.5-.3-2-.1-.6.3-.8 1.2-1.2 1.5-.5.4-1.2.6-1.6 1-.4.5-.6 1.1-.9 1.6s-.4 1.1-.7 1.7c-.2.6-.3 1.2-.5 1.8s-.5 1.1-.6 1.7-.2 1.2-.3 1.8-.2 1.2-.3 1.8-.2 1.2-.3 1.8-.1 1.2-.3 1.8c-.1.6-.8 1.1-1 1.7-.1.6-.3 1.2-.5 1.8s-.2 1.1-.4 1.7-.2 1.1-.4 1.7 0 1.2-.2 1.8c-.2.5-1 .9-1.2 1.4s.4 1.4.2 1.9-1 .9-1.2 1.4-.4 1.1-.6 1.6 0 1.2-.3 1.8c-.2.5-.8.9-1.1 1.4-.2.5-.3 1.1-.5 1.7-.2.5-.4 1.1-.7 1.6s-.6 1-.9 1.5-.9.8-1.2 1.3-.6 1-.9 1.5-.2 1.3-.6 1.8-1 .7-1.4 1.2-.5 1.2-.9 1.6-.8.9-1.2 1.3-.9.9-1.3 1.2c-.5.4-1.2.4-1.7.7s-1.2.4-1.7.7-.9.8-1.4 1.1-1 .6-1.6.9c-.5.2-1.2.1-1.8.3-.5.2-1 .8-1.5 1-.6.2-1 .7-1.6.9s-1.4-.4-1.9-.3c-.6.2-1.1.3-1.7.4s-1.2.2-1.7.3c-.6.1-1.2.2-1.7.3-.6.1-1.1.5-1.7.6s-1.2.1-1.8.1c-.6.1-1.1.6-1.7.6-.6.1-1.2.1-1.8.2s-1.2-.2-1.8-.1c-.6 0-1.2 0-1.8 0s-1.2-.1-1.8-.1-1.2.3-1.8.4c-.6 0-1.2-.2-1.8-.2s-1.1.6-1.8.6c-.6 0-1.2-.5-1.8-.5s-1.2 0-1.8 0-1.2.8-1.8.7c-.6 0-1.2-.4-1.8-.4s-1.2-.1-1.8-.1-1.3.4-1.9.3-1.2-.3-1.8-.4-1.1-.8-1.7-.9-1.2 0-1.8-.2c-.6-.1-1.2-.4-1.7-.5-.6-.2-1-.7-1.6-.9s-1.4.2-2-.1c-.5-.3-.6-1.3-1.1-1.6s-1.1-.5-1.6-.9c-.4-.4-1.1-.6-1.5-1.1s-.2-1.3-.4-1.8c-.3-.5-.5-1-.7-1.6-.1-.6-.8-1.1-.9-1.7 0-.6.3-1.2.4-1.8 0-.6-.1-1.2 0-1.8s.4-1.2.6-1.7c.2-.6.5-1.1.8-1.6s.3-1.2.6-1.7.9-.9 1.3-1.4.6-1 1-1.5 1-.7 1.4-1.2 1-.7 1.4-1.1.6-1.1 1-1.5.6-1.1 1-1.5 1-.8 1.4-1.2c.5-.4.8-1 1.2-1.4s.8-.8 1.2-1.2.9-.7 1.4-1.1c.4-.4.8-.9 1.2-1.2.4-.4 1.1-.5 1.6-.8.4-.4 1.1-.5 1.5-.9s.7-.9 1.2-1.3 1-.6 1.5-.9c.5-.4.8-.8 1.3-1.2.5-.3 1.1-.5 1.5-.8.5-.3.8-.8 1.3-1.1s1-.8 1.4-1.2c-.5-.3-1.1-.6-1.6-.9s-1.1-.5-1.6-.8-1.2-.3-1.7-.6-.8-1-1.3-1.3-1.2-.3-1.7-.5c-.5-.3-.7-1.1-1.2-1.4s-1-.5-1.5-.9c-.5-.3-1.1-.4-1.6-.7s-1.1-.5-1.5-.9c-.5-.4-.8-.8-1.3-1.2-.4-.4-1.2-.5-1.6-.9s-.4-1.2-.7-1.7c-.4-.5-.5-1.1-.8-1.6s-1-.7-1.3-1.3c-.3-.5-.4-1.1-.6-1.6s-.1-1.2-.3-1.7c-.2-.6-1-.9-1.1-1.5s.4-1.3.3-1.8c-.1-.6-.5-1.1-.6-1.7 0-.6-.1-1.2-.1-1.8s.3-1.2.3-1.7c.1-.6 0-1.2.1-1.8s.5-1.1.7-1.7c.1-.6.1-1.2.3-1.8s.6-1 .8-1.6 0-1.3.3-1.8c.2-.5.9-.9 1.2-1.4s.3-1.2.6-1.7.7-1 1-1.5.5-1.1.8-1.6 1-.8 1.3-1.2c.4-.5.6-1 1-1.5s.8-.9 1.1-1.4c.4-.5.9-.8 1.3-1.2s.4-1.2.8-1.7c.4-.4 1.1-.6 1.5-1s.4-1.2.8-1.7c.4-.4.6-1 1-1.5s1.1-.6 1.5-1.1c.3-.4.8-.7 1.3-1.2.4-.4.7-.9 1.2-1.4.4-.4 1-.7 1.4-1.1s.6-1.1 1-1.5 1.1-.5 1.6-1c.4-.4.7-1 1.1-1.5.4-.4 1.4-.2 1.9-.6.4-.4.9-.8 1.3-1.2s.5-1.3.9-1.7 1.1-.5 1.6-.9c.4-.4 1.1-.6 1.5-1s.8-.9 1.3-1.3c.4-.4.6-1.1 1.1-1.5.4-.4.7-1 1.2-1.4.4-.4.8-.9 1.3-1.3.4-.4 1-.6 1.5-1 .4-.4 1.1-.6 1.5-1s1.2-.4 1.7-.8c.4-.4.7-1 1.2-1.4s.6-1.1 1.1-1.5.9-.8 1.4-1.2.9-.8 1.3-1.2c.5-.4.9-.8 1.3-1.2.5-.4 1.2-.4 1.7-.8s.5-1.2 1-1.6 1.4-.3 1.8-.7c.5-.4 1-.7 1.4-1.1.5-.4.4-1.4.8-1.8.5-.4 1.5-.1 1.9-.5.5-.4.3-1.4.8-1.8s1.2-.4 1.7-.8 1.2-.5 1.6-.9c.5-.4.9-.8 1.4-1.2s.8-1 1.2-1.4c.5-.4 1-.7 1.5-1.1s.9-.8 1.4-1.2.5-1.2 1-1.6.9-.9 1.3-1.3c.5-.4 1.3-.4 1.7-.8.5-.4.9-.8 1.4-1.2s.9-.8 1.4-1.2 1.1-.6 1.5-1c.5-.4.3-1.5.8-1.9s.9-.8 1.3-1.2c.5-.4 1.2-.5 1.6-.9.5-.4 1-.7 1.5-1.1s1-.7 1.5-1.1.5-1.3.9-1.7c.5-.4.8-1 1.2-1.3.5-.4 1-.7 1.5-1.1s1.3-.3 1.8-.7 1-.8 1.4-1.1c.5-.4 1-.7 1.4-1.1.5-.4.4-1.4.8-1.8.5-.4 1.3-.4 1.7-.8.5-.4.8-.9 1.3-1.3s1-.7 1.4-1.1c.5-.4.5-1.2 1-1.6s1.3-.4 1.7-.8c.5-.4.6-1.1 1-1.5.5-.4 1.1-.6 1.5-1 .5-.5 1.1-.7 1.5-1.1.5-.5.4-1.4.8-1.7.1-.2.8-.5 1.7-.8.5-.2 1.1-.2 1.8-.4.5-.2 1-.6 1.6-.8.6-.1 1.2.1 1.8-.1.6-.1 1.2-.2 1.8-.4.6-.1 1.1-.5 1.7-.6s1.3.3 1.9.2 1.2-.2 1.8-.4c.6-.1 1-1 1.6-1.1l1.8-.3c.6-.1 1.3.2 1.9.1s1.2-.4 1.8-.4c.6-.1 1.2-.4 1.8-.4.6-.1 1.2 0 1.8 0s1.2 0 1.8-.1c.6 0 1.2-.2 1.8-.2s1.3.1 1.8.1c.6 0 1.2.3 1.8.4s1.2.4 1.8.5c.6.2 1.2.5 1.7.7.6.3 1.3.4 1.7.8s.8 1.1 1 1.7c.1.5-.1 1.2-.2 1.9-.1.5-.7.9-.9 1.6-.2.5-.5 1-.9 1.5-.3.5-.5 1-.9 1.5-.3.5-.3 1.2-.7 1.7-.4.4-.7 1-1.1 1.5-.4.4-.8.9-1.2 1.4-.4.4-1.1.5-1.6 1-.4.4-.9.8-1.4 1.2-.4.4-.9.8-1.4 1.2-.4.4-.7 1-1.2 1.4-.4.4-1.1.6-1.5 1s-1 .7-1.4 1.1c-.5.4-.5 1.3-1 1.7s-1.5.8-2 1.2c.8-.1 1.7-.4 2.1-.4 1.2 0 1.1.3 0 .6-.4.1-1.2-.3-1.9-.1-.5.1-.9.9-1.6 1.1-.5.1-1.2.1-1.8.2s-1.1.4-1.7.6c-.6.1-1.2.2-1.8.4-.6.1-1.2.3-1.8.4s-1.3-.1-1.9.1c-.6.1-1 .9-1.6 1s-1.2.3-1.8.4-1.2.2-1.8.3-1.2 0-1.8.2c-.6.1-1.1.4-1.7.6-.6.1-1.2.2-1.8.3-.6.2-1.1.6-1.7.7-.6.2-1.2.2-1.8.4s-1.2.2-1.8.4-1.4-.3-1.9-.1c-.6.2-1.2.4-1.7.6-.6.2-1 1-1.5 1.2-.8.3-1.1.8-1.3 1.1-.3.4-.3.4.9.6.5.1 1 .5 1.8.6.6 0 1.2.1 1.8.2s1.2-.2 1.8-.1 1.1.6 1.7.8c.6.1 1.2 0 1.8.2s1.1.6 1.6.8c.6.2 1.4-.2 1.9 0 .6.2.9 1 1.4 1.2.5.3 1.1.4 1.7.7.5.3.9.8 1.5 1.1.5.3 1.4.1 1.9.4s1 .7 1.5 1c.5.4.5 1.3 1 1.7s1.3.4 1.7.8.8 1 1.2 1.4 1.1.6 1.5 1.1.1 1.5.5 1.9c.4.5.7.9 1.1 1.4.3.5.7.9 1 1.5.3.5 1.3.6 1.6 1.1s.6 1.1.9 1.6.5 1.1.8 1.6c.2.5.2 1.2.4 1.8s.5 1.1.7 1.7.2 1.2.4 1.8.7 1.1.8 1.7-.1 1.3 0 1.8c.1.6-.2 1.2-.2 1.8.1.6.8 1.1.8 1.7s.1 1.2.1 1.8-.5 1.2-.6 1.8c0 .6-.2 1.2-.3 1.8s-.4 1.1-.5 1.7-.1 1.2-.2 1.8.4 1.3.3 1.9-.6 1.1-.7 1.7-.1 1.2-.3 1.8-.6 1.1-.8 1.6c-.2.6-.5 1.1-.7 1.6-.2.6-.2 1.2-.4 1.8s0 1.3-.2 1.9-.5 1.1-.8 1.6c-.2.5-1.2.8-1.5 1.3s-.4 1.1-.6 1.7c-.3.5.1 1.4-.1 1.9-.3.5-1.4.7-1.6 1.2.6 1.1.6 1.8.3 2.3z" fill="#ffdcd2"/></g><path clip-path="url(#c)" d="m242.4 473.2 5.2 5.2c-1.8.1-3.5.1-5.3 0 0-1.7 0-3.4.1-5.2zm21.2 44.4c-.2-.8-.6-1.6-1.3-2.5.9-.7 1.8-1.6 2.6-2.6-.4 1.7-.8 3.4-1.3 5.1z" fill="#fab400"/><path clip-path="url(#c)" d="m190.8 432.2c-.4 1-.9 2-1.4 2.9-.5-.2-.9-.4-1.4-.5-5.4-1.1-4.5-8.2-.2-9.8 2.5 1.1 4.4 4.1 3 7.4z" fill="#fab400"/><path clip-path="url(#c)" d="m242.4 473.2 5.2 5.2c-1.8.1-3.5.1-5.3 0 0-1.7 0-3.4.1-5.2z" fill="#fab400"/><path d="m427.2 205.3c24 11.9 53.8-1.4 67.2-22.8-24.2-14.1-56.1-2.9-67.2 22.8z" fill="#8aa579"/><path d="m428 206.9c.8.5.9-.5 1.3-.7.5-.2 1-.2 1.5-.3.2 0 .4-.1.5-.2.8-.3.7-.6 1.6-.9.8-.3.8-.5 1.6-.8s1 0 1.8-.3.6-.8 1.5-1.2c.8-.3 1.1.3 1.9-.1.8-.3.8-.4 1.6-.8.8-.3.8-.3 1.7-.6.8-.3.7-.7 1.5-1s1 .2 1.9-.1c.8-.3.8-.3 1.7-.6.8-.3.7-.5 1.6-.9.8-.3.7-.6 1.6-.9.8-.3 1 .2 1.9-.1.8-.3.8-.4 1.6-.7s.7-.8 1.5-1.1 1 .1 1.8-.2.8-.3 1.7-.6c.8-.3.8-.3 1.7-.6.8-.3.9-.3 1.7-.5.8-.3.7-.7 1.6-1 .8-.3.9 0 1.7-.2.3-.4.7-.5 1.1-.7l.3-.1c.1 0 .3.2.2-.2-.1-.5-.7-2.5-1-2.9-.2-.3-.2 0-.3 0-.3.1-.8-.2-1.3-.3-.1.1-.2.2-.4.2-.8.3-.7.7-1.6 1-.8.3-1-.1-1.8.2s-.7.9-1.5 1.1c-.8.3-1-.3-1.9 0-.8.3-.8.5-1.6.8s-.8.4-1.6.7-.8.5-1.6.8-.9.2-1.7.5-1-.1-1.8.2-.8.4-1.6.8c-.8.3-.8.5-1.6.8s-.8.5-1.6.8-1-.1-1.8.2-.6.8-1.5 1.1c-.8.3-.9.1-1.8.4-.8.3-.7.5-1.6.9-.8.3-.9.1-1.7.5-.8.3-.9.2-1.7.5s-.9.2-1.7.5-.8.3-1.7.7c-.8.3-.7.6-1.5 1l-1.6.6c-.3.1-.4.5-.7.7s-.9-.5-1 .2c-.2.7.9 3.3 1.1 3.4z" fill="#15433d"/><path d="m427.2 205.3c-27.2-13.4-31.4-49.1-15.9-73.2 25 14.4 26.4 49.8 15.9 73.2z" fill="#8aa579"/><path d="m428.9 204.8c.6-.7-.4-1-.5-1.5s-.1-1.1-.1-1.6c0-.2 0-.4-.1-.6-.2-.9-.5-.8-.7-1.7s-.4-.9-.6-1.7c-.2-.9.1-1-.1-1.9s-.8-.7-1-1.6.4-1.1.1-1.9c-.2-.9-.4-.9-.6-1.7-.2-.9-.2-.9-.5-1.8-.2-.9-.6-.8-.9-1.7-.2-.9.3-1 .1-1.9s-.2-.9-.4-1.8-.5-.8-.7-1.7-.5-.8-.7-1.7.3-1 .1-1.9-.3-.9-.5-1.8-.7-.8-.9-1.7.2-1 0-1.9-.2-.9-.4-1.8-.2-.9-.4-1.8-.2-.9-.4-1.8-.6-.8-.8-1.7.1-1 0-1.8c-.3-.4-.4-.8-.6-1.2l-.1-.3c0-.1.2-.2-.2-.2-.5 0-2.5.4-3 .6-.3.1-.1.2-.1.3.1.4-.2.8-.4 1.3.1.1.2.2.2.4.2.9.6.8.8 1.7s-.2 1 0 1.9.8.8 1 1.7-.4 1-.2 1.9.4.9.6 1.8.3.9.5 1.8.4.9.6 1.8.1.9.3 1.8-.2 1 0 1.9.4.9.6 1.8.4.9.6 1.8.5.8.7 1.7-.2 1 0 1.9.8.8 1 1.7 0 1 .2 1.8c.2.9.5.8.7 1.7s0 .9.3 1.8c.2.9.1.9.3 1.8s.1.9.4 1.8c.2.9.2.9.5 1.8.2.9.5.8.8 1.7l.5 1.7c.1.3.4.5.6.8s-.6.9.1 1c.5-.1 3.1-.9 3.3-1z" fill="#15433d"/><path d="m408.2 252.1c25 9.5 53.4-6.8 64.5-29.4-25.5-11.7-56 2.6-64.5 29.4z" fill="#8aa579"/><path d="m409.1 253.6c.8.5.8-.6 1.3-.8s1-.3 1.5-.5c.2-.1.4-.1.5-.2.8-.4.7-.6 1.5-1s.7-.5 1.5-.9 1-.1 1.7-.5c.8-.4.5-.9 1.3-1.3s1.1.2 1.9-.2.7-.5 1.5-.9l1.6-.8c.8-.4.6-.8 1.4-1.2s1 .1 1.8-.3.8-.4 1.6-.8.7-.6 1.5-1 .7-.7 1.5-1.1 1 .1 1.8-.3.8-.5 1.6-.8c.8-.4.6-.9 1.4-1.2.8-.4 1 0 1.8-.4s.8-.4 1.6-.7c.8-.4.8-.4 1.6-.7.8-.4.8-.3 1.6-.7s.6-.7 1.5-1.1c.8-.4.9-.1 1.7-.4.3-.4.7-.6 1.1-.8l.3-.2c.1 0 .3.1.2-.2-.1-.5-1-2.4-1.2-2.8-.2-.3-.2 0-.3 0-.3.2-.8-.1-1.3-.1-.1.1-.2.2-.4.3-.8.4-.6.7-1.5 1.1-.8.4-1 0-1.8.4s-.6.9-1.4 1.3-1.1-.2-1.9.2-.7.6-1.5 1-.8.5-1.6.9-.7.6-1.5.9c-.8.4-.8.3-1.7.7-.8.4-1 0-1.8.4s-.7.5-1.5.9-.7.6-1.5 1-.7.6-1.5 1-1 0-1.8.4-.6.9-1.4 1.3-.9.2-1.7.6-.7.6-1.5 1-.9.2-1.7.6-.9.2-1.7.7c-.8.4-.9.3-1.7.7s-.8.4-1.6.8-.6.7-1.4 1.1l-1.5.8c-.3.1-.4.5-.6.7s-1-.4-.9.3c.1.2 1.4 2.7 1.6 2.8z" fill="#15433d"/><path d="m408.2 252.1c-28.4-10.6-36.2-45.6-23.2-71.1 26.3 11.6 31.3 46.7 23.2 71.1z" fill="#8aa579"/><path d="m409.8 251.3c.5-.8-.5-.9-.7-1.4s-.2-1.1-.3-1.6c0-.2-.1-.4-.2-.5-.3-.9-.6-.8-.9-1.6-.3-.9-.5-.8-.8-1.7s0-1-.3-1.8c-.3-.9-.8-.7-1.2-1.5-.3-.9.3-1.1-.1-1.9-.3-.9-.4-.8-.8-1.7-.3-.9-.3-.9-.6-1.7-.3-.9-.7-.7-1-1.6s.2-1.1-.1-1.9c-.3-.9-.3-.9-.6-1.7-.3-.9-.5-.8-.9-1.6-.3-.9-.6-.8-.9-1.6-.3-.9.2-1.1-.1-1.9-.3-.9-.4-.8-.7-1.7s-.8-.7-1.1-1.6.1-1-.2-1.9-.3-.9-.6-1.8-.3-.9-.6-1.8-.2-.9-.5-1.8-.7-.7-1-1.6c-.3-.8 0-1-.2-1.8-.4-.3-.5-.8-.7-1.2l-.1-.3c0-.1.2-.3-.2-.2-.5.1-2.5.7-2.9.9-.3.2 0 .2 0 .3.1.4-.2.8-.3 1.3.1.1.2.2.2.4.3.9.7.8 1 1.6.3.9-.1 1 .2 1.9s.9.7 1.2 1.6-.3 1.1 0 1.9c.3.9.5.8.8 1.7s.4.8.7 1.7.5.8.8 1.7.2.9.5 1.8-.1 1 .2 1.9.4.8.8 1.7c.3.9.5.8.8 1.7s.5.8.8 1.7-.1 1 .2 1.9.8.7 1.1 1.5c.3.9.1.9.4 1.8s.5.8.9 1.6c.3.9.1.9.5 1.8.3.9.2.9.5 1.8s.2.9.5 1.8.3.9.7 1.7c.3.9.6.7 1 1.6l.6 1.7c.1.3.5.5.7.7.2.3-.5.9.2 1 .6-.1 3.1-1.1 3.3-1.3z" fill="#15433d"/><path d="m394 300.5c25.9 6.9 52.5-12.2 61.3-35.8-26.6-9-55.6 8.4-61.3 35.8z" fill="#8aa579"/><path d="m395 302c.8.4.8-.6 1.2-.9s1-.4 1.4-.6c.2-.1.3-.2.5-.3.7-.5.6-.7 1.3-1.2s.7-.6 1.4-1.1.9-.2 1.7-.7c.7-.5.5-.9 1.2-1.4s1.1 0 1.8-.4c.7-.5.7-.6 1.4-1.1.8-.5.8-.5 1.5-.9.8-.5.5-.8 1.3-1.3s1 0 1.8-.5.8-.5 1.5-.9c.8-.5.6-.7 1.4-1.2s.6-.7 1.3-1.2c.8-.5 1.1 0 1.8-.5.8-.5.7-.5 1.5-1s.5-.9 1.2-1.4c.8-.5 1-.1 1.7-.6.8-.4.8-.4 1.5-.9.8-.4.8-.4 1.5-.9.8-.5.8-.4 1.6-.9s.6-.8 1.3-1.2.9-.2 1.6-.6c.2-.4.6-.7 1-.9l.3-.2c.1 0 .3.1.2-.2-.2-.5-1.2-2.3-1.5-2.6-.2-.2-.2 0-.3 0-.3.2-.8 0-1.3 0-.1.1-.2.2-.3.3-.8.5-.6.8-1.3 1.3-.8.5-1 .1-1.7.6-.8.5-.5 1-1.2 1.4-.8.5-1.1-.1-1.8.4-.8.5-.7.6-1.4 1.1-.8.5-.7.6-1.5 1-.8.5-.7.6-1.4 1.1-.8.5-.8.4-1.6.9s-1 .1-1.8.5c-.8.5-.7.6-1.4 1.1-.8.5-.7.6-1.4 1.1-.8.5-.6.7-1.4 1.2s-1 .1-1.8.6-.5.9-1.2 1.4c-.8.5-.9.3-1.6.8-.8.5-.6.7-1.4 1.2s-.9.3-1.6.8-.8.3-1.6.8-.8.4-1.6.9c-.7.5-.7.5-1.5 1-.7.5-.6.8-1.3 1.3l-1.4.9c-.2.2-.3.5-.5.8s-1-.3-.9.4c.1.3 1.6 2.6 1.8 2.7z" fill="#15433d"/><path d="m394 300.5c-29.3-7.7-40.5-41.8-30.2-68.5 27.3 9.1 35.8 43.4 30.2 68.5z" fill="#8aa579"/><path d="m395.5 299.6c.5-.8-.6-.9-.8-1.3-.2-.5-.3-1-.5-1.5-.1-.2-.1-.4-.2-.5-.4-.8-.6-.7-1.1-1.5-.4-.8-.5-.8-.9-1.6s-.1-1-.5-1.8-.9-.6-1.3-1.4.2-1.1-.2-1.9-.5-.8-.9-1.6-.4-.8-.8-1.7c-.4-.8-.8-.6-1.2-1.5-.4-.8.1-1.1-.3-1.9s-.4-.8-.8-1.7c-.4-.8-.6-.7-1-1.6-.4-.8-.7-.7-1.1-1.5s.1-1.1-.3-1.9-.5-.8-.9-1.6-.9-.6-1.3-1.4 0-1-.4-1.9c-.4-.8-.4-.8-.7-1.7-.4-.8-.4-.8-.7-1.7-.4-.8-.3-.9-.7-1.7s-.7-.7-1.1-1.5-.1-1-.4-1.7c-.4-.3-.6-.7-.8-1.1l-.2-.3c0-.1.1-.3-.2-.2-.5.1-2.4.9-2.8 1.2-.3.2 0 .2 0 .3.2.3-.1.9-.1 1.3.1.1.2.2.3.4.4.8.7.7 1.1 1.5s0 1 .4 1.8.9.6 1.3 1.4-.2 1.1.2 1.9.6.8 1 1.6.5.8.9 1.6.6.8 1 1.6.3.9.7 1.7 0 1 .4 1.9c.4.8.5.8.9 1.6s.6.8 1 1.6.6.7 1 1.6c.4.8 0 1 .4 1.9.4.8.9.6 1.3 1.4s.2.9.6 1.8c.4.8.6.7 1 1.6.4.8.2.9.6 1.8.4.8.3.9.7 1.7s.3.9.7 1.7.4.8.8 1.6.7.7 1.1 1.5l.8 1.6c.1.3.5.4.7.7.2.2-.4 1 .3 1 .4-.1 2.8-1.3 3-1.6z" fill="#15433d"/><path d="m384.3 353.1c26.5 4.1 50.9-17.9 57.2-42.3-27.5-6.2-54.4 14.4-57.2 42.3z" fill="#8aa579"/><path d="m385.5 354.4c.9.3.7-.7 1.1-1s.9-.5 1.4-.8c.2-.1.3-.2.5-.3.7-.6.5-.8 1.2-1.3.7-.6.6-.7 1.3-1.2.7-.6.9-.3 1.6-.9s.4-1 1-1.5c.7-.6 1.1-.1 1.8-.6.7-.6.6-.7 1.3-1.2.7-.6.7-.6 1.4-1.1.7-.6.4-.9 1.1-1.4.7-.6 1-.1 1.7-.7.7-.5.7-.5 1.4-1.1s.5-.8 1.2-1.3c.7-.6.5-.8 1.2-1.3s1.1-.1 1.8-.7c.7-.5.7-.6 1.4-1.2.7-.5.4-1 1.1-1.5s1-.2 1.7-.7.7-.5 1.4-1.1l1.4-1c.7-.5.7-.5 1.5-1 .7-.5.5-.9 1.2-1.4s.9-.3 1.6-.7c.2-.4.5-.7.9-1l.2-.2c.1-.1.3.1.1-.3-.2-.5-1.4-2.1-1.8-2.4-.3-.2-.2 0-.3.1-.3.2-.8.1-1.3.1-.1.1-.2.2-.3.3-.7.5-.5.9-1.2 1.4s-.9.2-1.7.8c-.7.5-.4 1-1.1 1.6-.7.5-1.1.1-1.8.6s-.6.7-1.3 1.3c-.7.5-.6.6-1.3 1.2-.7.5-.6.7-1.3 1.2s-.8.5-1.5 1c-.7.6-1 .2-1.7.7-.7.6-.6.7-1.3 1.2-.7.6-.6.7-1.3 1.3s-.6.7-1.3 1.3-1 .2-1.7.8-.4 1-1.1 1.5c-.7.6-.8.4-1.5.9-.7.6-.5.8-1.2 1.3-.7.6-.8.4-1.5 1s-.8.4-1.5 1-.8.5-1.5 1c-.7.6-.7.6-1.4 1.2s-.5.8-1.2 1.4l-1.3 1.1c-.2.2-.3.6-.5.8-.2.3-1-.2-.8.5.2.1 2 2.2 2.2 2.3z" fill="#15433d"/><path d="m384.3 353.1c-30-4.5-44.7-37.5-37.3-65.2 28.3 6.2 40.2 39.6 37.3 65.2z" fill="#8aa579"/><path d="m385.7 352.1c.4-.9-.7-.8-.9-1.2-.3-.5-.4-1-.6-1.5-.1-.2-.2-.3-.3-.5-.5-.8-.7-.6-1.2-1.4s-.6-.7-1.1-1.5-.2-1-.7-1.8-.9-.5-1.4-1.3 0-1.1-.5-1.9-.6-.7-1.1-1.5-.5-.8-1-1.6-.8-.6-1.3-1.3c-.5-.8 0-1.1-.5-1.9s-.5-.8-.9-1.6c-.5-.8-.7-.7-1.2-1.4-.5-.8-.8-.6-1.2-1.4-.5-.8 0-1.1-.5-1.9s-.5-.7-1-1.5-.9-.5-1.4-1.3-.1-1-.6-1.8-.5-.8-.9-1.6c-.5-.8-.5-.8-.9-1.6-.5-.8-.4-.8-.9-1.6s-.8-.6-1.3-1.4c-.4-.8-.2-1-.6-1.7-.4-.3-.7-.6-.9-1l-.2-.3c0-.1.1-.3-.3-.2-.5.2-2.3 1.2-2.6 1.5-.2.2 0 .2 0 .3.2.3 0 .9 0 1.3l.3.3c.5.8.8.6 1.3 1.4s.1 1 .6 1.8 1 .5 1.4 1.3c.5.8-.1 1.1.4 1.9s.7.7 1.1 1.5c.5.8.6.7 1.1 1.5s.6.7 1.1 1.5.4.8.9 1.6.1 1 .6 1.8.6.7 1.1 1.5.6.7 1.1 1.5.7.7 1.2 1.5.1 1 .6 1.8 1 .5 1.4 1.3c.5.8.3.9.8 1.7s.7.7 1.2 1.4c.5.8.3.9.8 1.7s.3.9.8 1.7.4.9.9 1.6c.5.8.5.8 1 1.6s.8.6 1.3 1.4l1 1.5c.2.3.5.4.8.6s-.3 1 .4.9c.4 0 2.7-1.5 2.8-1.7z" fill="#15433d"/><path d="m382.3 381c1.1-2.9.5-6 .8-9 .2-1.5.4-3.1.6-4.6l.3-2.3.4-2.3c.2-1.1.3-2.2.5-3.3.7-5.3.5-5.4 1.2-10.7.9-5.3.8-5.3 1.6-10.7.9-5.3 1.2-5.3 2.3-10.5 1.1-5.3.5-5.4 1.6-10.7 1.2-5.3 1.8-5.1 3.1-10.4 1.3-5.2 1-5.3 2.5-10.5 1.4-5.2 1.4-5.2 2.8-10.4 1.5-5.2 1.1-5.3 2.7-10.4 1.6-5.2 2-5 3.8-10.1s1.8-5.1 3.5-10.2c1.8-5.1 1.6-5.1 3.5-10.2.9-2.5 1.3-3.8 1.7-5.1s.8-2.6 1.8-5.1c2-5 2.6-4.8 4.6-9.8 2.1-5 2.1-5 4.2-9.9 1.1-2.5 1.5-3.7 1.9-5s.9-2.6 2-5c2.3-4.9 2.7-4.7 5.1-9.5s2.5-4.8 4.9-9.6c2.5-4.8 2.4-4.8 5.1-9.5 2.6-4.7 2.6-4.7 5.3-9.4s2.4-4.9 5.1-9.5c2.7-4.5 3-4.5 5.6-8.6 1.2-2.3 2.5-4.5 3.9-6.7l1-1.7c.3-.4.8-.8.8-1.4-.1-.8-1.8-1.9-2.5-1.6-.5.2-.6.8-.9 1.2-1.2 1.9-2.7 3.6-4.1 5.3-.3.7-.8 1.4-1.3 2.3-2.9 4.6-2.5 4.8-5.3 9.5-2.7 4.7-3.1 4.5-5.8 9.2-2.6 4.8-2.1 5-4.7 9.8-2.6 4.7-3.1 4.5-5.6 9.3s-2.3 4.9-4.7 9.8c-2.3 4.9-2.2 5-4.6 9.8-1.2 2.4-1.7 3.7-2.2 5s-1 2.5-2.1 5c-2.2 5-2.3 4.9-4.4 9.9s-2.5 4.8-4.5 9.9c-1 2.5-1.5 3.8-1.9 5.1s-.9 2.6-1.8 5.1c-1.9 5.1-1.8 5.1-3.6 10.3-1.7 5.1-1.5 5.2-3.3 10.4-1.8 5.1-2.1 5-3.7 10.2s-1.1 5.3-2.6 10.6c-1.4 5.2-1.6 5.2-3.1 10.4-1.4 5.2-1.1 5.3-2.4 10.6-1.2 5.3-1.5 5.2-2.7 10.5-1.1 5.3-1.3 5.3-2.3 10.6-1.1 5.3-1.2 5.3-2.1 10.7s-.9 5.4-1.8 10.7c-.7 5.4-.4 5.4-1.1 10.8l-.7 5.2c-.2 1.7-.4 3.4-.5 5.2-.2 1.8-.1 3.6-.2 5.4-.1 2-1.2 3.9-.7 5.9-.1.5 2.7.8 3 0z" fill="#15433d"/><path d="m447.2 167.7c26.7-8.8 43.7-37.3 42.3-64.7-27.8 6-49.5 36.1-42.3 64.7z" fill="#8aa579"/><path d="m448.8 168.5c.9-.1.4-1 .7-1.4.3-.5.7-.9 1.1-1.3.1-.2.2-.3.3-.5.5-.8.3-1 .7-1.8.5-.8.4-.9.8-1.7.5-.8.8-.7 1.3-1.5s0-1.1.5-1.9 1-.5 1.5-1.3.4-.9.9-1.7.5-.8 1-1.6.1-1 .6-1.9c.5-.8 1-.5 1.5-1.4.5-.8.5-.8 1-1.6s.3-.9.8-1.8c.5-.8.2-1 .7-1.8s1-.5 1.5-1.3.4-.9 1-1.7c.5-.8.1-1.1.6-1.9s.9-.6 1.4-1.4.5-.8 1.1-1.6c.5-.8.5-.8 1.1-1.6.5-.8.5-.8 1.1-1.6.5-.8.2-1 .7-1.8s.8-.6 1.3-1.3c.1-.5.3-.9.5-1.3l.2-.3c0-.1.3 0 .1-.3-.4-.4-2.1-1.5-2.5-1.7-.3-.1-.2.1-.2.2-.2.3-.8.4-1.2.6 0 .1-.1.3-.2.5-.5.8-.2 1-.7 1.8s-.8.6-1.4 1.4c-.5.8 0 1.1-.6 1.9-.5.8-1 .5-1.6 1.3-.5.8-.3.9-.9 1.7-.5.8-.4.9-.9 1.7s-.4.9-.9 1.7-.6.8-1.1 1.6-.9.6-1.4 1.4-.4.9-.9 1.7-.4.9-.9 1.7-.3.9-.8 1.8c-.5.8-.9.6-1.4 1.4s0 1.1-.5 1.9-.7.7-1.2 1.5-.3 1-.8 1.8-.7.7-1.2 1.6c-.5.8-.6.7-1.1 1.6-.5.8-.6.8-1.1 1.6s-.5.8-.9 1.7c-.5.8-.2 1-.7 1.8-.3.5-.6 1.1-.9 1.6-.2.3-.1.7-.2 1-.1.4-1 .2-.6.9.2.3 2.6 1.6 2.8 1.6z" fill="#15433d"/><path d="m405.6 496.8-2.5.1-2.4.3-2.5-.1h-2.4l-2.4-.3h-2.5l-2.4.5-2.5.1-2.4.1-2.5-.1h-2.4l-2.4-.2-2.5-.1-2.4.1-2.5-.5-2.4-.1-2.5.3-2.4.6-2.5-.8-2.4.2h-2.5l-2.4-.2-2.5.4-2.4.2-2.5-.5-2.4-.1-2.4.5-2.3-.6-2.4-.1-2-1.5-2-1.1-2.2-.8-1.7-1.6-2.2-1.2-1.1-2.1-1.3-1.9-1-2.1-1.9-1.7-.2-2.4-.6-2.3-.2-2.3-.2-2.3v-2.4l-.5-2.5.3-2.4.1-2.4.2-2.4-.2-2.5.2-2.4v-2.4l-.2-2.4-.5-2.5.9-2.4-.4-2.4-.3-2.5.5-2.4-.2-2.4-.1-2.4-.1-2.5-.1-2.4.6-2.4-.6-2.4.7-2.5-.8-2.4.3-2.4-.1-2.5.5-2.4-.8-2.4.1-2.5.4-2.4-.4-2.4.4-2.4.2-2.5-.7-2.4.1-2.4-.1-2.5.8-2.4-.1-2.4-.5-2.5.7-2.4-.6-2.6 2.6-.3 2.4.7 2.4-.6 2.4.1 2.4-.1 2.4.8 2.5-.8 2.4.2 2.4.1 2.4.2 2.4-.6 2.4.9h2.5l2.4-.9 2.4.7 2.4.2 2.4-.2 2.5-.6 2.4.5 2.4-.5 2.4.2 2.4-.2 2.4.7h2.5l2.4-.3 2.4.3 2.4-.2 2.4-.5 2.4.1 2.5-.1 2.4.4 2.4-.3 2.4.6 2.4-.6 2.5.5 2.4-.1 2.4.2 2.4.1 2.4-.6h2.5l2.4-.1 2.4.1 2.4.1 2.5.3 2.4-.5h2.6l-.3 2.7v2.4l-.1 2.4-.2 2.5.1 2.4.6 2.4.2 2.4-.3 2.5-.5 2.4.7 2.4-.7 2.5-.1 2.4.4 2.4.3 2.4.1 2.5v2.4l-.3 2.4.2 2.5-.2 2.4-.5 2.4.7 2.4.2 2.5-.8 2.4.4 2.4-.3 2.4.1 2.5.2 2.4-.3 2.4-.1 2.5.6 2.4-.7 2.4.2 2.5.4 2.4.2 2.4-.9 2.5.4 2.4.3 2.4.2 2.5v2.4l-.2 2.4-1.1 2.2.2 2.4-1 2.2-1.5 1.9-1.1 2-1 2.1-1.9 1.4-1.5 1.8-2 1.3-1.8 1.4-2.4.5-2.1.8-2.1 1.4-2.4-.1z" fill="#3f6e56"/><path d="m122.2 332.7 1.3 1.7 1.8 1.5 1.4 2.1 2.1 1.3 1.1 2.3 2.2 1.2 1.4 2 2 1.4 1.3 2.1 2.2 1.3 1.2 2.2 2.1 1.3 1.7 1.7 1.6 2.2 1.9-2 1.4-2 1.9-1.5 1.8-1.5 1.6-1.8 2-1.5 1.2-2.2 1.9-1.5 1.4-2 1.9-1.5 1.8-1.6 1.8-1.7 1.8-1.6 1.1-1.9-1.5-1.5-1.6-1.8-1.4-2-2.2-1.2-1.5-1.9-1.4-2-1.6-1.8-2.4-1.1-1-2.3-2-1.5-1.6-1.8-1.8-1.6-1.4-2-2.1-1.3-1.8 1.5-1.4 2-1.6 1.9-2.2 1.1-1.5 1.9-1.9 1.6-1.2 2.2-2 1.3-2 1.5-1.3 2-1.9 1.6-1.6 1.8-1.8 1.7z" fill="#fff"/><path d="m132.5 359.3-.1 2.4.5 2.4 1 2.3-.1 2.4.1 2.4 1.2 2.3.3 2.4.1 2.4.4 2.4-.1 2.4 1 2.3.2 2.4.5 2.4-.1 2.8 2.8-.4 2.3-.8 2.3-.6 2.4-.5 2.5.3 2.2-1.1 2.5-.1 2.4-.2 2.3-.8 2.4.1 2.4-.8 2.5.5 2.3-.6 2.5-.5-.3-2.5-.3-2.4-.5-2.4-.6-2.3v-2.5l-.3-2.4-1.2-2.2-.1-2.4.2-2.5-1.2-2.3-.2-2.4-.1-2.4-.7-2.3.2-2.8-2.7.6-2.3.9h-2.4l-2.3.6-2.5-.1-2.3.9-2.5-.4-2.3 1-2.4-.1-2.4.8-2.4-.2-2.3 1.1-2.5-.4z" fill="#fff"/><path d="m86.8 383.3 1.3 2 1.7 1.7 1.7 1.7 1.7 1.7 1.9 1.5 1.6 1.9 1.8 1.6 1.5 1.8 1.9 1.6 2.1 1.3 1.7 1.7 1.3 2.1 1.7 1.7 1.9 1.2 1.4-1.6 1.7-1.7 1.9-1.5 1.6-1.8 2-1.4 1.3-2.1 2.1-1.3 1.9-1.5 1.3-2.1 2.1-1.3 1.6-1.9 1.8-1.6 1.1-2.3 2.2-1.4-1.8-1.7-2.1-1.4-1.2-2.1-1.8-1.7-2-1.3-1.7-1.7-1.7-1.8-1.7-1.7-1.5-1.9-1.6-1.9-1.7-1.6-1.7-1.8-2.1-1.3-1.4-2.1-1.4 2.1-2 1.5-2.1 1.3-1.6 1.8-1.3 2.2-2 1.3-1.9 1.6-1.1 2.3-1.7 1.6-2 1.5-1.6 1.8-2.1 1.3-1.2 2.2z" fill="#fff"/><path d="m125.4 417.6 1.8 1.8 1.4 1.9 1.7 1.8 1.8 1.6 2.1 1.3 1.8 1.5 1.2 2.3 2.2 1.1 1.4 2.1 2.1 1.4 1.2 2.1 2 1.4 1.3 2.2 2 1.1 1.4-1.7 1.9-1.5 1.6-1.8 2-1.4 1.9-1.6 1.2-2.2 1.9-1.4 1.4-2 2.2-1.2 1.3-2.2 1.9-1.5 1.8-1.6 1.6-1.8 1.4-1.7-1.5-1.5-1.6-1.8-1.9-1.5-1.3-2.1-2-1.5-1.8-1.6-1.7-1.6-1.8-1.7-1.3-2.1-1.6-1.8-1.6-1.8-1.7-1.7-2-1.5-1.7-1.7-1.6 1.9-1.7 1.6-2.1 1.4-1.7 1.7-1.7 1.7-1.7 1.7-1.5 1.9-1.9 1.5-1.6 1.8-1.8 1.6-1.6 1.8-1.3 2.1-1.7 1.8z" fill="#fff"/><path d="m99.5 423.8v2.3 2.4l-.4 2.4-.6 2.4.2 2.4.3 2.5-.7 2.3.5 2.5-.5 2.4-.5 2.4.4 2.4-.4 2.4.2 2.4-.8 2.7 2.7-.5 2.4.1 2.4.1 2.4.5 2.4.3 2.4.2 2.4.1 2.4.3 2.4-.2 2.4.4 2.5-.6 2.4.7 2.4.5 2.6-.1.4-2.6-.2-2.4-.1-2.4v-2.4l.7-2.4.3-2.4-.7-2.5.4-2.4.1-2.4.4-2.4.2-2.4-.1-2.4v-2.4l.4-2.5-2.5-.1-2.4-.2-2.4-.1-2.4-.5-2.4-.2-2.4.1-2.5.3-2.4.1-2.4-.9-2.4.7-2.4-.6-2.4.3-2.4-.8z" fill="#fff"/><path d="m153 456.9-.2-2.1-.8-1.6v-1.9l-1-1.6.1-1.9-.8-1.6-.4-1.8-.5-1.7-.2-1.8-.8-1.7-.2-1.8-.2-1.8-.4-1.7-.9-1.7v-1.8l-.8-1.7v-1.8l-1-1.6v-1.9l-1-1.6-.1-1.8-.2-1.8-.6-1.7-.4-1.8-.8-1.6-.2-1.8-.7-1.7.1-1.9-1-1.6-.4-1.7-.4-1.8-.6-1.7.1-1.9-.4-1.7-.4-1.8-.6-1.7-.5-1.7-.8-1.7-.2-1.8-.3-1.7-.5-1.8-.5-1.7-.8-1.7-.3-1.7-.4-1.8-.2-1.8-.5-1.7-.6-1.7-.5-1.8-.6-1.7-.1-1.8-.4-1.7-.8-1.7-.5-1.7.2-1.9-.9-1.7-.3-1.7-.1-1.9-1.1-1.5-.4-1.8.1-1.9-1-1.6-.4-1.7.1-1.9-.5-1.7-1-1.6-.5-1.8-.2-1.8-.3-1.7-.4-1.8-.2-1.8-.9-1.6-.2-1.8-.7-1.7-.1-1.8-.3-1.8-.9-1.6-.3-1.8-.3-1.8-.6-1.7-.7-1.7v-1.8l-.4-1.8-.8-1.6v-1.9l-.8-1.6-.5-1.8-.2-1.8-.4-1.7-.5-1.8-.5-1.7-.9-1.6-.3-1.8-.1-1.8-.5-1.8-.7-1.6.1-1.9-.7-1.7-.4-1.7-.7-1.8-.4-1.7-.3-1.8-.3-1.8-.4-1.7-.9-1.7-.6-1.7-.3-1.7v-1.9l-.8-1.6-.5-1.8-.1-1.8-.3-1.8-1.1-1.6-.1-1.8-.4-1.8-.5-1.7-.4-1.7-.7-1.7-.3-1.8-.3-1.8-.9-1.6.2-1.9-.8-1.7-.6-1.7.1-1.9-.8-1.6-.8-1.7-.2-1.8-.6-1.7-.3-1.8-.1-1.8-.7-1.7-.1-1.9-.7-1.7-.9-1.6-.6-1.7-.5-1.8-1.3-1.4-.9-1.6-1.3-1.3-.8-1.8-1.7-.9-1.5-1-1.3-1.5-1.8-.5-1.6-1.1-1.6-.7-1.7-.7-1.9-.2-1.4-1.2-1.7-.7-1.8-.4-1.4-1.1-1.7-.7-1.5-.9-1.9-.4-1.6-.8-1.6-.8-1.5-1-1.6-.8-1.6-.8-1.8-.5-1.6-.9-1.9-.2-1.5-.9-1.6-.9-1.6-.9-1.6-.9-1.6-.8-1.6-.7-1.7-.7-1.7-.6-1.6-.9-1.4-.6.2-1.8.9-1.7.4-1.9.6-1.9 1.1-1.5 1.4.8 1.7.6 1.6.8 1.7.5 1.7.7 1.7.6 1.3 1.4 1.9.2 1.6.6 1.4 1.3 1.6.9 1.8.2 1.6.8 1.5 1.1 1.6.7 1.7.6 1.6.9 1.6.7 1.8.5 1.5.9 1.6.9 1.7.5 1.7.6 1.7.6 1.5.9 1.4 1.2 1.7.6 1.8.4 1.4 1.2 1.9.3 1.2 1.4 1.6.8 1.6.7 1.3 1.2 1.2 1.3 1.7.7 1.1 1.5 1.2 1.2 1.1 1.4 1.1 1.4.8 1.6.6 1.7.9 1.5.7 1.6.7 1.6.2 1.8 1 1.5.2 1.8.6 1.7.2 1.8.5 1.7.5 1.8.7 1.7.5 1.7.4 1.7-.1 1.9 1 1.6.1 1.8.4 1.8.7 1.7.3 1.7.4 1.8.5 1.7v1.9l.5 1.7.6 1.7.8 1.7.4 1.7.2 1.8.2 1.8.6 1.7.5 1.7.8 1.7.4 1.7.3 1.8-.1 1.9.5 1.7.6 1.7.4 1.8.5 1.7.4 1.8.9 1.6-.2 1.9.7 1.6.2 1.8.9 1.7.4 1.7.2 1.8.4 1.8.3 1.8.8 1.6.2 1.8.5 1.7.5 1.8.5 1.7.7 1.7.1 1.8.4 1.8.2 1.8.4 1.7.8 1.6.3 1.8.9 1.7.3 1.7.3 1.8.1 1.8.7 1.7.2 1.8.3 1.8 1.1 1.6.1 1.8.1 1.8.5 1.7.6 1.7.3 1.8.7 1.7.7 1.7.1 1.8.4 1.8.8 1.6.2 1.8.1 1.8.8 1.7.2 1.8.5 1.7.7 1.7.5 1.7.5 1.7.2 1.8.4 1.8.5 1.7.2 1.8.9 1.7.2 1.8.6 1.6-.1 1.9.9 1.7.5 1.7v1.8l.8 1.7.5 1.7.5 1.8.5 1.7.2 1.8.2 1.8.4 1.8.5 1.7.9 1.6.3 1.8v1.9l.8 1.6.1 1.8.7 1.7.6 1.7.5 1.7v1.9l.4 1.8.8 1.6.3 1.8.3 1.8.6 1.7.2 1.8.3 1.7.4 1.8.8 1.7.4 1.7.3 1.8.6 1.7.6 1.7.1 1.8.9 1.7.2 1.8.7 1.7-.2 1.9.9 1.6.5 1.7.2 1.8.3 1.8.8 1.7.5 1.9-1.9.2-1.6 1-1.8-.1-1.5 1.1z" fill="#ffdcd2"/><path d="m485 332.7.9-2.3 2-1.3 1.5-1.8 1.5-1.8 1.4-1.9 1.7-1.5 1.9-1.5 1.4-1.8 1.6-1.7 1.6-1.8 1.4-1.9 2.3-1.1 1.9-1.6 2.2-1.1 2.2-1.3 2.3-1 2.5-.3 2.6.6 2.6-.6 2.4.3 2 1.3 1.4 2-.5 2.3.1 2.3-1.6 1.6-1.4 2-1.9 1.7-1.5 2-1.5 2.1-1.8 1.7-2.2 1.4-1.6 1.9-1.6 1.9-1.4 2.2" fill="#d3ccc1"/><path d="m524.5 500.2-2.4-.1-2.4.1-2.5-.6-2.4-.1-2.5.4-2.4.6-2.4-.8-2.5.1-2.4.1-2.5-.2-2.4.4-2.4.2-2.5-.5-2.4-.1-2.5.6-2.4-.3-2.4.5-2.5-.7-2.4-.2-2.5.5-2.4-.2-2.5.5-2.4-.6h-2.5l-2.4-.3-2.4.8-2.3-1-2.2-.7-2-1.2-2-1.3-1.8-1.5-1.9-1.4-1.1-2.2-1-2.2-.5-2.3-.6-2.2v-2.4-2.4l-.2-2.4-.5-2.4.9-2.3-.4-2.4-.3-2.4.5-2.4-.2-2.4-.1-2.4-.1-2.4-.1-2.4.5-2.4-.6-2.4.7-2.4-.8-2.4.4-2.4-.1-2.4.5-2.4-.8-2.4v-2.4l.5-2.4-.4-2.4.4-2.4.2-2.4-.8-2.4.2-2.4-.1-2.4.8-2.4-.2-2.4-.5-2.4.7-2.4-.6-2.4-.2-2.4.7-2.4-.6-2.4.1-2.4-.1-2.4.7-2.4-.7-2.4.1-2.4.2-2.4.2-2.4-.6-2.4.9-2.4v-2.4l-.9-2.4.7-2.4.2-2.4-.3-2.4-.5-2.4.5-2.4-.5-2.4.1-2.5-.1-2.5.7-2.5.1-2.5v-2.5l.7-2.4.6-2.4.6-2.4 1.5-2.1 1.5-2.1 1.9-1.6 1.3-2.2 2.1-1.5 1.2-2.5 2.5.5 2.4-.1 2.4.2 2.3.1 2.4-.6h2.4l2.4-.1 2.4.1 2.4.1 2.3.3 2.4-.5 2.4-.1 2.4.5 2.4-.1 2.4.1 2.3.2 2.4-.1 2.4-.6 2.4-.1 2.4.3 2.4.5 2.4-.7 2.3.7 2.4.1 2.4-.4 2.4-.4 2.4-.1h2.4l2.4.3 2.5-.1 1.4 2.2 1.1 2.3 2.1 1.6 1.6 1.9 1 2.5 1.6 1.8 1 2.3 1.2 2.1 1 2.2.4 2.5.4 2.4.9 2.4-.6 2.4.2 2.4.4 2.5.2 2.4-.9 2.4.4 2.4.3 2.4.2 2.4v2.4l-.1 2.4-.7 2.4.7 2.4-.2 2.4-.5 2.5.1 2.4.4 2.4-.4 2.4.3 2.4-.2 2.4.3 2.4-.6 2.4v2.4l.9 2.4-.5 2.5.1 2.4.1 2.4.3 2.4-.2 2.4-.3 2.4.1 2.4v2.4l.1 2.4.3 2.5-.7 2.4.1 2.4-.1 2.4.4 2.4.3 2.4-.1 2.4-.8 2.4.6 2.4.2 2.4.1 2.5v2.4l-.9 2.4.5 2.4-.3 2.4.3 2.4-.1 2.4.2 2.5.3 2.4-.1 2.4-.7 2.4.2 2.4-.1 2.4.1 2.4-.9 2.2-1.2 2.1-1.4 1.9-1.4 2-2 1.3-1.9 1.5-2.1 1-2.3.6-2.2 1z" fill="#fff0d2"/><path d="m554.8 474.9c-.4-.6-.2-1.5-.5-2-.5-.6-1.2-.7-1.6-1.1-.4-.5-.8-.9-1.2-1.4-.3-.4-.4-1.1-.8-1.7-.3-.4-1-.7-1.4-1.3-.4-.5-.7-.9-1.1-1.4-.3-.5-.1-1.3-.4-1.8s-1.1-.7-1.4-1.2-.5-1-.8-1.5-.6-1-1-1.5c-.3-.5-.4-1.2-.7-1.7s-.9-.8-1.2-1.3-.4-1.1-.6-1.7c-.2-.5-.8-.9-1-1.5s0-1.2-.2-1.8c-.1-.6-.6-1.1-.7-1.6-.1-.6.2-1.3 0-1.8-.2-.6-.5-1.1-.7-1.6-.1-.6-.2-1.1-.3-1.7s-.4-1.1-.5-1.7 0-1.2-.1-1.8-.4-1.1-.5-1.7-.5-1.1-.6-1.7-.4-1.1-.5-1.7.5-1.2.5-1.8-.1-1.2-.1-1.8-.4-1.2-.4-1.8.2-1.2.2-1.8-.6-1.2-.6-1.8.6-1.1.6-1.7c.1-.6-.3-1.2-.2-1.8s.9-1 1-1.6.4-1.1.5-1.7-.5-1.3-.4-1.9.1-1.2.3-1.8c.1-.6.4-1.1.6-1.7s.3-1.1.5-1.7.8-1 1.1-1.5.4-1.1.7-1.6 1.1-.7 1.4-1.2.7-1 .9-1.5c.3-.6-.2-1.4 0-1.8.3-.6 1-1 .9-1.5-.1-.4-.9-.6-1.3-1.2 0 0 .6-.4.6-.4-.4-.5-.2-1.2-.4-1.7-.2-.6-.3-1-.4-1.6s-.4-1.1-.3-1.7.5-1 .8-1.5.4-1.2.9-1.6c.6-.5.8-.9 1.2-1.2.5-.4.9-.5 1.4-.9.3-.3.6-.7 1.2-1.2.5-.4 1.4.1 2-.1s1-.4 1.6-.4 1.2-.9 1.8-.8 1 .8 1.5 1.1 1.3.4 1.7.8c0 .1-.2-.1-.2 0 .4.5.7 1 1.2 1.2.5.3 1.1.6 1.7.7.5 0 1.1-.4 1.7-.6.6-.1 1.2-.3 1.9-.4.6-.2 1.3 0 1.9-.1s1.3-.1 1.9-.2 1.2-.3 1.8-.4c.6 0 1.2-.2 1.9-.2.6 0 1.2.3 1.9.3.6 0 1.3-.7 2-.6.6.1 1.3.2 1.9.2s1.3.3 1.9.3h1.9c.6 0 1.2.6 1.9.7.6 0 1.3-.5 2-.4s1.1.7 1.8.9c.6.2 1.4-.2 2 0s1.2.5 1.8.7 1 .9 1.6 1.1 1.3.1 1.9.4 1.1.6 1.7.9 1.2.4 1.8.7 1.1.5 1.7.8.8 1.1 1.4 1.4c.5.3 1.2.5 1.7.8.5.4.8 1.1 1.3 1.5s1.3.3 1.8.7.8 1.1 1.4 1.4c.5.3 1.1.6 1.7.9s1.4.2 1.9.6 1 .8 1.4 1.3l1.5 1.2c.4.5.7 1.1 1.1 1.6s.8 1 1.3 1.4c.4.5 1 .9 1.4 1.4s.5 1.1.8 1.5c.4.5.6 1 .9 1.4s.7.7 1.1 1.3c.3.4.6.8 1 1.3s1.2.6 1.4 1c.4.5-.1 1.4.2 1.9.3.4.8.7 1.2 1.2.3.4.3 1 .7 1.6.4.5 1.4.5 1.8 1 .3.5.3 1.3.6 1.9.3.5 1 .8 1.3 1.4.3.5-.1 1.5.2 2s1.1.8 1.5 1.3c.3.5.7 1.1 1 1.6s.1 1.3.4 1.9c.3.5 1.3.8 1.5 1.3.2.6.4 1.2.6 1.8s.2 1.3.3 1.9c.2.6.2 1.2.3 1.9.1.6.3 1.2.5 1.8s-.1 1.3.1 1.9.5 1.2.6 1.8.8 1.1.9 1.7-.4 1.3-.4 1.9c.1.6.4 1.2.5 1.8s0 1.3.1 1.9.8 1.2.9 1.8-.4 1.3-.4 1.9.3 1.3.2 1.9-.1 1.3-.1 1.9c-.1.6-.2 1.2-.3 1.9-.1.6-.4 1.2-.5 1.8s.3 1.4.2 2c-.2.6-.5 1.2-.7 1.8s-.2 1.3-.4 1.9-.7 1.1-.8 1.7c-.2.6-.5 1.2-.6 1.8s-.6 1.2-.7 1.8.5 1.4.3 2-1.1.9-1.4 1.5c-.2.5.2 1.2 0 1.7-.1.5 0 1 0 1.6 0 .5-.3 1-.2 1.5s.3 1 .7 1.4c.3.3-1.1-.8-.9-.4.4.5 1.1.7 1.3 1.3s.4 1.2.5 1.8-.4 1.2-.5 1.8-.1 1.2-.4 1.7-.9.7-1.4 1.1c-.6.5-.8 1.1-1.1 1.4-.5.5-.8.8-1.2 1.3-.3.3-.7.7-1.3 1.2-.5.4-1.3.1-1.9.3s-1.1 1-1.7 1-1.2-.4-1.8-.6-1.1-.4-1.7-.8c-.5-.3-1.2-.5-1.6-1-.1-.1 1-.1.8-.2-.4-.4-1.4-.1-1.8-.4s-.6-1.1-1.1-1.2c-.5-.2-1.1.2-1.6.1-.5 0-1.1-.6-1.6-.4-.6.1-1.2 0-1.8.1s-1.1.8-1.7.9-1.2.1-1.8.2c-.6 0-1.2 0-1.8 0-.6.1-1.1.5-1.7.6s-1.4-.6-1.9-.5c-.6.1-1 .9-1.6 1s-1.2-.4-1.8-.4-1.1-.2-1.7-.3-1.3.4-1.9.2-1-1-1.6-1.1-1.3.5-1.9.5c-.6-.1-1.1-1-1.7-1-.6-.1-1.2-.2-1.8-.3s-1.2.4-1.8.3-1.1-.5-1.7-.6c-.6-.2-1.1-.4-1.7-.6s-1.2 0-1.8-.2-1.2-.2-1.8-.4-1-.7-1.5-1c-.5-.2-1.3-.1-1.8-.4s-.8-1.1-1.3-1.4-1-.6-1.5-1c-.5-.3-1.3-.2-1.8-.5s-1.1-.5-1.6-.7c-.5-.3-1-.6-1.5-.9s-.9-.9-1.4-1.2-1-.7-1.5-1c-.5-.4-1.1-.5-1.6-.9s-.9-.8-1.4-1.1c-.5-.4-.5-1.2-1-1.6-.4-.4-.7-1-1.1-1.4s-1.3-.4-1.7-.8-.6-1.1-1-1.5-.9-.8-1.3-1.2c-.2-.6-.9-.8-1.3-1.3z" fill="#fab400"/><circle cx="593.5" cy="409.3" fill="#15433d" r="3.3"/><circle cx="610.4" cy="426.4" fill="#15433d" r="3.3"/><circle cx="623.7" cy="447.1" fill="#15433d" r="3.3"/><circle cx="619.6" cy="467.3" fill="#15433d" r="3.3"/><circle cx="606.8" cy="451.6" fill="#15433d" r="3.3"/><circle cx="595.5" cy="433.3" fill="#15433d" r="3.3"/><circle cx="579.4" cy="418.3" fill="#15433d" r="3.3"/><circle cx="567.4" cy="404" fill="#15433d" r="3.3"/><path d="m.2 459.5 1.1.8 1.3.5 1.3.1 1.4-.1 1.4.5 1.3-.3 1.4.1 1.3-.2 1.4.2 1.4-.4 1.3-.5 1.3-.3 1.2-.7 1.1-.8 1.2-.7 1.1-.9 1.2-.6.9-1.1 1.2-.7.6-1.3 1-.9.7-1.2.8-1.2.7-1.3.1-1h-.1l.1-.2.1-.1h.1l.7-.6.7-1.3.7-1.2.9-1.1.6-1.2.5-1.3.6-1.3.3-1.3-.1-1.4.1-1.4.2-1.3.3-1.4-.5-1.3.2-1.4-.2-1.4-.6-1.2-.6-1.3-.5-1.2-.6-1.2-.6-1.3-.8-1.1-.7-1.1-.7-1.3-1.2-.6-.9-.8-1 .6-.7 1.1-.9.9-.6 1.1-.6 1.3-.8 1.2-.5 1.2-.1 1.3-.7 1.2-.1 1.3v1.3 1.3l-.5 1.3.3 1.3.2 1.3-1-.5-.9-.5-1.1-.8-1-.9-1.4-.1-1.2-.5-1.2-.7-1.4-.2-1.3.1-1.3-.4-1.4.2h-1.3l-1.3.3-1.4-.1-1.4.4.8 1.4.1 1.3.5 1.3.6 1.1.8 1.1.6 1.2.6 1.2.9 1 .9.9 1 .9 1.1.7.8 1.1 1.2.7.9.6 1 .3-1.1.7-1.2.5-1.3.2-1 1-.9.8-1 .8-.9.9-1.3.6-.6 1.2-1.1 1-.6 1.3-.7 1.1-.4 1.2-.3 1.2z" fill="#3f6e56"/><g fill="#ff6a36"><path d="m63.8 420.8.2-.3 1 .9.8 1 1.3.6.7 1.1.9 1 .6 1.2 1 .9.2 1.4.6 1.2.5 1.2.9 1 .8 1.2.5 1.2.5 1.2.5 1.3.9 1 .3 1.4.6 1.2.8 1 .6 1.2.4 1.3.5 1.2.9 1.1.7 1.2.5 1.2.8 1.1.4 1.3.7 1.1.5 1.3.9 1 .1 1.4.9 1.1.8 1.1.6 1.2.4 1.3.7 1.1.6 1.2.7 1.1.3 1.4 1 1 .4 1.3.7 1.1.4 1.3.6 1.3.9 1v1.4l.4 1.3.8 1.2-.2 1.4-.1 1.4.2 1.3-.1 1.4-.4 1.3-.5 1.3-.5 1.2-.5 1.3-.7 1.1-.7 1.2-.9 1-1.2.7-1.1.8-.8 1.1-1.2.6-1.2.8-1.4.2-1.2.7h-1.4l-1.3.4-1.3.1h-1.4l-1.3-.4-1.3.1h-1.4-1.3l-1.3.1h-1.4l-1.3.3-1.4-.4-1.3.3-1.3-.4-1.4.6-1.3-.1-1.3-.2-1.4-.1-1.3.4-1.3-.4-1.4.3-1.3-.3-1.3.3-1.4-.1h-1.3l-1.3-.2-1.4.1-1.3-.1-1.3.5-1.4-.1-1.3-.3-1.4.2-1.3-.2-1.3.4-1.4-.1h-1.3l-1.3.2-1.4-.2-1.3.2-1.4-.3-1.3-.1-1.3.2-1.2-.6-1.3-.3-1.2-.3-1.2-.6-1.1-.7-.2.3-.9-1.1-1.1-.8-.9-1-.9-1-.8-1.1-.8-1.1-.6-1.2-.7-1.2-.2-1.3-.8-1.2.1-1.5-.2-1.3v-1.4l.2-1.3.2-1.4.5-1.2.1-1.4.9-1.1.4-1.4.5-1.2 1.1-1 .4-1.3.8-1.1.8-1.1.6-1.3.6-1.2.9-1.1.5-1.2 1.1-1 .4-1.4.6-1.2.8-1.1.9-1 .8-1.1.7-1.2.7-1.1.6-1.3.5-1.3.7-1.2.7-1.1 1-1 .8-1.1.6-1.2.6-1.3.9-1 .5-1.3.6-1.2.9-1.1.4-1.3 1.1-1 .6-1.2.7-1.2.7-1.2.4-1.3 1.2-.9.6-1.2.8-1.1.4-1.4.9-1.1 1.1-.8.7-1.2 1.4-.5.9-1.1 1.2-.6 1.4-.5h1.4l1.2-.6 1.4-.1h1.4l1.3-.4 1.4.2 1.4.1 1.3.5 1.1.8 1.3.5z"/><path d="m52.4 436.3 1.3-.2 1.5.4h1.5l1.3.3-.8.9-.4 1.2-.9 1-.5 1.5-.5-1.6-1.3-1-.5-1.4z"/><path d="m58.1 426.3 1.6.4h1.5l1.4.3h1.3l-.6.9-.5 1.2-.8 1.1-.6.9-1-.9-.8-1.2-.7-1.4z"/><path d="m46.5 446.1h1.3l1.5.2 1.4.3 1.5-.1-.8 1.1-.5 1.2-.6 1.2-.8.8-.9-1-.5-1.4-.9-1.2z"/><path d="m40.3 455.8 1.5.2 1.5.4 1.5-.4 1.3.5-.5 1-.9 1-.3 1.4-.9.9-.9-1.1-.8-1.3-.5-1.4z"/><path d="m34.4 465.7 1.5.3 1.5.1 1.5-.2 1.2.4-.7.9-.6 1.1-.6 1.2-.6 1.4-.7-1.5-.7-1.3-1-1.2z"/><path d="m28.7 475.6 1.2.3 1.5-.3 1.5.4h1.5l-.7 1.1-.7 1.1-.8 1.2-.6 1.3-.6-1.5-1.1-1.1-.5-1.4z"/><path d="m22.7 485.5h1.3l1.4.4 1.5.1 1.5-.2-.8 1.1-.6 1.2-.4 1.3-.9 1.2-.6-1.6-1.1-1.1-.7-1.3z"/><path d="m41.1 436.2 1.7.3 1.5.3 1.5-.1 1.3.2-.6 1-.8 1-.7 1.2-.5 1.2-.9-1.2-.5-1.4-1.1-1.1z"/><path d="m47.4 426.6 1.4-.1 1.5.1h1.4l1.5.3-.7 1.2-.7 1.1-.8 1.1-.5 1.2-1-1.2-.5-1.4-.9-1.2z"/><path d="m35.2 446 1.7.4 1.4.1 1.5.2h1.3l-.3 1.1-.9 1.1-.5 1.2-.8.9-.7-1.2-.8-1.2-.9-1.2z"/><path d="m29.2 455.8 1.7.1 1.5.2h1.5l1.4.4-.5 1.2-.8 1-.8 1.1-.6 1.2-.9-1.2-.8-1.3-.5-1.4z"/><path d="m23.4 465.8 1.5.4h1.5l1.5-.3 1.3.5-.4 1.1-1 .9-.6 1.2-.5 1-.6-1.2-1.2-1-.4-1.5z"/><path d="m17.7 475.8 1.3.1 1.5-.2 1.5.1 1.3.4-.5 1.1-.9 1-.6 1.2-.6 1.2-.9-1.2-.6-1.4-.7-1.3z"/><path d="m68 445.7 1.6.1 1.5.4 1.5-.2 1.6.2-1 1.1-.5 1.2-.5 1.3-.9.8-.7-1.1-.7-1.3-.9-1.2z"/><path d="m62.2 455.6 1.5.4h1.4l1.5.2 1.5-.1-.6 1.2-.8 1.1-.9 1-.4 1.2-.9-1.2-.6-1.4-.9-1.1z"/><path d="m56.4 465.5 1.3-.1 1.5.1 1.5.6h1.3l-.7.9-.3 1.3-1.1.9-.5 1.3-1-1.2-.7-1.2-.9-1.2z"/><path d="m50.3 475.3 1.5.1 1.4.2 1.6-.2 1.2.5-.4 1.1-.8 1-.8 1.1-.5 1.2-1-1.1-.5-1.5-1.1-1z"/><path d="m44.5 485.2 1.3-.2 1.5.6h1.5 1.6l-.9 1.1-.7 1.1-.7 1.1-.6 1.2-.8-1.2-1-1.1-.7-1.3z"/><path d="m78 465.2 1.6.2 1.5-.1 1.4.3 1.3.2-.3 1.2-.7 1.1-.9 1-.6 1-.6-1.2-.8-1.3-1.1-1z"/><path d="m72.3 475.2h1.3l1.5.2 1.5-.2 1.4.4-.6 1.1-.8 1.1-.4 1.3-.9 1.2-.7-1.5-1-1.1-.7-1.3z"/><path d="m66.1 484.9h1.6l1.4.3 1.5-.2 1.7.3-.7 1.3-.8 1.1-.6 1.2-.8 1.1-1-1.2-.8-1.3-.7-1.3z"/><path d="m57.4 446 1.3.3h1.5l1.5-.1 1.6.1-.7 1.3-.9 1-.7 1.1-.6 1.1-.8-1.1-.7-1.4-.7-1.2z"/><path d="m63.2 436.1 1.5.1h1.4l1.5.4h1.3l-.3 1.2-.7 1.1-.9 1-.7 1.3-1-1.2-.7-1.3-.8-1.3z"/><path d="m51.4 455.8 1.4-.1h1.5l1.4.2 1.3.4-.7.9-.7 1.2-.3 1.3-.8.9-.8-1.1-.7-1.3-1.1-1.1z"/><path d="m45.5 465.7 1.3-.3 1.5.6 1.5-.3 1.4.4-.8 1-.7 1.1-.6 1.2-.6 1-.6-1.2-1.1-1-.8-1.3z"/><path d="m39.6 475.6 1.2.2 1.5-.3 1.5.4 1.3.1-.6.9-.5 1.3-.6 1.2-.9 1.3-.9-1.4-.7-1.4-.5-1.4z"/><path d="m33.4 485.2 1.5.3h1.5l1.5.2h1.5l-.9 1.1-.6 1.2-.7 1.1-.6 1-.9-1-.6-1.4-1-1.1z"/><path d="m73.3 455.7 1.3.2h1.5 1.5l1.4.1-.5 1.2-.9 1-.8 1.1-.5 1.3-.8-1.3-.6-1.4-1.2-1z"/><path d="m67.2 465.4h1.5l1.4.1 1.5.1 1.6.1-.7 1.3-.7 1.2-.8 1-.6.9-.8-1-.7-1.3-.9-1.2z"/><path d="m61.4 475.3h1.3l1.5.2 1.4.3 1.7-.2-1.1 1.1-.5 1.2-.5 1.2-.8.9-.7-1.1-1-1.1-.6-1.4z"/><path d="m55.4 485.1 1.3.3 1.5.1h1.5l1.3.1-.4 1.1-.7 1.1-.8 1.1-.7 1-.6-1.2-.9-1.2-.6-1.3z"/><path d="m82.9 474.9 1.6.2h1.5l1.5.1 1.5.2-.8 1.1-.7 1.1-.5 1.3-.8 1-.9-1.1-.8-1.2-.9-1.2z"/><path d="m77.3 484.9 1.3-.1 1.5.3h1.4l1.6.1-.6 1.3-.8 1.1-.6 1.1-.8 1.3-.9-1.4-.9-1.2-.5-1.4z"/></g><path d="m487.4 374.6.3-.8.7-.4.3-.8.5-.8.7-.3.9.1.6-.5.7-.3.6-.8.8.3v-.1l.8.2.9-.1.5.7.8.3.7.3.4.7.9.2.2.9.7.4.3.8.5.7 1 .1.5.9h.8.8l.6.3.5.6.8.2.5.5.5.5.6.5.4.6.8.1.3.8.8.2.3.7.6.4.3.8.6.4.7.3.1.7.2.7.9.3.1.9.9.2v.8l.4.7.3.6.8.4-.2.9.7.4-.1.9.5.5v.8l.6.5.3.6.5.6-.6 1 .1.7.2.7.7.5.3.6-.3.9.6.5.3.7-.5.8.7.6-.1.7.2.7.4.7-.4.8-.1.6.2.8.2.7.5.6-.4.8.3.7.2.7-.9.8.6.6-.1.7.5.8-.9.5.1.8.6.7v.7l-.1.8v.7l-.4.7-.2.7.4.7-.4.7-.1.7.2.7-.3.7-.1.7-.2.7-.7.5.5.9-.5.6v.8l-.4.6.2.8-.8.5.1.8-.7.5.2.8-.6.5.5 1.1-.8.3-.4.6-.1.8-.1.7-.5.6-.6.5-.6.5-.1.7-.6.4v.9l-.6.5-.1.8-.7.4-.2.7-.6.4-.5.6-.2.7-.6.4-.8.2-.1 1-.4.6-1.1-.1v1.2l-1.2-.5-.4.7-.6.5-.4.6-.5.6-1-.3-.6.4-.6.5-.6.4-.9.2-.9.2v1.2l-.9.2-.5.6-1 .2.2 1.2-.9.3-.8.1-.6.5h-.8l-.6.8-.8-.1v-.2l-.8-.5-.9.8-.8-.4-.8-.3.1-1.3-.6-.5-1.1.1v-1.2h-1.2l.1-1.1-.9-.3-.6-.6-1 .2-.5-.8-.5-.5-.9.2-.7-.4-.4-.7-.9.1-.5-.6-.4-.6-1-.1-.4-.5-.1-1h-.9l-.2-.9-.8-.1-.2-.9-.4-.5-.4-.7-.9-.2-.3-.7-.5-.4-.1-.9-.5-.4-.1-.9-.6-.4-.7-.4-.7-.5-.1-.7-.4-.5-.2-.8-.4-.6-.1-.7-.5-.6.5-1-.5-.5-.4-.6.1-.8-.8-.4-.3-.7-.1-.7.2-.9-.6-.5-.3-.6v-.8l.3-.7-.6-.6-.5-.7.3-.7v-.8l-.2-.7-.2-.6-.5-.6.6-.9-.4-.6-.4-.7-.4-.7.4-.7.2-.7-.6-.7v-.7l.5-.7-.7-.7.4-.7v-.7l.5-.7-.3-.8-.1-.6v-.8l.6-.6-.3-.8.7-.6.2-.7-.4-.7.2-.7.4-.7-.3-.8.4-.6v-.7l.2-.6.8-.5-.4-1 .6-.5.6-.6-.1-.7.5-.5.4-.6-.2-.9.7-.5.3-.6.3-.6-.1-.9.8-.4-.2-.8.3-.7.5-.6.3-.6.2-.7.9-.3.6-.4.3-.7.4-.6.4-.6.4-.5.7-.4.1-.9.9-.1-.2-1.1.9-.3h.9l.1-.9h.9l.5-.6.6-.3.3-.8 1 .1.5-.6.3-.7.8-.3.5-.5h.8l.7-.2.8-.4.4-.9z" fill="#fab400"/><path d="m531 327.2-2.3.1-2.4-.2-2.4-.5-2.4.8-2.3.1-2.4-.7-2.4.3-2.4-.3-2.3.2-2.4.2-2.4-.4-2.3-.1-2.4.7-2.4-.7-2.4.2-2.3.4-2.4.2-2.4-.9-2.4.4-2.3.2-2.4.3h-2.4l-2.4-.2-2.3-.7-2.4.8-2.4-.2-2.4-.5-2.4.1-2.3.4-2.4-.4-2.4.3-2.4-.2-2-.5-.2-2v-1.4-2.2l2.2-.4h2.4l2.4-.2 2.3-.3 2.4.2 2.4.4 2.4-.2h2.3 2.4l2.4-.3 2.4.7 2.3-.2 2.4.2 2.4-.4 2.3-.4 2.4.1 2.4.8 2.4-.6 2.3-.2h2.4l2.4-.1 2.4.9 2.4-.5 2.3.4 2.4-.4 2.4.2 2.4-.2 2.3-.4 2.4.2 2.4.6 2.4-.1 2.4-.1 2.3-.6 2.1 1.1.7 2-.1 1.4-.6 2z" fill="#e2ded7"/><path d="m98 240.8 1.5.9 1.4 1.2 1.4 1.2 1.5 1 1.9.5 1.3 1.4 1.7.8 1.2 1.3 1 1.6.1 2 .3 1.8.3 1.9.8 1.7.6 1.8.4 1.9.1 1.9.6 1.7-1.5-.7-1.5-1-1.5-1.1-1.6-.8-1.2-1.4-1.7-.7-1.5-1-1.6-1v-1.8l-.5-1.7-.5-1.7-.2-1.7-.9-1.6-.1-1.8-.8-1.5-.1-1.8-.4-1.7z" fill="#ff6a36"/><path d="m109.6 287.3 1.9 1 1.3 1.3 1.3 1.3 1.8.5 1.5.9 1.4 1.1 1.3 1.4 1.8.7v2l.4 1.8 1 1.7.7 1.8-.3 2 .9 1.7.6 1.9.2 1.8.6 1.9-1.5-.9-1.4-1-1.6-.7-1.5-.8-1.4-.9-1.5-.8-1.5-.9-1.6-.8-.5-1.9-.1-1.8-.1-1.9-1.1-1.5-.4-1.8-.2-1.8-.4-1.8-.7-1.7-.3-1.8z" fill="#ff6a36"/><path d="m121.1 330.9 1.6.9 1.5 1.1 1.3 1.3 1.3 1.4 1.7.7 1.4 1.2 1.7.9 1.4 1.2.6 1.8.1 1.9.5 1.7.7 1.7.2 1.8.5 1.8.3 1.8.6 1.7.1 1.8-1.5-.9-1.6-.9-1.8-.6-1.4-1.2-1.6-.9-1.6-1-1.5-1-.7-1.7-.2-1.9-.2-1.9-1-1.7.1-1.9-1.1-1.7.1-2-.4-1.8-.3-1.9z" fill="#ff6a36"/><path d="m132 374.3 1.3 1 1.5 1.1 1.4 1.1 1.5 1 1.7.7 1.3 1.3 1.6 1 1.2 1.3.6 1.6.6 1.9.2 1.8.5 1.9.8 1.7.2 1.9.5 1.9.8 1.7.5 2.1-1.5-1.3-1.5-.8-1.4-1-1.8-.3-1.4-1.1-1.3-1.1-1.4-.9-1.6-.7-.5-1.8-.2-1.8-.5-1.8-.9-1.7-.4-1.8-.1-1.9-.4-1.8-.4-1.8-.8-1.7z" fill="#ff6a36"/><path d="m143.8 419.7 1.3.9 1.3 1.1 1.4 1 1.7.7 1.1 1.4 1.5.9 1.6.6 1.5 1.1v1.9l.9 1.6.3 1.7.5 1.7-.2 1.9.6 1.7.7 1.6.4 1.7.2 1.8.4 1.7-1.2-1.2-1.7-.7-1.6-.7-1.4-.9-1.1-1.5-1.5-.9-1.3-1.1-1.8-.5-.1-1.9-.6-1.7-.2-1.8-.6-1.7-.4-1.8-.2-1.7-.7-1.7-.2-1.8-.4-1.8z" fill="#ff6a36"/><path d="m46.9 192.2 1.9-1 1.8-.4 1.8-.5 1.8-.5 1.7-.8 1.7-.8 1.7-1.1 1.6 1 1.5.7 1.6.8 1.4.9 1.6.8 1.7.3 1.6.8 1.5.7 1.4 1.1 1.7.5-1.6 1-1.9.5-1.6.8-1.9.3-1.7.9-1.8.4-1.6.9-1.6-.6-1.6-.7-1.5-.8-1.4-1-1.7-.4-1.6-.6-1.5-.9-1.5-1-1.7-.4z" fill="#ff6a36"/><path d="m82.7 208.2 1.7-.7h1.9l1.6-.7 1.7-.5 1.5-1.1 1.7-.2 1.3 1.2 1.5 1 1 1.4 1.2 1.4.9 1.5 1 1.5.8 1.6.6 1.6.8 1.6.9 1.6.2 1.7-1.7-.4-1.8-.1-1.7-.4-1.8-.2-1.7-.1-1.7-.6-.5-1.7-.9-1.7-1.3-1.4-.9-1.7-1.3-1.4-1.5-1.1-1.8-.9z" fill="#ff6a36"/></svg>