<svg xmlns="http://www.w3.org/2000/svg" viewBox="0 0 1919.23 944.92"><defs><style>.cls-1{fill:#fc9f5b;}.cls-2{fill:#1a1a1a;}.cls-3{fill:#466ea6;}.cls-4{fill:#fff;}.cls-5{fill:#4aa090;}.cls-6{fill:#5cb66b;}.cls-7{fill:#cec84d;}.cls-8{fill:#cbe7f2;}.cls-9{fill:#068466;}.cls-10{fill:#fffffc;}</style></defs><g id="Layer_2" data-name="Layer 2"><g id="Elements"><path class="cls-1" d="M1341.85,60.66c-73.5,262.51-41.31,191.47-53.38,272-1.43,9.56-1.3,12.33-5.67-60.17C1275,142.76,1242.43,86.37,1236.35,56c-.38-1.89-5.22,13.63-5,72.68.22,75.44,8.64,103.85,29.74,187.24-16.27-18.57-25.42-29.76-45.32-39.48-27-13.15-74.64-11.34-83-9-13.18,3.71,30.36-2.29,74.4,32.83,33.86,27,25.78,36.76,51,53.86,16,10.85,3.14,8.32,61.81,7.58,77.72-75.82,174.59-115.18,174.59-124.1,0-4.82-33.61,6.6-66.9,22.73-70.73,34.28-114.61,94.95-84.71,50.42,3.25-4.84,76.67-131.28,126.32-184,30.63-32.5-111.26,73.57-157.9,193.34-10.63,27.3-3.6-1,.16-12.12,5.78-17,13-49.12,25.13-98.85,13.89-56.74,14.87-64.36,14.62-114.1C1350.87,12.31,1347.93,38.92,1341.85,60.66Z"/><path class="cls-2" d="M1215.48,333.78c-.18.51-8.54,145.47-3.5,218,3.17,45.58-6.15,93.58-4.08,95.65,1.15,1.15,47.91-2.3,139.42-5,3.94-19.39-1-5.35,5.7-57.67,16.43-128.61,11.92-194.84,19.93-253.67C1235.29,331.05,1216.14,332,1215.48,333.78Z"/><path class="cls-2" d="M1307,32.06c-13.57,53-34.78,119.48-23.94,212.09,2,17.35,3.43,81.86,1.9,87.68a1.77,1.77,0,0,0,1.72,2.34c11.06,0-3-107.75-.86-154.73C1289.11,106.16,1308.4,47,1309.49,46c4.44-4.39-3.94,255.66-12.75,278.68-1,2.5,3.23,5.46,5.09,3.6,8.08-8.08,22.73-300.11,9.54-302.44C1307.86,25.18,1307.37,32.06,1307,32.06Z"/><path class="cls-2" d="M1329.68,268.53c-12.4,36.57-24,59.12-24.21,65.18-.12,3.33,4.71.78,5.62-3a63.34,63.34,0,0,1,4.19-10.63c31.81-63.63-1.35-32.41,82.3-160.21,8.08-12.34,30.94-38.36,32.42-36.88.67.67-2.66,7.35-4.38,8.78-11.57,9.61-71.4,152-94.4,180.18-9.19,11.25-10.16,13.6-5.63,13.6,18.75,0,78.5-148.94,105.1-189.9,10.76-16.57,27.91-45.86,27.91-47.67C1458.6,73.45,1356.09,190.64,1329.68,268.53Z"/><path class="cls-2" d="M1190.62,157.56c1.17,15,5.53,33.66,7.59,32.44,1.11-.66,1.11-.24,0,1.16-1.87,2.41-1.33,6.1,5.74,39.08,8.13,38,8.22,14.88,8.59,28.44.45,16.4,23.43,41.16,32.84,58.22,13.8,25,15.34,11.25-5.78-17.34-5-6.73-6.76-8.2-8-6.57s-1.36,1.49-.63-.7c1.47-4.42-6.87-11.87-6.87-14.15,0-1.54-16.56-37.43-17.08-56-.2-7.1-6.13-8.26-3.32-9.3,2.26-.83-7.86-47-9.3-48.27-1.25-1.11-1.09-40.59.16-40.59s5.41,33.31,12.29,43c5,7,13.59,48.15,29.08,83.62,23.24,53.18,32.16,91,38.18,92.64,3.75,1,5.4-3.22,2.55-6.52-2.07-2.41-10.36-22-10.36-24.54,0-8.48-32.2-75-43.74-116.29-7.36-26.29-15.92-39.95-20.34-61.89C1194.78,96.72,1185.05,85.85,1190.62,157.56Z"/><path class="cls-2" d="M1255,331.2c-2.29,2.29,3.59,6.34,3.59,1.41C1258.54,330.11,1256.74,329.41,1255,331.2Z"/><path class="cls-3" d="M1338.17,334.41c-.08,4.76-12.26,173.55-7.81,176.3,3.2,2-1.85-2.69-1.26,25.4,1.17,56.56-5,91.21-1.79,97.29,2.42,4.52-.81,1.56-1.17,6.33-.17,2.19.68,3.13,2.81,3.13,2.84,0,3.07-1.33,3.28-19.15.86-69.74,4.46-121.3,4.46-30.32,0,56.57-2.71,49.47,7.34,49.47-1-100.49-2.91-217.84-1.09-238.35,7.54-84.81,8.37-71.07-1.17-73.62C1335.78,329.29,1339.35,334.41,1338.17,334.41Z"/><path class="cls-3" d="M1236.35,646.3c2.58,2.58,8.57,0,7.23-3.13-1.7-4-.31-12.82-2.54-12.82-2.06,0,4.52,9,.69-89.08-1.82-46.7-.19-206.38-2.73-208.24-2.81-2-6.67-1.2-7.34,1.61C1232,334.64,1233.21,643.16,1236.35,646.3Z"/><path class="cls-3" d="M1266.82,645.44c.44.39,3.21.26,6.33-.32,13.7-2.5-4.45.46,4.85-200,1.67-36,3.4-43.81.86-45.4-1.41-.88-1.43-1.45-.08-2.27,2-1.18,2.34-23.47,3.36-65.64-7.89,0-7.73-.46-9.06,7-.45-6.75-1.24-7-3.44-7C1259.7,331.83,1266.44,645.09,1266.82,645.44Z"/><path class="cls-3" d="M1302.23,333c-8.48,127.58-4.49,302.87-3.68,302.56,3-1.12,2.94,2.61-.15,2.61-2.23,0-5.58,4.69,4.14,4.69H1309C1304.29,285.6,1335,333,1302.23,333Zm4.29,64.86c-.83,4.71-.83-11.74,0-7C1306.72,391.93,1306.92,397.86,1306.52,397.86Zm-1.25,45.88c-1.68,25-2.25-9.84-.93-36.11C1306.18,429.46,1305.66,443.74,1305.27,443.74Z"/><path class="cls-2" d="M1304.65,636.07c-64.14,8.11-78.93,5.41-78.93,10.23,0,3.67-8.61,5.77-5.08,9.3,5,5,38.95-9.23,97.14-2.44,21.57,2.51,28.29,2.14,28.29-1.55,0-1.48-5.32-2.6-19.7-4.14-27.06-2.9-15-4.81-1.4-4.6,18,.28,19.53.09,19.53-2.36C1344.5,635.79,1331.07,636.07,1304.65,636.07Z"/><path class="cls-2" d="M1354.51,326.78c-1.59,4.16,20,12.31,19.55,12.74-1,1.1,3.22,5.28,1.75,4.41-.06,0-19,5.36-20.06,5.42s-44,4.06-44,2.06c0-4.52-83-9.47-83.7-8.33-1.81,2.87-5.47-2.59-5.47.37,0,1-.25,1-.8.21-1.35-2-9.33-.56-10.44-1.7-5.59-5.71,28.81-11.15,30.56-11.78-14.76-5.05-28.87.35-28.87,1.49,0,.74-.29,1-.69.58-1.08-1.07-4.62,3.3-4.62,2.07,0-3.77-3.88,6.35-4.57,7.48-6.34,10.43,81,13,81,11.84,0-.85,11.81,4.29,48,5.94,21.83,1,43.18-9.06,44.32-8.36,3.52,2.18,5.75-5,6.9-5.43,5.15-1.94-9.87-16.16-12.21-14.76-.58.35-1.06.11-1.06-.53,0-1.77-1.65.6-2.65-1.06-.68-1.14-5.54-4.31-4.14-2,1.73,2.94-6.93-5.52-8.78-.69Z"/><path class="cls-4" d="M223.18,722.15c-1.1,29.62-3.22,121.62-19.1,147-15.75-.53-41.73-1.09-63.38-4-30.55-4-58.72-3-61.06-5.35-3.24-3.24-23.79-147.28-19.56-145.69C60.4,714.3,198.56,722,223.18,722.15Z"/><path class="cls-5" d="M79.23,510.22c15.4,12.35,41.32,55.9,44.89,63.5,35.14,74.93,17.43,234.37,35.94,89.64,10.48-81.86,49.77-133.94,50.54-133.2,1,1,7.21,22.49,11.14,38.79,13.62,56.56,7.37,62-16.84,121.19-30.45,31.24-30.58,32.08-37.25,33.34-8.5,1.6-49.73,2.44-53.09,1.08-5.1-2.06-12.5-11.28-30.73-22.49-18.92-11.63-29.76-26.42-48.31-41.28-20.26-16.23-21.58-24.1-32.42-35.55-16.66-17.6,56.57,22.26,80.5,42.35,6.82,5.72,37.35,36.13,47.73,49.32-1.53-6.11-3.3-9-9.17-17.58-21-30.86-46.83-97.45-50.51-132.94-1.41-13.62-1.72-61.93-.39-61.86C72.31,504.58,79,510.22,79.23,510.22Z"/><path class="cls-2" d="M76,515.23c10.23,30.53,10.2,39.34,13.16,27.76,1.79-7,4.09-9.73,5.36-6.4,1,2.71-4.23,16.53-5.37,19.79,4.14,12.27,2.52,7.45,6.64,19.67,7.24-16.17,9.76-24.72,12.44-20.37.66,1.08-7.86,22.47-10,25.15-.88,1.09,6.24,26.65,7.91,28.4C109.26,612.47,116.24,579,119,579c5.88,0-6.63,30-10.36,36.91,7,21,8,22.1,8.47,21.65,5.37-5.49,10-35.5,13.47-26.54,1.44,3.71-9.73,30.63-11.58,35.27,7.75,19.7,5,19.92,13.85-8.85.87-2.82,3.4-.58,3.15,2.8-.35,4.7-7.8,25.46-7,28.87.94,3.9,15.47,40.51,18.2,45.86,2.91,5.71,3.07,7.22.77,7.22s-6.43-8.26-13.5-26.66c-9.48-24.68-9.77-25.21-15.6-28.62-6.87-4-7.52-8.89-.7-5.24,2.93,1.56,2.88,1.27-1.2-8.63-3.38-8.2-3.69-8.54-14.51-15.77-6.06-4.05-11.06-7.82-11.06-8.33,0-6.15,18.4,8.84,19.32,7.92.31-.3-6-19.46-6.52-21.19-8.86-5.38-15.13-9-15.13-11.29,0-2.76.58-2.68,6.75,1,6.73,4,5.11,3.92.52-11.74-3.7-12.65-4.84-14.12-14.37-19.2-10.72-5.73-8.52-9.71,1.74-4,7.35,4.06,7.27,4.16,3.84-5.82-2.31-6.75-3.28-8.15-7.21-10.39-5.94-3.39-6.94-6.1-1.87-5s4.18,1.91-2.74-20.42C68.93,506.71,68.91,494,76,515.23Z"/><path class="cls-2" d="M208.92,645.67c-1.38,10.06-4.19,18.62-11.94,36.43-18.21,41.87-33.13,45.3-28.53,39,38.17-52.19,37.1-79.16,38.28-110.71,1.66-44.48,4.65-79.26-2.23-49.94-7.86,33.5-8.19,62.25-12.53,83.36-1.07,5.22-20.9,79.41-31.66,80.46-4.6.45-4.58.67-1-17.83,14.95-76.49,27.08-129.1,34.08-147.85,2.14-5.7,15.69-28.52,17-28.52C216,530.07,210.67,632.93,208.92,645.67Zm-17.26-65.78c-13.5,49.11-17.24,76.49-26.34,118.34-9.07,41.69,6.83-.82,19.37-42.43,8.16-27.11,6.18-56.26,15-93.83C208.36,524.92,191.14,579.89,191.66,579.89Z"/><path class="cls-2" d="M12.3,636.6c20.33,28,108.79,97.86,115.74,86.84,1.22-2,7.6,1.08,7.6-1.28,0-1.79-6.63-8.26-10.48-10.19-4.89-2.45,15.38,4.38-22.46-18.91C66.77,670.94,9,620.88,1.34,620.88-2.62,620.88,2.54,623.13,12.3,636.6Z"/><path class="cls-1" d="M92,718.83c5.73,5,2.45,4,7.86,9.78,5.58,5.93,8.83,2.45,8.32,1.22-.32-.77,1.06-3.84,3.08-6.86,3.36-5,4.07-5.48,8.33-5.48,3.72,0,4.52.35,4,1.75-.65,1.7,10.21,15.35,12.42,15.62,1.48.18,11.43-16.2,14.9-16.2,7.54,0-11.75,16.3-11.75,18.28,0,.77,18,20.3,17.69,20,20.93-25.72,20.75-18.91,2.79-37.14,16.41,0,14.21-.66,21.66,6.41,3.45-5.18,4.69-5.24,5.7-5.24,2.76,0,2.73.58-.22,4.77l-2.46,3.49C203,749,208.73,753.58,209.21,753.58s3.32-3.61,6.63-8.15c7.55-10.35,7.07-10.39,6.75-1.92-.5,13.41-11,13.84-3.72,20.7,2.15,2,2.91,4,2.91,7.65,0,11.28-1.39,8.76-13.74-3.38-1.12,1.32-17,19.78-17.52,21.31-.67,1.9,12.75,17.19,15.19,17.3.45,0,3.34-3.22,6.4-7.18,9.1-11.75,8.77-11.52,8-5.7-.88,6.26-5.11,11.07-10.17,17.81,4.92,5.07,7.64,7.64,6.81,9.72-1.42,3.62-7.86-6.46-10.06-6.46-.78,0-9.27,9.78-10.92,12.57-1.8,3.06,17.79,18,16.27,21.89-.91,2.34-3.8-.87-19.91-16.88l-11.87,15.72,18.28,19.67c-8.79,2.4-9.14,3.59-23.87-14.79-7.37,6.77-14.76,14.21-18.51,14.21-5.43,0-4.44-.33,13.39-18.28-9.24-10.58-14.6-16.65-15.37-16.65-1.19,0-2.27,3.37-19,21.07,12.29,12.52,13.31,13.06,9.19,12.17-6.78-1.47-17.15-14.78-4.65-.29-12-2.26-11.52-5.88-12.78-3.84-.87,1.39-11.09,1.5-11.09.11,0-.52,1.28-2.13,2.91-3.66,4.43-4.17,5.09-1.68-16.18-23.35C83,856.39,83.18,852.61,83.85,853.7c2.76,4.44-11.73,8.54-1.44-2.33,4.64-4.89,12.79-14.49,17.14-19.56l-20.26-19c-7.57,7.45-7.68,8.06-7.68,4.77,0-3.61,4.2-7.31,4.77-7.92-4.39-5-7-7.29-7.8-13.79-.93-7.5-2.4-7.3,5.88.76l6.58,6.4c11.4-13.31,11.74-15.72,17.81-21.36,2.33-2.17,4.19-4.52,4.19-5.3,0-1.4-12.85-14.67-14.2-14.67s-20.12,28.43-22,23.63c-3.21-8.06,1-8.23,17.59-30C59.6,731.7,60,732.77,60,727c0-9.87-3.63-6.39,29.33,22.53,4.91-5.51,11.41-12.75,11.41-13.62,0-1.19-16.29-18.6-16.32-19.79C84.31,712.65,91.69,718.83,92,718.83Zm16.88,18.28c0,.74,8.15,10,8.15,11.41,0,.53,1,1.63,2.15,2.38,1.88,1.22,2.86.59,7.57-4.88,8.13-9.45,7.19-6-6.46-21.77C113.44,731.63,108.44,737.11,108.86,737.11Zm51.22,23.22c0,1.4,23.17,24.68,24.56,24.68s16.49-19.9,16.65-21.77c.06-.77-5-6.63-11.36-13.15-13.15-13.47-12-13.5-23.21.7C166.44,750.79,160.08,759.48,160.08,760.33Zm-29-13.5c-8.07,9.35-10,7.57,6.09,24,6.43,6.56,5,9.39,17.34-10.24-7.79-8.05-18-18.63-18.62-18.63A33.85,33.85,0,0,0,131.06,746.83Zm-36.52,7.22c-.13.32,2.86,4.07,6.57,8.26,7.63,8.62,7.63,8.62,13.62-.7,3.15-4.88,3.46-6,2.19-7.68-2.53-3.37-10.83-12-11.55-12C104.39,741.94,94.79,753.41,94.54,754.05ZM117,765.86c-6.88,9.31-6.2,7.38,12.57,27.65,11.52-13.67,11.79-11.26,3-20.84-10.31-11.26-8.67-13.27-10.49-13.27C121.84,759.4,116.72,765.86,117,765.86Zm29.1,13.57c16.11,18.67,22.68,25.37,23.4,25.37,1.25,0,13-15.88,12.8-15.6-16.28-16.12-24.06-23.75-24.85-23.86C156.35,765.19,145.9,779.71,146.11,779.43ZM84.3,806.9c17.91,15.84,19.9,18,21.94,16.3,1-.84,5.58-6.41,10.25-12.46,9.67-12.52,9.84-10.48-1.95-23.63l-7.19-8A165,165,0,0,0,84.3,806.9ZM137.67,790c-6.78,9.4-8,4.53,16.71,31.43.28-.28,11.52-10.9,11.52-12.51,0-1.39-21.63-25.07-22.53-25C142.29,784,137.38,790,137.67,790Zm36,19.67c7.62,6.74,8.37,7.37,16.41,14.9L202,811c-2.75-3-10.17-10.79-12.46-14.08-2.49-3.58-2.28-3.59-9.72,5.41C179.53,802.3,173.46,810,173.7,809.69Zm-52.5,1.52c-8.63,11.44-7.69,6.42-7.69,9,0,1.55-3.49,5-5.82,7.45,22.45,24.24,18.84,24.43,31.88,10.94,5.53-5.7,10-10.88,10-11.52,0-1.51-20-23.18-21.53-23.3C127.13,803.66,120.91,811.21,121.2,811.21Zm37.72,14.32c0,1.63,14.79,17.69,16.29,17.69,1.06,0,10.37-11.29,11.33-13.74C187.19,827.82,173.23,813,171,813,169.09,813,158.92,824.73,158.92,825.53Z"/><path class="cls-2" d="M228,713c.54.62,1.87,30.43,1.92,31.44-6.06,6.06-6.61,7.19-10.83,6.36-14.47-2.86-12.87-27.15-18.72-11.84-10.47,27.43-32.15-3.24-32.15-7.33,0-2.84-2.12.12-2.84,4a21.44,21.44,0,0,1-4.32,8.15c-3,3.45-4.31,4.07-8.5,4.07-14.82,0-19.64-29.62-21.93-15.6s-19.59,21.37-33-1.51C89.18,716.33,95,742.3,80,746.5c-22.5,6.29-29.69-33.75-27.53-37.27C54.46,706,227.55,712.43,228,713Z"/><path class="cls-2" d="M62.33,733.46c.07.85,1.89,3.78.37,5.3-.26.25.08,1,.71,1.66,1,1.05,1,1.31-.24,2.25s-1.35,1.07-.08,1.11c1.66,0-.58,26.13-1.5,26.13-3.56,0,5,1.6.27,9.33-.36.58-.19,1,.44,1,1.53.06-.16,41.06.67,40.88,1.44-.32,3.47,28.6,3.48,29.45.17,15,2.3,13,6.29,13,6-.06,80.14,10.94,80.45,9.41.25-1.28.39-1.26,1.78.16,2.32,2.39,2.75-2.59,5.85.51.71.72,1.18.72,1.89,0,2.35-2.35,12.7,1,13,.79,1.82-1,5.9-1,7.11,0,.76.6,1,.5,1-.37,0-2,22.83,2.58,21.94-15.18-.09-1.82,4-1.48,2.06-3.4-.93-.9,6.78-27.77,5.93-28.15s-.88-.56,0-.95.83-.71.12-1.58c-1.62-2,1.12-.18,1.89-2.29.69-1.87-2.28-.61-1.38-2.1.47-.77,1.78-19.64,3.4-19.64,1,0,1.07-.13.2-.68-2.43-1.52,3.33-35,2.49-35.58-2.49-1.63.44-9.2.16-9.41-3.35-2.56,2.51-5.73.55-5.73-2.78,0,1-7.67,2.84-4.19,2,3.79-1,51.51-1,53.14.61,43.67-8.08,29.9-4.45,34.31,2.42,2.95-1.75,5.62-1.16,8.06.3,1.27.16,2-.4,2s-.62.32.08,1.19c1,1.22-.43-1.09-2.82,12.25-7.36,41.29-44.61,18.14-141.08,13.18-20.56-1.06-18.55-111.19-16.84-111.21s-1-27.49-.12-28.27S62,729.73,62.33,733.46Z"/><path class="cls-2" d="M1042.52,233.52c-17.5,62.48-22,106.8-24,238.1l-1.33,84.61c20.46,94.18.57,70.79,97.9,106,38.2-42.84,140-187.79,146.51-198.91s-110.37,68.61-162.48,151.76c-33.35,53.2,16.86-92,94.26-216.71,20.25-32.63,32.53-50.71,12.2-33-9.26,8.09-61.72,45.13-89.51,94.63-59,105.17-60.17,244.54-54.73,100C1077.58,128,1103.55,15.6,1042.52,233.52Z"/><path class="cls-2" d="M1077.42,126.36c-12.51,20.71-26.71,112.08-33.74,150-12.27,66.13-11.84,226.72-18.79,286.57-2.16,18.63,2,132.54,13.33-114.61,8.13-177.14,6.3-116.09,30.89-274,7.64-49.13,12-29.79,11.25-44.84C1079.85,119.05,1078.19,126.39,1077.42,126.36Z"/><path class="cls-2" d="M1104.74,511.54c-.06,1.51-30.67,39.49-42.12,97-4.29,21.57-3.84,18-3.62-2.56-7.49,15.53-15.94,35.54,1.27,36.24,2,.09,18.17-47.63,23-57.19,70.39-140.84,20.64-42.43,112-189.56C1274.43,268,1105.19,500.44,1104.74,511.54Zm64.71-80.94c-.17,4-8.73,4.83-4.38-.17C1168.4,426.59,1169.63,426.06,1169.45,430.6Z"/><path class="cls-2" d="M1105.67,632.87c-13.92,21.15-14.19,23.77-2.47,24.25,13.74.56,33.83-60.65,109.45-134.83,22.55-22.11,49.89-55,47.29-56.93C1259.42,465,1160.83,549.08,1105.67,632.87Z"/><path class="cls-6" d="M1041.27,618.52c-.93,39.27.91,36.12,10.69,36.52,10.64.43,10.13,1.29,15.21-25.71,1.92-10.23,4.85-19.52,6.53-20.79,5.94-4.44,10.34-72.82,36.07-213.27,16.63-90.78,22.76-135.5,24.52-178.86,1-24.3-2.32-94.93-4.66-99.55C1125.6,108.92,1047.73,348.18,1041.27,618.52Z"/><path class="cls-6" d="M1031,150.14c-48.28,168.21-72.31,501.1-5.57,503.82,10.06-247.4,35.23-535.95,16.34-536.72C1040.24,117.17,1031.58,150.16,1031,150.14Z"/><path class="cls-7" d="M1202.67,271.18c-61.38,90.5-91.18,203.88-113,315.2-11.9,60.71-22.5,67.08-6.3,67.74,14.31.58,20.57-6.18,30.89-33.4,3-8,69.1-210.83,79.16-247.27,6.28-22.77,27.66-124.17,26.45-125.48C1218.9,246.92,1203.2,271.2,1202.67,271.18Z"/><path class="cls-2" d="M940.37,578.33c-5.93,62.21-11.43,134.27-1.13,207,4.51,31.87-.17,32.83,47.77,29.47,39.48-2.77,146.32-3.92,150.43-7.31,5.66-4.65,30.72-160.91,35-181.57,8.38-40.17,1.07-44-7.88-49.07-12.52-7.09-164.77-19.09-178.25-12.46C986.9,564.43,981.34,567.51,940.37,578.33Z"/><path class="cls-2" d="M1045.68,651.71c1.65,4.92,6.93,4,8.29-1.42,6.16-24.72-6-50.6,41.41-310.44,11.59-63.45,49-276,28.69-213.34C1124.61,126.53,1031.46,609.32,1045.68,651.71Z"/><path class="cls-2" d="M1041,120.06c-6.94,16-14.15,104.05-16.81,103.94s-5.34-13.38-8.33-13.5c-3.82-.16-2.38,13.5,2.56,24.23,5.05,11,5.88,21.43,2.36,29.49-1.62,3.71-2.24,3.42-6.54-3.12-4.46-6.76-8.68-7.66-8.92-1.9-.17,4.16,22.22,32.93,12.06,32.52-4.38-.18-14.64-23.08-15.22-8.74-.39,9.68,14.77,14.3,14.18,28.87-.46,11.26-2.06,10.18-10.3-.31l-6.67-8.49c-1.48,26,14.53,17.8,13.45,38.82-.77,14.86,2.91,13.75-16.71-12.63-.53,9.43-1.8,12.28,7.37,23.66s8.16,10,4.36,33.18c-12.74-17.11-14-19.23-16.23-15.57-6.47,10.61,17.22,18.11,16.54,34.78-.64,15.91-5.2,7.62-19.35-9.45-.64,15.53-.59,14,15.57,32.44,0,.54,1.3,190.21,9.88,193.87,4.67,2,4.8,7.1,1.37-55.23C1004.93,372.81,1056.59,84.1,1041,120.06Z"/><path class="cls-2" d="M1214.65,254.34c-3.29,3.9-21.2,47.17-39,94.26-1.67,4.41-8.17-19.53-8-19-10.5,27.71,9.28,17.07-4.81,59-8.77-21.77-10.67-28.13-13.58-18.76-.88,2.81.9,9.69,4.62,18,5.73,12.73,5.88,14,3,25.56-4.82,19.11-5.92,19.29-11.93,1.93-3.85-11.13-6.17-15.11-7.59-13-8,11.7,13.19,31.24,7,58.74-4.4,19.51-4.07,22.52-13.46,2-6.94-15.2-7.57-15.91-9.23-10.46-2.21,7.3,4.27,18.56,14.6,40.29-17,71.84-29.61,143.48-28.9,144.25,6,6.47,31.59-125.63,36.69-141.08.67-2,3.22-4.22,5.66-4.89,4.65-1.27,12.65-10.8,10.8-12.87-1.69-1.87-10.75,3.9-11.92,2.48-.46-.57,1-8,3.31-16.64,3.8-14.33,4.81-15.91,12.07-19,4.47-1.91,8.78-5.52,9.88-8.26,1.93-4.78,1.84-4.81-6-1.88a90.59,90.59,0,0,1-8.57,2.94c-.93,0,8.41-34.1,10-36.45,3.1-4.58,19-2.71,19.4-12.15.17-4.23-2.86-1.84-17.17,1.28,6.89-23.6,6.39-26.13,17.7-33.39,5.41-3.47,9.83-7,9.86-7.82.22-5.28,7.62-11.65-4.52-4.79-12.94,7.31-13.37,10.79,4-32.74C1229.67,233.64,1219.38,254.53,1214.65,254.34Z"/><path class="cls-6" d="M1078.61,803.27c-48.92,5.22-117.54-5.87-130,4.39-28.85,23.72-12.64,9.24,159,8.55,38.91-.15,31.93,2.93,34.58-11.64C1072.77,800.84,1087.79,803.65,1078.61,803.27Z"/><path class="cls-1" d="M935.57,621.64c2.74,4.71,70.25-9.9,72.46-6.14,1,1.63,145.73,2.68,145.8,1.09-.07,1.57.38,1.66,2.07.38,1.54-1.16,2.43-1.15,3.13,0s1.58,1.21,3.12.05c20.43-15.44,18.31,16.08,6.11-5.56C1167.34,609.88,925.35,604,935.57,621.64Z"/><path class="cls-1" d="M1114.41,633.38c.71-17.33-253.69,31-176.76,24,1.57-.15,67.42-9.25,67.48-10.82.13-3.18,4.38,3.57,5.4.89.93-2.46,10.92.69,11-2.15,0-1.07.63-.87,1.47.5q1.39,2.29,1.47.36c.4-9.74,128.24-3,128.35-5.73s5.79,4.19,5.92.91c0-.24,19.19-.65,21.88-3.2C1192.43,626.92,1114.35,635,1114.41,633.38Z"/><path class="cls-1" d="M1023.18,662.44c-63.83-4.39-102.18,32.06-71,28.59,114.63-12.73,138.49-6.92,140.64-9.44,2.47-2.88,3-3,3.71-1,1,3,11.23,3.44,12.51.51,2.2-5.06,5.07,2.08,13.81.27,5.11-1.06,6.86-1,7.73.46s1.53,1.25,2.69-.34c3-4.07,1,2.79,7.84-.35,2.73-1.25,4.17-1.32,4.5-.19.78,2.68,6.91,2.67,7,0,.1-2.08.29-2.09,1.51-.09s1.59,2,2.82.27c2.18-3.11,2.79,1.18,6.68-2.94C1175.59,665.63,1024.77,662.55,1023.18,662.44Z"/><path class="cls-3" d="M1634.73,279.68c-141.59,199.67-170.61,340.45-172.15,515.15l4.83,4.14c5.19,4.46,16.46,5.66,22.54,2.41,7.25-3.88,5.33-14.07,75.13-93.84.39-.45,138.72-161.79,128.25-171.93-1.4-1.35-11,6.38-29.16,16.87-124.4,72-172.24,231.08-185.31,231.08-7,0-1.61-8.16,11.27-42.93C1583.32,489,1647.52,275,1645.21,268.06,1644.47,265.85,1635.17,279.68,1634.73,279.68Z"/><path class="cls-2" d="M1608.21,338.53c2.44,4.56,9.41,3.58,10.11-1.43C1619.81,326.55,1603.4,329.55,1608.21,338.53Z"/><path class="cls-2" d="M1573.1,375.38c2.26,2.33,12.9.51,19.34-3.31,19.3-11.45,8-30.53,0-30.2C1590.62,342,1571.72,374,1573.1,375.38Z"/><path class="cls-2" d="M1586.18,398.89c-9.07,7.15-6.44,21.56,3.94,21.56,8.38,0,10.37-1.61,13.47-10.91,2.39-7.15,2.54-9.48.75-11.62C1601.3,394.27,1591.37,394.8,1586.18,398.89Z"/><path class="cls-2" d="M1556.31,407.71c-4.73,3-.35,15.91,9.66,8.44C1572.87,411,1562.57,403.74,1556.31,407.71Z"/><path class="cls-2" d="M1549.51,456.73c3.58,1.21,11.8-2.49,12.67-5.69,2.66-9.84,2.9-13.34,1.06-15.56C1554.67,425.16,1542,454.2,1549.51,456.73Z"/><path class="cls-2" d="M1529.42,467.68c-3.44,4.13,6.45,12.54,10.58,4.82C1543.26,466.42,1534,462.19,1529.42,467.68Z"/><path class="cls-2" d="M1567.64,471.25c-4.5,11.78,15.41,9.32,10.65,1.61C1575.75,468.75,1569,467.73,1567.64,471.25Z"/><path class="cls-2" d="M1530.2,509.89c11.22,12.44,31.41-9.28,17.17-23.35C1532.53,471.88,1522.53,501.38,1530.2,509.89Z"/><path class="cls-2" d="M1556.31,534.93c8.59,0,14-10.14,8.41-15.74C1556.79,511.26,1535.61,534.93,1556.31,534.93Z"/><path class="cls-2" d="M1519.46,555.73c11.26,7.32,21.18-10.6,16.29-18.12C1525.14,521.31,1508.08,548.32,1519.46,555.73Z"/><path class="cls-2" d="M1481,599.5c0,3,.8,3.54,4,2.68,7.28-1.94,6.49.53,14.4-6.37,7.16-6.23,9.84-15.63,6.66-23.32-2.51-6.08-12.7-11.2-14.93-7.51C1491.6,565,1481,592.21,1481,599.5Z"/><path class="cls-2" d="M1628.4,584.21c-2.31,8.73,9.12,11.15,9.12,1.7,0-4.12-.92-5.49-3.94-5.91C1628.35,579.29,1628.9,584.21,1628.4,584.21Z"/><path class="cls-2" d="M1522.51,585.37c-5.69,5.68,3,12.23,7.6,7.6,1.61-1.61,2.77-3.29,2.77-4,0-2-4.11-5.73-6.26-5.73S1522.77,585.37,1522.51,585.37Z"/><path class="cls-2" d="M1616.14,613c1.79,1.3,4,2.41,4.74,2.41,2.16,0,5.26-7.33,4.24-10C1622.56,598.68,1608.67,607.55,1616.14,613Z"/><path class="cls-2" d="M1584.93,617.48c-8.43,10.37-8.79,11.23-6.24,15.11,8.1,12.33,27.09,5.55,30.07-10.73,1-5.54-6.33-15.38-11.49-15.38C1593.51,606.48,1585.37,617.48,1584.93,617.48Zm10.55,4.38c0,3.47-4,1.16-2.6-1.07C1595.44,616.56,1595.92,621.86,1595.48,621.86Z"/><path class="cls-2" d="M1503,627.31c-6.54,2.66,2.53,15.77,7.59,8.86C1515.16,630,1510.34,624.33,1503,627.31Z"/><path class="cls-2" d="M1608.54,637.06c-2.79,2.79-.71,8.77,3,8.77,4.12,0,7.83-4.62,6.48-8.05C1616.86,634.74,1611.29,634.32,1608.54,637.06Z"/><path class="cls-2" d="M1563.51,655.84c-11.23,12.76.54,27.63,12.84,16.42C1592.25,657.77,1570.28,648.16,1563.51,655.84Z"/><path class="cls-2" d="M1560.6,696.59c-5.18,4.72-7,11.94-4,16,2,2.69,3.1,2,9.68-6.44l7.42-9.48C1560.12,690.55,1563.24,696.59,1560.6,696.59Z"/><path class="cls-2" d="M1705.46,368.94c-155.71,160.9-236.85,365.37-220.87,381.35,8.39,8.39.73-23.71,25.82-80.31,42-94.71,107.7-200.24,196.15-293.35-3.4,6.67-8,16.73-15.59,24.68-11.09,11.65-21.22,29.12-54.26,78.17-179.2,266-146.72,303.73-140.1,271.52,15.72-76.46,149.84-274.08,187.13-330.55,44.94-68-52.07,96.42-114.3,217.69-55.51,108.15-72,120.38-62.5,120.38,10.12,0,92.68-164.59,107-190.14C1782.88,267.06,1710.9,368.94,1705.46,368.94Z"/><path class="cls-7" d="M1444.16,822.23c.44.35,90.91,2.62,85.14,2.47,0-97,40.21-61.35-85.85-77.27C1443.12,774.49,1442.87,821.2,1444.16,822.23Z"/><path class="cls-2" d="M1443.45,767.91c0,5.24,34.56,4.88,31.83,7.6-2.94,2.94-31.83,2.23-31.83,9.66,0,7.64,24.41-6.36,71.36-4.89,17.18.54,18.85.31,19.5-2.72.47-2.14-.13-3-1.7-2.5-3.6,1.2-4.38-1.6-23.16-3.09C1446.85,767,1443.45,763.38,1443.45,767.91Z"/><path class="cls-2" d="M1443.45,796.26c0,5.2,8.53,3.54,9.39,1.16,1-2.86-5.52,1.46,42,3.22,50.76,1.88,55.32-5.39-29.6-7.29C1444.7,792.89,1443.45,793.05,1443.45,796.26Z"/><path class="cls-2" d="M810,292.86a125.56,125.56,0,0,1-5.92,22.5,82.44,82.44,0,0,1-5.19,11.4,68,68,0,0,1-19.33,21.69c-2.25,1.69-4.55,3.28-6.91,4.83,0,7.87-.07,9-.11,11.82,0,1.86,0,3.77,0,5.67v3h0c-2.22.07-4.4.11-6.52.18-2.54.07-5,.1-7.44.17l-15.1.43-6.52.21c-1.73,0-3.43.07-5,.14-2.4,0-4.69.11-6.91.18-8.29.24-15.41.46-21.52.6l-6.52.1c-1.27,0-2.51.07-3.67.07-2.71,0-5.15,0-7.34,0-23.73-.14-19.22-3.14-19.57-13.19-.32-8.08-.42-9.2-3.49-10.16h0c-.42-.14-.88-.24-1.44-.38a10.61,10.61,0,0,1-2.33-.92,36.83,36.83,0,0,1-9.24-7.23,54.75,54.75,0,0,1-5.79-6.88,40,40,0,0,1-5.29-9.31,75,75,0,0,1-3-11.18q-.73-3.92-1.27-8.15c-3.52-27.79-.63-64.16-.35-64.4s13.4,0,28.85.74c54.92,2.64,146.24-5.36,150.82-2.15C815.85,244.12,813.84,271.38,810,292.86Z"/><path class="cls-8" d="M697.9,246.45a3.36,3.36,0,0,1-.92-.92l0,0c0-.07-.11-.14-.11-.21h.6A7.87,7.87,0,0,0,697.9,246.45Z"/><path class="cls-2" d="M634.13,232.44c-15.48,19.6,36.67,20.08,56.17,20.61,29.76.8,148.16,5.4,127.05-15.71C799.2,219.2,649.07,213.52,634.13,232.44ZM811.29,241c11.64,10.92-196.77,10.58-168.15-7.2C657.21,225,795.19,225.83,811.29,241Z"/><path class="cls-5" d="M765.76,142.15v0a3,3,0,0,1,0,.52c-3.85,63-12.38,90.65-14,101a3.14,3.14,0,0,0-.53,0c-3,.11-6,.22-9,.36-2.4.07-4.84.14-7.27.24l-6.42.22c-4.51.14-9.06.28-13.61.38,2.89-7,7.93-43.63,14.07-79.71,4.06-23.91,8.61-47.58,13.33-62.18,4.48-13.83,16.86-32.13,25.12-45v1.06C767.88,92,767.14,119.37,765.76,142.15Z"/><path class="cls-5" d="M842.62,84.06c-2.9,9.35-15.1,64.51-24.06,90.54-3.07,8.92-16.93,42.43-30.61,67.65h0c-4.65.14-9.8.35-15.31.6-.59,0-1.19,0-1.83.07-2,.07-4.09.17-6.21.25,1.77-11.82.6-14.47,7-33.65,5.65-16.86,11.68-32.24,17.81-46,18.91-42.64,38.41-70,47.83-79.18a23.31,23.31,0,0,1,3.49-2.93C842.79,80.18,843.53,81,842.62,84.06Z"/><path class="cls-5" d="M696.84,245.28c-5.5.07-10.93.07-16.19,0-.77,0-1.51,0-2.29,0l-.32-.11c-5-10-17.17-33.61-19.39-44.58-3.21-15.87-4.8-84.69,3.24-106.69v0c.25-.64.46-1.23.71-1.8.07-.1.1-.25.17-.35.28-.57.57-1.1.85-1.59,1.9,0,4.09,4,6.38,10.76,4.66,13.54,9.84,38.06,14.32,62.92.07.42.14.85.21,1.24,5.33,29.41,9.67,59.11,11.08,71.42.28,2.71.46,4.55.46,5.4A6.19,6.19,0,0,0,696.84,245.28Z"/><path class="cls-2" d="M728.55,244.58c-4.51.14-9.06.28-13.61.38-5.89.15-11.75.25-17.5.32a7.87,7.87,0,0,0,.46,1.17,3.36,3.36,0,0,1-.92-.92l0,0v-.21c-.14-1.27-.32-2.64-.46-4.05v0c-.6-4.87-1.27-10.51-2.19-17-5-36.5-3-75.72,6.07-116.81,4.76-21.62,14.57-59.57,16.15-62.57.57,0,.82-3.92,2.79-.46,7.37,12.91,9.38,69.94,9.7,120.87C729.26,199.57,728.73,231.17,728.55,244.58Z"/><path class="cls-2" d="M789.39,163.52c-5.53,31.08-12.06,61.27-18.62,79.4-2,.07-4.09.17-6.21.25-4.12.17-8.39.38-12.8.56a3.14,3.14,0,0,0-.53,0c-3,.11-6,.22-9,.36v-.28c0-5.72,15.16-70.16,23.52-101.65v0c2-7.41,3.6-13,4.52-15.55,7.86-21.62,32.38-74,34.67-74C806,52.6,799.13,109.38,789.39,163.52Z"/><path class="cls-4" d="M767.74,104.52c-.25,12.48-.92,25.18-2,37.63v0a3,3,0,0,1,0,.52,910.15,910.15,0,0,1-14.5,101c-3,.11-6,.22-9,.36-2.4.07-4.84.14-7.27.24C742.52,165.29,763,67,765,62.72c1,0,1.87-5.22,2.47-3.56S768.34,70.83,767.74,104.52Z"/><path class="cls-4" d="M842.55,83.92c-.46,1.41-4.45,17.42-8.93,35.76-12.52,51.43-31,95.16-45.71,122.57-4.65.14-9.8.35-15.31.6,3.81-9.49,9.07-21.41,16-35.94,23.67-49.31,46-114.24,48.57-122.57a4.94,4.94,0,0,0,.25-.88,5.48,5.48,0,0,1,3.24-2C842.16,81.17,843.15,82.05,842.55,83.92Z"/><path class="cls-4" d="M697.9,246.45a3.36,3.36,0,0,1-.92-.92l0,0c0-.07-.11-.14-.11-.21-5.5.07-10.93.07-16.19,0-1-3.07-7-24.23-12.55-79.46-1.13-11.32-10.19-57.67-6.21-71.95v0c.25-.64.46-1.23.71-1.8a.92.92,0,0,1,.14-.35h0c2.47,0,4.87,3.42,7.23,9.17,5.22,12.84,10.09,37.49,14.32,62.92.07.42.14.85.21,1.24,4.62,27.93,8.47,56.57,11.08,71.42.28,1.8.6,3.38.88,4.76v0c.35,1.72.67,3.1,1,4.05A7.87,7.87,0,0,0,697.9,246.45Z"/><path class="cls-2" d="M677.43,380c-11.3,20.54-42.36,354.75-34.87,354.75,10,0,52.38-346.89,52.35-346.53,44.37,1.78,54.12,2.47,54.87,3.17,6,5.59,47.31,339,54.73,339,6.75,0-1.09-47.58-6.08-116.09-11.86-162.66-27.38-235.89-27.38-240.26C771.05,371.18,679.26,376.63,677.43,380Z"/><path class="cls-4" d="M661.89,372.76c-.67,4-2.11,11.9-1.59,12.33.74.61,30.52-2.88,74-5.27,44.78-2.46,41.71-1.13,42.25-6.85C777.39,364,777,371,661.89,372.76Z"/><path class="cls-2" d="M740.05,432.7c-50.91,6.17-60.72,3.78-59,9.85,1.41,4.94,1.12,5.41,15,2.31,17-3.8,48.9-4.92,65.18-6.63,8.07-.85,8.19-.93,6.62-4.33C764.8,427.28,750.23,432.7,740.05,432.7Z"/><path class="cls-2" d="M759.52,463.9c-42.3,3.48-32.68,2.48-88.26,7.5,2.08,15.61.61,15.91,12.55,13.1,15.72-3.69,74.55-6.11,89.7-6.76C771.66,458.71,774.86,463.9,759.52,463.9Z"/><path class="cls-2" d="M770.62,509.59c5.48-.24,17-5.18,17.49-7.48C789.71,494,757.7,510.15,770.62,509.59Z"/><path class="cls-2" d="M778,518.07c-11,3.73-6.15,7.56-5.12,7.19,5-1.8,18.73-4.89,18-7.28C789.51,513.62,778.34,518.07,778,518.07Z"/><path class="cls-2" d="M782,528.48c-8.36,3.25-9.79,4.41-8.31,6.8,1.72,2.78,17.54-3.46,17.54-6.92C791.24,522.67,784.56,528.48,782,528.48Z"/><path class="cls-2" d="M656.7,562.67c-2.74.41-3.9,1.46-3.9,3.54,0,2.47.72,2.82,4.33,2.09,5.34-1.06,13-1.89,13-4.61C670.11,560.67,657.09,562.67,656.7,562.67Z"/><path class="cls-2" d="M651.36,581.64c0,2.06,1.15,2.44,6.2,2.05,9.52-.73,12.55-1.7,12.55-4C670.11,577.24,651.36,576.57,651.36,581.64Z"/><path class="cls-2" d="M656.7,600.1c-5.05,1.56-6.78,2.79-6.78,4.83,0,2.64.29,2.66,7.64.45,9.23-2.77,9.66-3,9.66-5.64C667.22,595.6,658.37,600.1,656.7,600.1Z"/><path class="cls-2" d="M647.88,628.15c1.18,1.91,14.24-2.45,14.71-4.9C663.61,617.89,645.06,623.59,647.88,628.15Z"/><path class="cls-7" d="M799,258.68c-.17,1.73-133.73,11.54-146.91,5.78-6.9-3-6-3.92-6-2.55,0,1.69-10.34-2.24-9.15.78,6.48,16.48,106.54,5.32,107.15,6.37,1.42,2.47,2.4-2.15,4.7.15s1.73-1.5,3.67-1.18c9,1.5,19.24-2.12,19.93-1.08C774.57,270.2,871.67,258.68,799,258.68Z"/><path class="cls-7" d="M811.18,274.7c-72.59,8.29-67.25,7.62-67.29,7.64-2.35,1.21-2.74,1.21-2.74,0,0-3.65-9.09,1.73-10.14.69s-.24,1.61-1.62,1.61-.48-3.34-1.95-2.43C722.88,285,657.73,280,656.67,280c-6.53,0-5,3.12-6.56.68-1.89-3-15.75-1.35-16.65-2.4-2.66-3.08-3.66,3.38-3.87,3.38-2.69,0,3.82,3.58,3.82,4.36,0,4,45.73,3.73,47.63,5.73,4.2,4.42,73.82-5.65,73.82-4.6C754.86,292.74,843.43,274.7,811.18,274.7Z"/><path class="cls-7" d="M626.43,296.39c-3.37,9.52,28.48,18.81,30.71,15.37.52-.81.76-.68.77.39,0,1.67,2.89,2.15,2.91.49,0-.23,7.85,3.13,7.85,1.08,0-.75.31-.68.88.2,1.33,2.07,2.31-.47,4.31.82,3.77,2.42,6.07-.72,6.61-.72.86,0-.49,1.93,1.62,2.09,40.53,3,35.45-3.79,36.56-.63.93,2.65,22.07,1.08,23.13,1.28,4.09.77,5.24-4,5.24-2.06,0,2.71,20.63.71,21.5-.68.43-.7,56.07,6.27,49.66-4.12-2.22-3.6-10,.54-168.12-3.31C638.77,306.31,627.48,296.39,626.43,296.39Z"/><path class="cls-2" d="M185.49,295.64c-2.18,1.26-6.13,5.94-8.6,10.19-4.5,7.74-4.51,8.46-.84,45.95,9.6,97.91,30.84,59.82,50.26,114.26,14.08,39.47,13.22,66.11,29.37,83.65,8,8.67,15.54,45.81,15.92,49.91.66,7.21,30.25,43.16,35.78,53.1,7.19,12.91,10.74-1.12-.13-13.33-26-29.22-29.72-51.49-32.06-61.8-10.35-45.52-22.23-29.68-30.55-78.91-2.43-14.4-13.65-54.61-29.18-67.9-25.54-21.86-26.87-44.57-31.11-77-4.46-34.19-4.48-35.65-.63-43,3.55-6.77,9.59-10.58,10-6.3.08.88,4.93,6.87,10.74,13.26,10.76,11.83,12.82,15.3,23.75,39.85,20.73,46.58,39.14,28.41,31.95,69.09-2.62,14.81-5.31,20,14.49,40.63,17.73,18.45,16.26,22.1,19,79.47l23.65,20.06c8,68.45,9.09,82.72,15.58,82.18,5.53-.47-2.26-21.15-5.38-61.61-2.12-27.35-5.24-28-25.67-43.74-2.27-54.78-1-61.64-19.27-79.65-15.14-14.9-18-21.53-14.71-34.55,3.77-15.07.43-31.39-8.21-40.14-30.11-30.48-18.77-39.3-46.32-73.35C187.35,283.84,196.21,294.75,185.49,295.64Z"/><path class="cls-9" d="M391.35,559.48a190.62,190.62,0,0,1-2.21,24.87A157.26,157.26,0,0,1,385,602.58c-.26.88-.52,1.82-.83,2.71a209.24,209.24,0,0,1-9.49,24.42.3.3,0,0,1-.05.2c-1.65,3.64-3.35,7.34-5.11,11.18,0,.15-.15.25-.2.39-1,2.07-2,4.24-2.95,6.41V648h-.05c-2.32.1-4.8.25-7.27.4-4.08.15-8.31.34-12.59.54l-5.68.3c-.82,0-1.59,0-2.37.09l-20.38,1c-1.34-57.67-2.22-60.63-15.16-85.2-64.55-122.44-.11-106.19-43.91-209.81-15.73-37.28-33-79.83-35.55-87.61-23.78-73.83,3.67-113.28-8-186.86C211.09,53.69,208.77,17,232.87,5.13c1.85,0,24.66-16.65,49.06,10,11.5,12.61,12.79,24,9.9,86.39-4.23,91,6.87,51.37,58.82,152.62,2.73,79.25-17.8,69-25.49,140.56-1.34,12.31.88,21.67,5.21,29.8,7,13,19.3,22.85,31,36.64C377.68,480.19,392.85,506.69,391.35,559.48Z"/><path class="cls-2" d="M296.45,651.29c-30.43,30.47-42.09,34.29-42.61,87.29-.37,37.27,15.06,54.2,36.92,64.82,24.46,11.89,74.88,15.9,101.25,8.06,40.14-11.94,74.87-71.08,45.15-126.94-6.65-12.49-34.85-38.39-41.36-38C389.94,646.91,295.93,651.32,296.45,651.29Z"/><path class="cls-4" d="M260.59,66.73c-17.48,25.58-13.15,45.74-36.81,19.93-14.81-16.16-8.45,5,3.48,14.53,26.7,21.34,36.19-30.84,42.51-30.84.88,0,3.58,4.43,6.13,10.07,5.83,12.89,16.75,19.45,16.75,10.07,0-5.35-2.29-.19-10-15.61-5-10.07-6.65-11.66-12.33-12.18C261.81,61.92,261.32,66.73,260.59,66.73Z"/><path class="cls-4" d="M221.78,140.55c-5.91,2.63-5.91,7,0,8,4.39.79,16.56-11.81,28.48-23.48l2.42,5.64c2.08,4.83,9.59,10.07,14.45,10.07,1.45,0,23.42-13.44,23.42-21.14,0-6.81-.17-6.93-13.08,3.42-29.54,23.7-9.83-32.95-39.53,2.21C238.46,125.32,226,138.69,221.78,140.55Z"/><path class="cls-4" d="M218.19,170.93c-10.87,3.9-6.47,16.82,16.67-1.21,23.58-18.38,26.72-16.69,30.06-9.76,3.67,7.63,16.68,5.13,19.51,1.91,5.33-6.06,13.49,3.23,9-7.75-1.59-3.94-5.66-4-13.46-.24-5.7,2.76-6,2.68-9.38-2.18C258.62,134.31,229.18,167,218.19,170.93Z"/><path class="cls-4" d="M250.47,184.32c-16.59,13-48.83,32.82-33.33,31.82,4.09-.26,40.63-27.33,46-31.21,0,47.69,13.19,40.83,38.18,28.19-1.46,30.12.8,49.85,30.17,31.29,9.91-6.26,11.29-7.88,9.49-11.15-2.81-5.11-1.75-5.3-14.77,3.2-14.3,9.35-16.66,7.67-16.66-11.86,0-53.17-38,22.31-38-33.23C271.56,160.09,254,184.32,250.47,184.32Z"/><path class="cls-4" d="M241.4,246.38c-5,3.58.53,5.79-3.7,4.4-3.95-1.31-18.56,11.37-15.08,12.48,4.47,1.42-5.24,10.88,13.08-3.68,9.28-7.37,16.82-10.2,17-6.39,0,.53,17.77,28.2,39.1,18,6.73-3.21,9.92-2.68,17.51,2.9,14.27,10.49,28.91-6.42,39.23-6.42,2.3,0,3.17-1.41,2.72-4.43-.84-5.57-4.61-5.27-20.22,1.61-14,6.15-6.14,7.19-32.49-5.64-21.07,8.73-20.92,10.89-35.57-5.64C248,236.72,243.42,246.38,241.4,246.38Z"/><path class="cls-4" d="M339.48,293.26c-22.66,10.21-29.48-7.86-41.18,9.47-19.05,28.2-40.75-12.89-51-12.89-16.28,0-13,21.83-5.88,12.08,11.78-16.18,30,48.42,68.32.4,18.87,5.49,17.86,6.32,30.69.71,9.28-4.06,11.29-5.85,11.29-10.07,0-2.82-.24-5-.53-4.93C348.22,289.16,340,293.26,339.48,293.26Z"/><path class="cls-4" d="M337,318.23c-13,6.73-20.6.64-26.89,8.36-28.26,34.68-32.87,8.29-46.62,22.25-3.57,3.62-4.54,6.28-3.48,9.46l1.48,4.43c12.51-11.5,9.05-10.74,32.27-8.05,20.71-20.61,23.69-24.57,31.85-24.57,20.52,0,20-14.52,19.41-15.1S337.47,318.23,337,318.23Z"/><path class="cls-4" d="M277.05,384.66c7-5.2,8.22-5.18,16.24.26,8.86,6,33.12,7.18,33.12,1.58,0-4.61-6.33-6.73-14.77-5-4.57,1-8.44.15-13.92-2.92C271,363.66,262.11,395.7,277.05,384.66Z"/><path class="cls-4" d="M323.24,430.1c-11.46,2.45-38.25,11.48-44.58,3.72-4.1-5-5,5.6-2.49,8.45,3.05,3.5,19.23,3.3,32.09-.4,18.78-5.39,19.24-4.91,10.67,11.28-13.42,25.35-14.08,14.29-23,4.33-11.74-13.12-25.08,9.45-23.9,15,1,4.79,13.46-9.46,16.31-9.46,2.26,0,7.73,12.83,16.14,14.86,17.71,4.29,22.09-34.47,35-32.48,8.23,1.26,7.47,1.09-.9-8.56C329,425.75,329.49,430.1,323.24,430.1Z"/><path class="cls-4" d="M360.79,491.81c-9.12,6.18-16.65,20.37-23.31,23.76-12.2,6.21-22.63-24.11-44.46-1.41-8.52,8.86-10.67,13.9-6.9,16.12.91.54,5.28-3.13,9.49-8,9.37-10.76,12.54-11.37,24.89-2.85,28.67,19.78,33.48-24.24,55.05-24.24C392.14,495.23,377.74,480.33,360.79,491.81Z"/><path class="cls-4" d="M383.25,530.47c-14.92,15.12-24.35,14.06-44.82,9.87-5.22-1.07-7.57.4-20.28,12.69-13.13,12.68-16.38,18.72-10.1,18.72,2.67,0,17.25-15.49,26.37-25,6,1.74,15.47,4.84,23.42,4.84,12.23,0,34-13.92,34-21.75C391.8,520.05,383.85,530.47,383.25,530.47Z"/><path class="cls-4" d="M412.71,706.57C396.91,736,379,737.63,375,710.09c-2.12-14.51-7.5-13.63-13,2.12-8.78,24.95-41.59,33.08-41.59,3.29,0-16-6.19-17.73-10-2.82-3,11.76-7.38,16.45-18,19.34-25.21,6.88-12.51-24.94-20.26-27.45-3.39-1.1-4.41,1.06-6.72,14.22-1.61,9.18-16.76,27.83-21.79,26.84a3.37,3.37,0,0,0-3.53,2.09c-2.11,5.33,11.79.38,20.29-7.22,7.75-6.93,8.86-7.26,12.5-3.83,5.82,5.46,26.76,5,33.52-.72,5.25-4.46,5.25-4.46,10.75.24,12.74,10.86,29.72,10,50.27-10.81l4.53,5.41c9.11,10.87,28.18,8.7,39.22-4.47l5.52-6.58c6.66,6.73,14.5,18,39,2.53,20-12.59,13.8-23.78,6-14.76-4.15,4.8-35,26.93-35,2.35,0-9.17-2.1-15.28-5.25-15.28C418.9,694.58,413.32,706.57,412.71,706.57Z"/><path class="cls-4" d="M424.05,759.94c-31.1,37-16.07-13-29.41-10.81-5.3.87-2.4,2.46-9.86,14.34-9.46,15-37.84,25.72-38,0-.07-10.11-7-10.44-14.73-.7-9.92,12.45-32.74,20.68-35.48,5.87-1.57-8.46-7.92-9.22-9.82-1.17-2.3,9.79-29.5,20.36-25.14,24.45,5.86,5.52,19.94-17.47,33.76-8.91,14.43,8.93,33.48-4.41,43.77-10.84l2.41,5.88c5.58,13.61,26.35,12.9,43.86-1.5,6.25-5.14,8.75-6.19,8.75-3.67,0,5.52,7,11,14,11,12.08,0,29.34-27.8,32.24-19,5.14,15.52,18.88,6.16,12.78,1.65C445.36,760.76,451,727.86,424.05,759.94Z"/><path class="cls-5" d="M465.65,485.36c0,28.86-13.47,38.81-49.17,71.91,1,14.08,1.91,26.15,2.94,40.23-24.92,27.09-37.4,25.66-47,39a44.62,44.62,0,0,0-2.89,4.63c0,.15-.15.25-.2.39-1,1.88-2,4-2.95,6.41,0,0-.05.05-.05.09-2.32.1-4.8.25-7.27.4-4.08.15-8.31.34-12.59.54l-5.68.3c-.82,0-1.59,0-2.37.09.62-5.07,1.29-9.8,2.07-13.93a70.41,70.41,0,0,1,2.63-10.25c4-11,7.48-16.1,26.51-38.46,6.09-7.14,6.35-8.28,6.35-26.79,0-16.5-.72-20.64-5-28.42-8.26-14.87-15.07-36.25-15.07-47.28a55.5,55.5,0,0,1,5.47-23c4.49-9.85,11.25-19.06,18.16-27.19,13-15.16,26.88-26.74,28.22-32.2,1.65-6.51-.05-15.42-2.22-25.66-4.23-20.25-10.21-45.61,4.75-67.43,4.38-6.45,10.63-12.56,19.24-18.12,2.58,0,6.61-5.86,13.31-7.59a16.61,16.61,0,0,1,11.4,1.43c.16.05.26.15.42.2,9.18,4.53,12.48,9.46,17.07,25.36,10.37,35.91-.36,50.09-7.27,104.91C458.06,465.71,465.65,446.06,465.65,485.36Z"/><path class="cls-2" d="M457.19,236.65c0,23.44-35.09,23.35-45.66,65.06a53.27,53.27,0,0,0-1.24,7c-2,17.59,1.65,42.65-4.75,67.43a84.74,84.74,0,0,1-12.38,27.67c-8.31,12.07-12.33,21.63-13.62,30.19-3.82,25.57,17,42.06,22.13,88.21a187.32,187.32,0,0,1,1.14,19.55c.15,22.21-1.14,27.39-12.49,50.34-1.65,3.35-3.2,6.6-4.59,9.75-.57,1.18-1,2.31-1.55,3.45-3.87,8.91-6.91,17.13-9.49,24.42a.3.3,0,0,1-.05.2l-2.22,6.55c-1.39,4.19-2.63,8-3.77,11.43-.72.05-1.49.05-2.27.09h-.05c-2.32.1-4.8.25-7.27.4-4.08.15-8.31.34-12.59.54l-5.68.3c-.15-3.89-.2-8.47-.3-13.84-.06-7.1-.11-15.52-.21-25.56-.57-62.26-1.14-65.8-14.65-88.41-7.23-12.06-14.09-37.67-13.93-52,.15-18.37,8.56-30.19,18.67-44.91,14.71-21.28,33-48.56,34.88-110.37.72-22.95.1-38.17-1.91-49.3-8.46-46.2-29-135.09,23.37-161.54,25.38-12.8,55.72-8,55.72,26,0,22.35-21.1,50.33-21.1,58.11,0,1.87,5.67,8.22,12.43,13.79C446.45,211.68,457.19,227.93,457.19,236.65Z"/><path class="cls-2" d="M433.09,468c9.8,45.11-30.8,35.85-26.77,87.41,2,24.88-8.62,34.33-20.59,46.4-.26.24-.46.49-.72.74-9.86,9.94-20.53,21.91-25.95,45.8-4.08.15-8.31.34-12.59.54,3.2-15.86,9.18-32.65,17.64-40,1.14-1,15.64-15.27,25-24.53,4.12-4.08,7.27-7.19,7.89-7.78,0-39.94-.67-43.39,4.64-54.37.31-.59.62-1.18.93-1.82,13.57-26.79,24.4-19.46,22-40.09-4-35-4-35,.88-47.48,11.5-29.4,12.69-34.18,13.1-51.17.67-29.35-6.24-65.25,4.23-98.65a16.61,16.61,0,0,1,11.4,1.43c-7,22.56-6.34,54.28-4.79,73.88C454.71,426,424.22,427.35,433.09,468Z"/><path class="cls-7" d="M326.41,641.43c-51.54,9.83-76.22,4.67-44.09,25.57,107.85-8.58,125.49,1.76,133.52-5.78,5.46-5.13,3.38-11.46-5.06-15.37C399.15,640.47,341.7,641.43,326.41,641.43Z"/><path class="cls-4" d="M399.47,114.4c-62.92,12.16,12.95,218.88-55.3,298.82-.66.76-5.1,62.11-15,77.2-.62,1-.56,1.64.15,1.64s1.06,2,.86,4.44c-1.85,23,25.88,66,21,84.87-2.44,9.41.1,35.53-1.45,36.51-1.14.73-1.48,1.37-.71,1.37,1.92,0-3.45,2.73-1.15,2.73,1.82,0,1.77,2.33-.12,5.2-2.44,3.72,3.93,3.77-.24,7.11-1.34,1.08-5.56,9.58-1.72,9.58,1.33,0,1.29.32-.14,1.23-1.2.76-1.57,2.32-1,4.1,4.74,14.28,18.63-46.63,10.22-91.84-3.32-17.81-29.39-53.52-14.47-87.73,5.82-13.31,4.27-69.2,13.47-69.2,1.54,0,18.16-38.2,18.76-39.66,23.2-56.89-22-232.17,29.37-241.32,17.59-3.14,6.33,22.22,4,23-3.45,1.23-8.42,31.54-9.39,33-5.2,8,29.65,55.32,17.27,55.32-1.37,0-1.29.36.28,1.36,1.15.73,1.42,1.38.57,1.39-7.56.09-12.36,47.34-13.16,48.8-2.7,4.94,1.34,24.51-.39,27.77-20.68,39-.12,72.53-19.39,91.63-62.06,61.51,37.46,69.18,8.59,111.39-43.71,63.88-1.33,46.46-7,75.9-4.06,21-12,14-15.88,38.64-10.76,68.91,8,4.33,8-8.41,0-4.54,16.34-25.25,14.69-34.6-3.14-17.67-11.35-18.65-10.1-33.51.34-4.19,42.47-52.86-3.3-91.63-30.62-25.93,8.74-49.38,8.74-55.46,0-3.52,2.86.17,2.86-2.94s2.32-1,2.65-4.17c.1-.9,5.29-22.56,6.24-22.56,2.84,0-9.22-29.13,3.51-46.43,1.07-1.47,11.72-88.14,22.78-106.88,3.54-6-27.66-36.54-18.85-50.2.7-1.07,8.71-35.83,12-35.83,1.86,0,2-.3.64-1.16s-1.36-1.55.36-2.87c3.31-2.55.13-1.92-1-13.47C416.46,115,411.72,114.4,399.47,114.4Z"/><path class="cls-5" d="M902.47,878c0,3.51,27.69,6.44,33.55,25.29,1.27,4.08,3.74,1.78,1.93,5-2.19,3.86-5.64,15.52-7.62,15.18-3-.5-8.08,10.54-9.37,8.45-.81-1.31-266.28-7.41-283.56-11.81-9.15-2.34,3-13.2,3-14.52,0-2.16,11.89-7.33,13.47-8.72,3.4-3,4.12.41,6.8-1.81,1-.81,1.8-1,1.84-.43s.58.13,1.28-1.1c1.61-2.82,9.68.37,9.68-4.1,0-2.87-2.16.76-3.68-1.71-3.94-6.41-25.26,6.25-26.57,5.88-4.73-1.33-8.79,10.51-12.13,9.24-1.59-.61-1.91-.32-1.34,1.22.44,1.23.08,2-.92,2-3.85,0-6.56,21.75,12.18,25.25,36.49,6.82,55.72-2.6,57-.75,1.07,1.61,29.9-2.4,30.74-1.1s1.1,1.34,1.1-.13c0-3.19,4,4.46,7.68-.61.49-.67.89-.12.89,1.23,0,.92,33.11,2.78,33.13,2.08,0-1.84.23-1.87,1.54-.25,1.63,2,4.27,2.32,6.72.79,2-1.23.57,1.55,3.61,1.11,3.32-.47,4,3.43,4,.86,0-2,3.68-1.93,3.68-.19s3.2-.56,4.41,1.35c.55.87,1.44.55,2.51-.92,1.34-1.83,1.65-1.89,1.65-.3,0,2.88,32.55,3.5,33.86,4.1s7.78,3.56,7.78,1.53c0-1.35.16-1.35,1,0,1.36,2.08,5.35.44,4.22-1.41-.46-.75.74-.15,2.58,1.3q5.86,4.63,7.24,1.21c.47-1.17.62-1.16.71.06.07.84,1.23,1.53,2.58,1.53,3.7,0,1.83-3.9,3.34-1.83,2.63,3.6,8.07-.89,9.28.61,2.26,2.82,7.71,3,9.25.37,1.24-2.15,1.27-2.15,1.33.06.06,1.94,24,4.8,25.38,1.28,1.92-5,9,4.18,12.94-2.08.84-1.32,23.85-14.76,22.27-23.63-.55-3.11,5.93-5.32,1.68-8-1.29-.84-1.28-1,.07-1,6.74,0-13.19-26.94-18.19-26.94-3.89,0-1.12-4-4.47-2.81-3,1.09.64-.86-2.94-3.07s-2.91,4-6.82-1.22C911.7,873.06,902.47,876,902.47,878Z"/><path class="cls-3" d="M694.41,594.89c2.12,21.82,4.92,29.92,12.47,36.13,3.6,3,8.09,5.34,10.1,5.34,6.06,0,14.94-6.67,18.71-14.07,2.74-5.36,11-38.58,11-44.17,0-1.39,35-2,40.93-5.82,7.63-4.94,6.81-18.34-1.69-27.36-2.37-2.52-10.75-6.26-21.39-9.55-38.36-11.87-7-15-59.32-15.34-17.26-.1-29.86-.2-41.84-3.24C683.61,556.85,689.67,545.93,694.41,594.89Z"/><path class="cls-3" d="M868.26,660c10.75,8.68,11,9.89,4.5,22.69-13.68,27,21.59,25.17,40.21,15.68,17.86-9.11,20.45,2,47.06-12.44,30.3-16.42,67.14-16.24,59-20.7-4.13-2.25-26.78-4.31-40.57-8.1-38-10.44-50.32,3.3-59.87-.41-1.78-.69-9.46-5.57-17-10.81-13.16-9.12-14.33-9.56-25.51-9.56C855.82,636.36,849.82,645.15,868.26,660Z"/><path class="cls-2" d="M702.91,735.53h27.77c-37.82,48.32-60.63,76.62-62.68,134.33-1.24,34.92,2,34.06,24.27,45.62,6.31,0,214.83-.46,218.9-2.25,16.52-7.29-1.78-122.66-32.07-157.87-5.24-6.1-1.29-8.87,12.78-9,9.92-.07,6.9-2.07,12.53-14.84,2.49-5.65-5.07-1.5-53.1-15S736.73,701.68,707.6,700.73C705.34,713.56,705.08,716.14,702.91,735.53Z"/><path class="cls-2" d="M865.47,544c-36.6,37.2-52.16,79.52-60.33,164.08-1.2,12.44-1.09,13,2.62,13,3.32,0,3.88-1.08,3.88-7.57,0-13.65,8.79-68.88,13.6-85.47C848,549.73,902.32,526.37,885,526.37,882.73,526.37,865.91,544,865.47,544Z"/><path class="cls-2" d="M744,575.05c-2.63,4.24,11.64,14.55,25.21,52.29,18.06,50.24,5,93.76,12.69,93.76,4.24,0,5.09-7.93,3.93-36.78-1.56-39-8.8-64.06-27.27-94.66C744.86,567,745.56,575.05,744,575.05Z"/><path class="cls-2" d="M862.13,668.67C834.05,685.52,815,721.1,823.81,721.1c9.51,0,.78-20.55,42.1-46.88,7.94-5.06,14-9.92,13.36-10.81C875.87,658.21,863.65,668.67,862.13,668.67Z"/><path class="cls-6" d="M717,537.19c-3.69,11.69,8.38,14,9.53,5.77C727.68,535,719.31,530,717,537.19Z"/><path class="cls-6" d="M744.49,540.61c-4.39,4.54-6.34,24.12,6.83,15.6,3.95-2.55,4.53-4.06,4.06-10.55C754.35,531.17,744.93,540.61,744.49,540.61Z"/><path class="cls-6" d="M702.25,561.71c-3,8,8.41,6.4,8.41-.36C710.66,558,703.56,558.28,702.25,561.71Z"/><path class="cls-6" d="M707.69,603.45c7.81,7.81,17.4-11.31,17.4-19.2,0-8.23-8.59-6.26-11.63-1.53C714.15,582.72,702.66,598.42,707.69,603.45Z"/><path class="cls-6" d="M889,662.68a5.1,5.1,0,0,0,4.87,8.26c4.69-.87,6.27-3.88,4.15-7.89C894.38,656.15,889.43,662.68,889,662.68Z"/><path class="cls-6" d="M890,687c-3.45,5.54,9.56,7.15,7.12.72A3.91,3.91,0,0,0,890,687Z"/><path class="cls-1" d="M938,470.92c-11.08,5.67-13,13.46-26.69,30.75-24.78-8.37-39.67-13.81-62.39,4.06-12.22,9.6-17.34,19-17.41,32-.1,18.11,16.35,21.22,36.16,28.32,23.14,8.3,60.93,71.56,64.92,69.32,2.86-1.61,6-35.06,30.55-83.58,17.47-34.48,25.54-84.92-13.6-84.92C945.83,466.87,938.45,470.92,938,470.92Z"/><path class="cls-4" d="M941.46,502.61c-18.53,7-16.82,27.56,8.3,15.28,11.18-5.46,14.51-10.46,10.21-15.32C954.16,496,943,502.61,941.46,502.61Z"/><path class="cls-4" d="M882,517c-39.85,18-17,37.38,8.65,15.76C901.69,523.42,894.94,511.12,882,517Z"/><path class="cls-4" d="M929.43,543.86c-3.84,10,19.24,15,19.24,5C948.67,542.06,931.82,537.63,929.43,543.86Z"/><path class="cls-4" d="M895.48,549.41c-7.57,5.36-12.45,18.38-7.93,21.17,8.29,5.13,22.06-12.61,15.15-19.52C897.46,545.84,896.48,549.41,895.48,549.41Z"/><path class="cls-4" d="M718.06,752.57c-3.42,4.07-5.52,2.91,29,3.43,87.08,1.3-37.23,3.28-45.31,15.59-4.77,7.27-9.93.67,82.81-6.33,18.37-1.38,99.17,1,99.17-3.41,0-6.24-6-7.83-30.65-8.15C828.83,753.38,722.55,747.21,718.06,752.57Z"/><path class="cls-4" d="M683.44,805.13c-3.86,4.68-.54,4.72,14.06.13,62.65-19.64,110.86-21.26,111.61-20.51.45.45-146.93,36.07-135.91,47.43,2.5,2.57,139-49.58,205.51-49.73,11,0,14.69-1.72,13.07-6C888,766.53,698.47,786.88,683.44,805.13Z"/><path class="cls-4" d="M863.75,820.45c-87.36,3.23-114.71,13.18-196.36,40,0,16.47-.36,19.8,2.89,18.56,43.49-16.64,190.44-41.43,190.94-41.55,49.13-11,52.61-2,48-14C906.44,816.41,901.9,820.45,863.75,820.45Zm-38.59,15.2c-5.34,2-44,7.25-88.53,18.07-69.26,16.84,8.8-8.46,58.24-16.14C823.39,833.15,828.23,835.65,825.16,835.65ZM689.93,865.17c3.88-1.75,10.14-4.85,14.42-5C710.87,860.05,703.13,864.07,689.93,865.17Z"/><path class="cls-5" d="M1508.94,683c-3.32,0-7.54-4.49-21.62-7.28-14.67-3-14.88,1.74-32.37,3.43-16.7,1.63-25.93-20.53-49.11-1.35-.77.63-1.51,1.19-2.19,1.66-8.1-.95-17.38-1.61-27-2.06a267.66,267.66,0,0,1,21.84-20.09c6.09-4.86,31.81-16.33,40.33-18,9.7,0,6.48-6.17,22.86,7.1,6.36,5.14,25.91,4.16,40.44,25.71C1506.81,679,1512.66,683,1508.94,683Z"/><path class="cls-5" d="M1493,472.42c-20.58,35-1.77,52.22-28.38,71.64-8.68,6.33-24.27,23.89-31.92,32.23-2.93,8.86-11.18,34.61-14.69,41.94-4.2,8.86-19.78,29-26.51,34.29-11.53,9-19.33,16.88-25,24.47-12-.39-24-.5-34.39-.47,6.94-9,15.61-26.06,16.75-33.47,1.84-12,2.21-12.53,18.49-29.23,8.6-8.86,16.33-17.7,17.14-19.7,4.94-11.76,1.22-46.11,20.92-73.49,23.61-32.78,61.8-66.65,104.19-76.38C1524.14,444.25,1512,440.16,1493,472.42Z"/><path class="cls-5" d="M1224.34,671.4c11.32.9,22.45,5.94,30.6,10.08-15.64,1.95-31.26,4.17-45.13,6.14q-4.27-.54-8.65-.81c-18.68-1.19-27.88-13.4-46.72-9.52-12.5,2.58-28.48.68-39.14-4.67-6.15-3.09-25-19.73-28.33-25.06-4.24-6.73-3.77-9-13.9-24.48-3.88-5.93-6.91-10.92-6.72-11.1s6.3.68,13.63,1.95c45.24,7.67,47.48-4,68.53,24.05,6.54,8.68,7.41,9.18,21.42,10.4C1208,651.67,1206,669.93,1224.34,671.4Z"/><path class="cls-5" d="M1136.32,407c-1.63-5.67-1.58-1.16,12.53,5.85,6.09,3,22.55,17.76,28.78,25.75,3.74,4.8,17.57,32,21.39,42.15,3.56,9.39,8.39,31.46,12,38.67,4.67,9.44,22.5,22.81,33.26,43.83,9.47,18.52,10.21,21.71,11.34,47.14,1,22.52.9,22,9.1,33.42,5.07,7,14.19,24.63,18.12,34.6-6.12.56-12.4,1.24-18.73,2-2.42-3.43-6.17-8.36-11.47-15.22-9.73-12.61-14.35-16.06-40-30.12-21.61-11.84-21.68-11.84-21.68-22.39,0-18.49-19.1-29.1-30.21-63.2-10-30.68-4.85-35.74-19.8-104.29C1138.54,434.3,1137.11,407,1136.32,407Z"/><path class="cls-2" d="M1137.37,411.61c4,11.17-6,2.7,9.91,24.8,38,53,25,91.16,47.28,132.54,9.89,18.4,19,20.6,25,38.72,9,27.28,51.2,54,57.63,75.81,1.6,5.39,5.19,13.4,7.26,16.18,1.46,2,1.57,1.29,1.18-7.12-.8-17.34-10-28.56-20.54-39-56.44-55.89-28.1-45.07-52.94-72.31-36.76-40.32-10.5-82-63.11-155C1132.61,403.53,1138,411.61,1137.37,411.61Z"/><path class="cls-2" d="M1506.57,445c-14.82,3.95-16.55,17.38-38.83,35-19.77,15.59-35.39,76-66.48,107-19.29,19.19-11.11,14.21-31.83,39.9-15,18.66-32.69,58-31.64,70.53.71,8.44,7.29,7.66,7.31-.86,0-4.19,4-18.66,6.4-23,9.79-17.87,10-26.18,28.58-48.31,7.63-9.12,16.55-24.12,25-31.45,28.22-24.5,49.2-95,71.07-111.16,11.93-8.81,18.37-23.14,33.87-33.71C1523.39,439.79,1507.7,445,1506.57,445Z"/><path class="cls-2" d="M1068.07,615.05c4.17,5.43,10.68,6.52,22.7,17.31,42.08,37.79,24.85,13.65,78,37.37,21,9.39,47.5-3.13,93.88,29.38,5.93,4.16,11.56,7.56,12.51,7.57,4.42,0,5.71-6.71,1.4-7.33-4.58-.65-14.59-13-37-22-13.29-5.32-27.7-7.83-38.88-10.59-15.37-3.8-13.82,3.65-30.89-4.39-34-16-40-8.43-55.44-19.73-22.19-16.29-26.72-28-43.57-30.36C1064,611.36,1064.5,610.42,1068.07,615.05Z"/><path class="cls-2" d="M1391.6,667.56a33.33,33.33,0,0,1-4.09,3.17c-3.64,2.39-16.56,20.42-10.57,22.62,1.84.68,4.34-1.89,9.7-10,13-19.61,44.33-19.79,67.94-19.28,22.65.48,32,1.8,41,5.78,2.8,1.24,5.37,2.09,5.6,1.86.82-.82-2.69-5.42-6.36-8.32C1481.36,652.78,1405.5,654,1391.6,667.56Z"/><path class="cls-5" d="M1285.53,715.19c-.13.87-.29,1.42-.47,1.53-1.13.68-22.08,1.21-23.53,1.26,0-.15,0-.31,0-.47,2.66-.24,5.2-.53,7.57-.79C1274.06,716.14,1279.6,715.64,1285.53,715.19Z"/><path class="cls-5" d="M1292.68,714.71c3.51-.23,7.15-.45,10.84-.63-2.56.29-6,.66-10.81,1.32C1292.71,715.16,1292.68,714.92,1292.68,714.71Z"/><path class="cls-5" d="M1326.63,713.08c7.73-.29,15.56-.56,23.32-.82-.16.5-.35,1-.5,1.53C1349.45,713.79,1335.86,713.47,1326.63,713.08Z"/><path class="cls-5" d="M1357.2,712l8.81-.31a3.32,3.32,0,0,1-.92.73c-1.74.66-8.13,1.06-8.13.48A7.81,7.81,0,0,1,1357.2,712Z"/><path class="cls-6" d="M1403.57,795.74q-1.07,7.37-2.11,14.8c-1.19,8.44-2.32,16.93-3.38,25.27-.26,2.19-.55,4.38-.79,6.54-2.77,22.79-4.72,44.15-4.72,60.48-3.85.61-.13,1-71.16,1.58-120.91.9-121.7,5.25-125.11,1-1.08-1.35-6.06-21-11.26-49.49-.24-1.29-.47-2.61-.71-3.93-1-5.59-2-11.47-2.93-17.59-.29-1.79-.58-3.61-.84-5.46-6-39.8-10.82-88.52-7.68-129.09,14.09,1.14,42.26,3.56,57.4,1.35,15.58-2.3,153.14-1.08,167.14-5.25.29,0,9.45-2.35,16.62-.42C1418.84,696.83,1411.09,743.83,1403.57,795.74Z"/><path class="cls-1" d="M1300.49,677c-46.31,2.85-111.28,14.59-132.56,16,1.46,23.33,2.08,26.52,2.78,27.18,2.69,2.52,66.18.3,98.33-3.44,45.21-5.26,134.23-3.85,161-10,.23-2.82,1.56-16.86.78-18.77C1424.74,673.09,1300.78,677,1300.49,677Z"/><path class="cls-6" d="M1254.94,681.48c3-.4,6.09-.77,9.12-1.11C1271.66,691.21,1266.15,687.2,1254.94,681.48Z"/><path class="cls-5" d="M1333.3,630.1c-11.18,23.39-13.63,37.32-15.06,46.53-10.71.13-17.67.34-17.75.34-2.74.16-5.54.37-8.39.61.35-28.25,2.67-16.46-5.62-35-15-33.31-1.31-20.63-1.31-63.2,0-45.66-27.33-86.8,43.12-155.57,9.42-9.18,8.6-8.62,7.12-.79-3.43,18,1.19,32.6,7.78,58.77-2.29,54.1-2.74,55.23,1.4,69C1353.82,581.67,1344,607.81,1333.3,630.1Z"/><path class="cls-2" d="M1334.23,423c-.8,0-1.14.74-5.36,11.87-24,63.38-4.27,88.23-19.17,145.05-11.14,42.38-.32,78.52,3.19,96.74l-7.55.16c-2.11-7.91-7.14-22.89-7.57-51.62-.66-47.9,9.24-29.83,11.11-122.41.42-20.76,5.3-67.23,20.94-80.82.26,0,6.09-5.38,6.46-5C1336.92,417.66,1335.1,423,1334.23,423Z"/><path class="cls-7" d="M1200,685.22c-1.63,2.06-.19-.55-5.28.48-25.45,5.14-19.72,8.86-21.75,7.17-.66-.55-1.1-.62-1.1-.18,0,1.76-4.26,1.94-3.15-1.06.47-1.27-1.24-1.39-1.24.11s-1.76.74-1.1,1.83c.25.42.11.73-.33.73s-.76,1-.75,2.05c.26,27-4.54,19.72-2.11,22.63.87,1-2.35,5.33-.33,5.39,1.25,0,1.25.09-.07,1.06-2.25,1.66,1.11,2.45-.44,4.4-.7.87-.7,1.09,0,1.09,2,0-3.63,3,7.91,2.75.78,0,70.17-13.73,72.55-11.35.45.45,188.36-7.86,188.44-9.56s2.68,2.86,2.94-1.1c1.48-22.77,4.18-20.94,2.94-21-1.79-.07,1.17-1.55.22-3s2.34-2.16.55-2.16c-.52,0-.79-.27-.6-.58,4.11-6.68-148-9.56-155.78-7.43C1285.59,677.5,1202.61,681.94,1200,685.22ZM1434.41,687c.94.94-1.88,0-2.78,10.43-1.2,13.83,2.26,12.2-45.49,11.72-.66,0-166.66,10-167.8,10.93-.79.61-59.15,11.29-50.25,5.81,2.06-1.26-.61-30.72,6.37-28.16.79.28-1.24.59,6.6-2.35C1223.66,679.4,1427.38,679.94,1434.41,687Z"/><path class="cls-4" d="M1403.57,795.74q-1.07,7.37-2.11,14.8c-3,3.09-7,1.56-12-15.17-2.27-7.57-12.45,25.22-17.78,16.33-.87-1.45-2.67-.4-2.75-2.19-.21-4.62-4.61-15.43-6.17-10.47-.31,1.08-8.07,12.34-8.39,13.16-1.76,4.25-5.61,1.48-7.06,2-2.88,1-3-15.2-9.82-13.48-.34.08-5.72,9.26-6,9.6-7,7.28-12.29,4.64-12.29,2.85,0-.66-9.47-10.21-8.44-11.87,2.16-3.51-9.12,2-9.12,8.73,0,1.16-5.31,8.39-6.1,7.59-1-1,1.87,1.85-7.59-3.11-2.17-1.11-.27-2.45-2.8-3.61-1.69-.77-2.19-1.58-1.93-3.22.16-1-1.47-.13-.92-1.56.87-2.32-4.83-2.42-4.83-1.16,0,.58-6.48,8.15-6.12,9.16,1.19,3.14-8.62,8-9.81,4.88-.68-1.77-3.58.52-2.87-1.3.53-1.32-7.55-5.14-7.65-6.78-.08-1.23-.08-1.23-.45,0-.21.77-2.22,2-2.85,1.75-2.66-1-5.91,18.51-18.51,6.35-9.18-8.83-7.76.61-12.24,2.27-.79.29-2.75,8.47-10,8.07-6.89-.37-13.14-10.31-14.25-7.81-.34.8-8.67,4.41-7.33,6.57.16.21-3,4.49-3.93,6.28-.29-1.79-.58-3.61-.84-5.46,8.41-24,24-4.27,26.21-4.27,5.78,0,9-11,9.71-11s9.63-6.23,9.63-2.93c0,.18,8.78,4.12,8.78,6.17,0,5.94,12.27-15.59,17.73-10.36.79.73,8.31,3.11,7.51,5.14-1.26,3.27,6.55,2.74,5.78.84-.32-.76,8.31-11,8.76-12.76.84-3.3,1.63.42,3-.95,4.83-4.86,12,10.55,13.9,12.29,3.86,3.56,11.4-17.22,14.38-15.38.4.24.71-.13.71-.87,0-1.11.13-1.13.82-.24s.9.87,1.13.24c.45-1.19,2.62-.31,2,.69-.26.42-.1.55.32.26,4.51-2.79,9.15,19.2,15.69,10.84,1.9-2.42,3.8-1.4,3.22-2.9-.63-1.66,2-1.61,1.35-2.58-1.27-2.11,4.95-3.86,4.4-5.28-1.11-2.87,9.92-3.19,9.92,4,0,1.66,2.21,1.5,1.87,2-.84,1.4,2.3,5.75,2.19,5.91-1.42,2.48,4.09.47,2.9-1.43-.26-.45-.16-.74.27-.74s.87-.81,1.13-1.82c1.4-5.85,8.36-10.23,8.12-10.63-1.82-3,9.16.06,9.16,6.81,0,2.32,4.4,9.94,4.4,5.19,0-.79,5.14-7.38,5.57-8.2,7-13.77,10.6-6.91,15.11,5.73,1.69,4.72,5.09.73,2.61.68-1.48,0,1.61-.79,1.61-2.93s1.82-.89,1.16-2.56c-.58-1.5.69.24,1.77-1.76C1403.44,796,1403.52,795.87,1403.57,795.74Z"/><path class="cls-4" d="M1398.08,835.81c-.26,2.19-.55,4.38-.79,6.54-5.91-.16-8.89,3.77-9.55,3.14-.76-.79-7.09-1.08-7.09-4.62,0-.87-8.42-7.36-8.42-4.43,0-4.06-11.81,13.61-19,.69-.58-1-1-1.56-1.08-1.22s-.53.21-1.14-.23c-1.68-1.38.66-2.83-2.69-2.3-.87.13-.29-2.37-1.31-1.74-.29.16-5-1.34-6.55,1-3.48,5.38-18.59,6.75-20,4.17-.44-.79-6.51-3.43-11,1.4-2.37,2.55-25.5,12.26-26.56,13.32-3.64,3.64-17.17-7.94-21.07-5.23-1.09.74-5.49.66-3.8,3.41.55.89-2.67.34-2.43,1.58s-3.11.26-3.11,1.74c0,2.9-12.37,3-19.55-2.77-1.87-1.5,1.27,1.79-5.56,1.79-.45,0-4.49,4.49-5.54,3.85-.9-.58-11.08,5.73-11.08.66,0-.66-.42-1.08-.92-.89-2.09.76-11.87-18.65-19.15-6-.21.34-3,3.61-5.62,6.3-.24-1.29-.47-2.61-.71-3.93,1.66-3,3.74-6.09,5.22-6.09,1.24,0-.5-2.19,1-2.19.77,0,5.46-3.85,11.66-1.45,1,.37,1.93,1.24,1.93,1.85s.29,1,.71.68c1.61-1,7.49,8.15,8.86,7.31.34-.21.66,0,.66.45,0,.63,10.26-3.33,10.26-4.88,0-5,26.27,3.32,29.94-3.77,1-2,4.61-3,4-4.07s1,.53,1.64-.55,2.53.29,2.53-.82,1.77,1.08,2.5.34c3.28-3.27,16.6,13.35,24.38,3.62.39-.48,8.28-4.06,8.36-3,0,.66.18.68.39.1.53-1.42,3,.56,2.17-.84,0-.5,14.21-6.65,14.32-6.81.34-.55.87.56,2.56.69,6.28.47,3.51,3.35,6.49,2.64s.71,1.32,3.79.89c16.15-2.29,7.84-14.61,28.65.22,10.63,7.57,12.79-15.2,29.22,1.24C1387.93,840,1394.84,836.57,1398.08,835.81Z"/><path class="cls-2" d="M623.21,648c3.06,68.4,3.64,70.66,2.86,70.64s-32.76-85-32.26-85.75c.92-1.41-20.24-41.3-32.31-55.34-19.26-22.39-24.21,6.32-21.27,6.39.78,0,10.62,42.41,13.23,42.45.78,0,22.49,39.28,22.19,40.06s.05,1.09.92,1.11c1.17,0,1.2.11.24.73-.5.32,12.06,18.19,10.83,17.41-.77-.49,32.37,66,27.91,64.25-.95-.38-1.37,2.42-.43,3.73,2.23,3.08,3-1.24,5.06,2.34.75,1.31,1,1,.9-.93s9-.42,26,.28c2.34.09,108.11-217.47,87.55-212.59-10.17,2.41-53.86,61.14-58.8,96.57-1.24,8.9-20.88,71.64-21,72.41-5.22,34.79-4.77-60.79-4.17-61.13.79-.46,10.28-119.66-3.39-119.9C641.46,530.65,620.87,596,623.21,648Zm24.41,70.37c.78.09-2.74,2.79-.48,2.83,3.93.07,0,21.94,16.65-30.28.25-.77,25.2-106,46.45-118.72.78-.47,30.45-39.68,23.21-20.88-28.11,73-78.08,161.2-78.44,181.62,0,1.49-2.62-1.83-2,2.26.39,2.85-.05,4.5-1,3.87-.38-.23-.48.07-.23.73.62,1.7-1.32.59-1.16,2,.52,4.68-5.33,11-5.3,9.15,0-1.08-2.92-.92-3,.17-.13,1.6-.19-1-1.72-1-1.35,0-1.69,2.25-1.75.45-.11-2.89-21,.6-20.34-5,.09-.78-40.81-95.6-46.12-93.71-1,.36-1.16.12-.74-1.4S559.9,628.82,560.43,628c1.48-2.32-4.34-4.33-3.34-5.3.14-.13-11.65-32.05-11.15-34.22.37-1.59.23-2.22-.51-2.23s-.81-.15-.06-.62c1.55-1-1.14-6.68-.57-6.67s.88-.56.68-1.81c-.65-4,5.72-4.32,4.94-3.11-.37.56-.16.71.57.45,21.71-8,88.57,204.15,78.41,143.51-1-5.87-3.3-41.54-2.51-41.52s.83-.17.3-.54c-8-5.64,9.62-137.52,20.47-137.88C648.67,538,644,718,647.62,718.39Z"/><path class="cls-5" d="M669.23,580.48c-7.08,6.83-12.19,26.79-20.18,78.73-5.23,34-14.74,77.56-16.1,73.76-4.12-11.5-5.12-71.34-9.54-84.61-4.89-14.65-2.32-40.56-4.83-49.38-4.12-14.49-21-32.94-21.78,11.41-1,57.25,30,106.75,22.82,134.35-21.75-28.57-54.88-83.81-68.52-70.64-7.5,7.24,24.9,32.9,40,51.39,14.75,18,24.87,35.13,50.75,33.86,17.82-.87,8.45-5.45,26.85-21.44,20.45-17.78,61.28-108,62.14-118.36.32-3.85.15-4.11-2.66-4-19.62,1-76.05,116.81-76.31,116.54-6-6.2,56-129.71,24.84-151.18C669.74,576.13,670.57,580.5,669.23,580.48Z"/><path class="cls-2" d="M674,597.17c.69,60.66-30.22,108.63-35.29,154.12-.82,7.38-.76,7.7,1.45,7.74,4.87.09-.51-6.07,7.18-33.09,3.85-13.57,19.48-51.76,28.11-93.81,1.33-6.53,5.85-52.41-.85-52.52C673.64,579.59,674.21,597.18,674,597.17Z"/><path class="cls-2" d="M632.35,758.63c1.2-1-6.22-25.3-10.67-67.43-5.84-55.33-11-79.9-10.6-100.6.11-6.21-.58-6-4.46-8.12C607.6,606.69,623.07,766.69,632.35,758.63Z"/><path class="cls-2" d="M725.57,616.83c-4.85,5-61.06,107-61.22,107.27-23.68,37.94-21,35-18.89,35,4.79.08,32.59-51,36.07-58.31,8.08-16.94,49.1-85.45,49-85.19C731.27,614,727.4,614.93,725.57,616.83Z"/><path class="cls-2" d="M602.91,734.8c9.17,13.45,14,18.82,18.14,20.18,2.48.81,2.4.54-1.27-3.91-2.29-2.79-29.47-41.41-32.21-42.4-2.3-.84-25.61-25.81-28.54-30.58-2.06-3.36-3.93-5.21-5.28-5.23C543.81,672.68,589.1,714.55,602.91,734.8Z"/><path class="cls-2" d="M497,651.53c-17.88,19-11.75,80.93-15.83,85-2.69,2.69-10.78-15.24-16.13-35.75-4.7-18-7.72-26.32-10.65-29.44-6.31-6.71-8.38-2-8.34,19.13.08,39,24.13,103.92,26.52,103.44,4.42-.88,75-2.31,88.34-4.42,5.66-.89,18.83-19.16,29.19-40.47,28.32-58.3-23.3-5.84-27.7-5.84-1.55,0,4.44-17.19,9.47-27.16,5.84-11.57,5.6-21-.53-21-12.28,0-36,68.34-25.11,4.58,1.33-7.79,2.13-15.4,1.77-16.84-1.39-5.63-10-1.84-13.76,6.07-5.51,11.54-7.17,36.83-13.2,33.64-8.61-4.56-8-61.89-10.27-68C506.09,642.2,497.23,651.53,497,651.53Z"/><path class="cls-4" d="M488.91,723.94c0,5.61,5.79,41.54,6.87,42.62,2.71,2.71,3-1.83,1-15.92-3.37-23.95-4.5-29.22-6.29-29.22S489.1,723.94,488.91,723.94Z"/><path class="cls-4" d="M501.63,729.32c-2.35,1.45.34,5.27,1.72,25.27.68,9.85,1.08,11.58,2.63,11.28,4.1-.76-.88-36.21-2.06-37C503.11,728.4,501.91,729.32,501.63,729.32Z"/><path class="cls-4" d="M531.33,734c-2,3.67-3,29.27-1.17,30.36,5,3.08,3.07-23.88,4.78-30.24C535.65,731.5,532.73,731.41,531.33,734Z"/><path class="cls-4" d="M521.7,739.52c-.47.78-1,16.16-.79,22.23a2,2,0,0,0,1.8,2.06c3,0,.78-13.63,2.46-21.65C526.43,736.16,522,739.52,521.7,739.52Z"/><path class="cls-4" d="M540.47,760.6c0,4.61,3.19,4.24,4-.45,2-12,2.75-18.53,2.23-19.37a1.82,1.82,0,0,0-3.37.35C543.58,741.13,540.47,753.13,540.47,760.6Z"/><path class="cls-4" d="M558.12,741c-1.76,2.87-4.78,20-3.73,21.08C558.77,766.78,563.26,732.63,558.12,741Z"/><path class="cls-4" d="M513.54,767.25c2,0,1.79-4.08,2.25-20.85.07-2.52-1.73-4-3.16-2.52C512.91,743.88,510.17,767.25,513.54,767.25Z"/><path class="cls-4" d="M482,746.63c0,3.78,5.91,17.33,7.34,16.81,2-.71,1.26-5.24-2-12.58C482.18,739.17,482.31,746.63,482,746.63Z"/><path class="cls-6" d="M440.33,758.66c-5,16.86-5.88,16.72,1.72,15.82l5.84-.7c-21,32.18-18,60.6-18,88,14.9,34.94,16.84,37.72,49.27,49.15,15.34,0,88.5.71,104-7.48,26-13.74,31-49.55,31.13-79v-19c-18-36-20.82-28.31-21.11-32.71-.08-1.24,7.71-.35,11.92-2,2.76-1.09,2.92-1.61,2.92-9.74,0-6.19-.4-8.55-1.43-8.42C604.54,752.78,470.13,757.46,440.33,758.66Z"/><path class="cls-2" d="M530.16,752.54c-11.69,1.15-96.25.12-93.58,7,2.83,7.32,123.4-4,161.52-1,13.06,1,13.41,1,13.41-1.32C611.51,747.28,560.24,752.54,530.16,752.54Z"/><path class="cls-2" d="M501,787c-5.63,28.93-14.26,80.4-3.51,107.7,4.71,12-16.71,1.08-20.81-19.59-.89-4.53-3.29-3.9-3.08.8.39,8.25,9.55,22.23,16.66,25.43,4.24,1.9,4.65,3.44.92,3.44-3,0-8.53-6-13.63-14.66-9.12-15.56-8.24-18.51-12.55-41.37-6.51-34.54,5.61-64.1,3.08-38.84-2.77,27.69,1.59,62,5.57,59.6,2.88-1.72-2.47-.07-2.29-49.23.19-51.23-3.38-24.35-5.27-24.35-.45,0-1.89,3.21-3.25,7.22-8.4,24.74,1.58,65.75,4,68.63s-.6,3.46,1.64,7c2.4,3.76,3.62,11.45,6.08,13.41,2.67,2.14.18,3,5.15,7.27,1.95,1.66,3.44,3.42,3.44,4.07,0,1.89,4.93,4.7,8.25,4.7,1.09,0,2.92.18,9.05-6l7.33,5.61c-.2-21.82-.27-57.33-2.34-82.61-3-36.15,1.42-40.78-2.07-40.78C501.43,784.44,501.26,787,501,787Zm1,60.84c-1.23-5.5-1.63-6.29-2.81-5.54-4.58,3,4.22,9.3,3.22,41.28-.35,11.35-.37,11.43-2.25,8-8.7-15.81-2-79.89-.05-77.91C500.84,814.36,505.58,863.63,502,847.8Z"/><path class="cls-2" d="M577.45,785.81c-5.54,7.05-7.87,51.09-12.92,67.94-10.65,35.48-24.06,56.76-24.06,53.74,0-2.65.39,1.23,4.29-10.2,12.83-37.56,16.29-115.41,5.4-98.65-1.85,2.86-4.54,23.72-4.54,35.29,0,9.67-1.11,4.65-1.5,9.86-2.2,29.27-10.49,47.7-8.35,49.84,7.25,7.25,15.29-85.52,15.47-86.85,3.12,30.42-4.38,75.68-8.82,80.1-.88.86-2.21,4-2.93,6.86-3.7,14.81-4.4,15.59-1.94,17.42,10.77,8,32.36-56.87,30.82-59.35a2.26,2.26,0,0,1,.47-2.41c1.89-2.37,8.86-52.16,8.94-52.25.74-.8,5.31,49.69-15.7,85.25-8.86,15-9.89,17.2-10.66,22.68-.69,4.93-.56,5.39,1.54,5.39,3.37,0,7.52-8.8,11-9.87,16.14-5,36.17-46.49,37.82-64.61.66-7.16,3.07-20.28-1.27-20.28-2.68,0-2.64,5-4.76,12.44-1.5,5.28.13,9-1.37,9-1.68,0-6.8,20.13-17.17,35.41-10.48,15.44-16,26.93-4.56-4,8.33-22.54,9.11-26.7,9.65-51.45C583.21,775.16,579,785.81,577.45,785.81Zm-8.68,106.9c13-17.8,23.36-39.05,22.44-40-1.38-1.41.87,1.94,3.11-5.9,2-6.86,3.16-5.93,1.12,1.32C596.55,848.14,582.87,879.88,568.77,892.71Z"/><path class="cls-2" d="M527.57,791c-2.32,4-2.66,25.32-3.89,29.33-.85,2.8,3,6.14,1.21,5.09S510.43,914,512.17,915.74c1.11,1.11,3.09-.8,3.09-3,0-3,4.58-2.24,4.58-5.27,0-1.41,7.17-20.48,4.61-6.42-1,5.5.12,6.25,2.92,1.95,1.24-1.89,1.93-5.67,2-11.17.35-17,2.32,6.26,2.75-40.73.24-25.32,0-31.41-1.4-34.14-1.58-3.1-1.6-5.39-.25-23.26C530.71,791.08,528.64,789.14,527.57,791Zm-3.89,90.28c.83,2.25-.56-.59-3.15,8.77-5.69,20.6,0-13.12-1.95-13.75-.91-.29-.91-.62,0-1.2,1.77-1.13,2.17-11.77,7.45-43.09C529.29,859.12,522.44,877.86,523.68,881.25Z"/><path class="cls-2" d="M448.16,870.37c3.07,14.66,16.81,40.21,24.59,45.74,13.84,9.81,38.08-14.83,16.39-3.93-3.21,1.61-6.69,2.87-7.91,2.87-12.75,0-27.35-33.66-29.1-46.4,4.72,10.24,30.24,45.43,33.34,43.55,2.89-1.75-12.83-16.73-16-22.81-2.49-4.81-8.46-8.33-7.85-8.94.79-.79-6.92-12.44-10.3-26.58C447.24,836.7,442.26,842.15,448.16,870.37Z"/><path class="cls-2" d="M531.3,902.45c-1.79,0-4.65,8-3.55,10,.92,1.64,1.15,1.6,2.19-.35,2.67-5,6.79-16.34,6.17-17C532.45,891.46,533,902.45,531.3,902.45Z"/><path class="cls-2" d="M1181.85,44.11c0,1.5,3.13,4.67,5.31,5.38.53.17.16,2.11-.93,4.89-2.12,5.4-2.12,5.4-.55,5.4.68,0,2-1.91,3.09-4.35,1.72-4,2.12-4.35,4.92-4.35,3.74,0,4.19-2.35.52-2.77-4.59-.53.94-5.94-2.26-5.94-.78,0-1.62,1-1.92,2.18C1188.38,51.44,1181.85,37.87,1181.85,44.11Z"/><path class="cls-2" d="M1142.83,57.43c-2.15,2.59-2.18,6.76-3.9,5-2.29-2.3-3.28.17-1.32,3.31.71,1.14.72,2.3,0,4.31-1.66,4.75,1.88,4.65,2.84.21.48-2.21.9-2.5,3.34-2.39,3.31.15,4-2.27.78-2.73-2.26-.32-2.32-.71-.63-3.67C1146.16,57.69,1145.27,54.49,1142.83,57.43Z"/><path class="cls-2" d="M1168.93,78.76c-2.44,4.54-8-2-8,1.48,0,3,5.62,1.81,5,5.39-.55,2.88,1.85,3.38,2.9.61.77-2,1.16-2.21,4.12-1.78,6.5,1,7.29-2.92,1-2.92-3.31,0-3.37-.06-2.48-2.39,1.63-4.28,4.36-4.86,2.83-6.4C1172.36,70.83,1170,76.85,1168.93,78.76Z"/><path class="cls-2" d="M126.48,379.81c-2.7,5.29.23,6.36-6.24,6.36-6.8,0-3.42,2.6.05,3.17l3.39.57c0,14.77,2.19,9.43,2.41,7,.57-6,1-6.63,3.68-6,4,.92,3-2,.31-3-2.17-.82-2.27-1.13-1.71-5.23C129,378.24,128,376.79,126.48,379.81Z"/><path class="cls-2" d="M91.48,395.22c-2.62,6.91-.15,9.6-5.75,7.43-6.32-2.43,0,3.54,1.21,3.54,2.48,0-1.26,9.3,1.18,8.49.64-.22,1.55-1.83,2-3.57.77-3,1-3.16,4-2.95,3.92.3,4.5-2.28.61-2.73-3-.34-2.58,0-.94-9.25C94.39,392.61,92.73,391.91,91.48,395.22Z"/><path class="cls-2" d="M116.23,417.94c-1,5.56-3.41-.37-5.78,2-.69.69-.13,1.45,2,2.7,2.84,1.7,2.91,1.87,2.7,7-.18,4.18,0,5.27,1.08,5.27,1.23,0,1.53-1.79,2.53-9.75,7.26,1.41,7.81,2,8.22-.05.67-3.31-7.61.58-7.61-6.83C119.33,413.94,117,413.68,116.23,417.94Z"/><path class="cls-2" d="M499.27,213.3c-1.45,3.8,1.19,9-5.67,6.28-5.83-2.29-6,1.07,0,2.92,3.31,1,3.47,1.23,3.22,4.21-.34,4,2.11,4.39,2.78.43.38-2.2.88-2.65,3.23-2.88,3.66-.35,4-2.77.44-2.77-4.17,0-1.33-2.2-1.09-8.54C502.24,211.37,499.91,211.65,499.27,213.3Z"/><path class="cls-2" d="M475.09,234.28c.32,1.67-5,1.32-9.26-.61-7.81-3.53-3.85,2.79,3.84,4,3.48.53,3.83.81,3.83,3.1,0,1.66.45,2.53,1.3,2.53,2.56,0-.47-4,3.74-4.87,3.23-.67,4.82-1.57,5.29-3,.55-1.65-6.46.13-6.24.09,1.59-11.46,2.52-11.4.82-11.4C475.78,224.1,475,233.7,475.09,234.28Z"/><path class="cls-2" d="M496.59,245.86c-.92,2.93,2.14,3.79-2.9,3.33-4.53-.42-4.91,1.34-.61,2.75,3,1,3,1,2.79,5.93-.14,3.92.1,5,1.13,5,1.63,0,1.54-3.71,1.83-8.36l3,.55c3.91.73,4.26-1.63.43-2.95-2.35-.82-2.61-1.26-2.61-4.39C499.61,243.86,497.61,242.64,496.59,245.86Z"/><path class="cls-3" d="M1679.62,725.66c-1.4,1.21-5.82,33.37-5.76,33-13.65,5.34-32.28,11.38-47.37,35.44-4.51,7.17-5.27,9.91-7,25.09-3.52,31.18,6.5,44.72,30.16,59.34,16.28,10.05,32.57,16.74,49.17,20.19,12.86,2.68,80.38,7.54,98.32,7.09,56.74-1.45,90.13-7,103.81-64.28s6.43-71-39.38-75.92c-30.16-3.21-22.4,5.45-21.94-23.14.24-14.81,10.14-10.39-83.45-14.43C1756.59,728.07,1680.6,724.81,1679.62,725.66Z"/><path class="cls-6" d="M1777.05,745c-6.45-.27-13-.58-19.65-.87-8.89-.43-17.82-.82-26.58-1.08-31.72-1-57-4.29-62-8-9-6.77-2-16.88,16.65-24.17,23-9,48.18-8.87,72.52-7.31l8.3.59c3.34.26,6.82.38,10.34.43l6.37,0c18.38-.07,38-.86,53.94,6.7,6.7,3.13,14.51,12.49,15.28,18.26C1854.47,746.25,1818.9,746.65,1777.05,745Z"/><path class="cls-7" d="M1831.3,425.92c2.67-3.31,34.47-38,55-27.48,5.73,2.95,4.57,6.77-4,13.28-20.07,15.31-34.11,17-52.68,19.14-9.61,35.55-19.9,59.13-7.94,40.84,10.74-16.39,43.93-33.09,42-15.63-.57,5-25.72,23.6-39.67,29.28s-12.75,3.85-20.43,30.87c-5.31,18.51-8.17,21.71,6,6.82,41.72-43.78,68.75-32.14,52-12.66-8.71,10.18-38.23,24.65-57.1,28-8,1.44-7.45.12-13.1,29.79s-9,34.85,1.15,19.73c26.43-39.44,71.76-58.46,71.76-42.42,0,14.27-45.73,45.59-61.24,51.51-8.18,3.14-15.74,6.28-16.94,7.06-2.57,1.67-10.11,63.42-8,65.08,2.58,2,12.67-30,40.58-52.27,16.89-13.44,32.34-20.18,38.75-16.81,3,1.61,1.94,13.11-1.84,19.74-3.63,6.31-59.06,65.91-78.61,67.81-.16,6.2-.26,11.83-.3,16.92-.18,20.66.34,33,.39,40.4-6.45-.27-13-.58-19.65-.87.54-7.5,1.91-19.66,2.41-39.39-.61-.38-1.18-.75-1.79-1.16-82.61-52.48-82.94-103-61.69-100.59,1.37.15,6.45,2.72,11.43,5.81,26.1,16.14,42.87,54.89,54.19,74.2,7.77-59.31,10.43-49.27-11-69.06q-20.49-18.82-24.53-40c-2.49-13-2.26-14.95,2.28-19.5,6.2-6.32,16.54-3.16,24.55,7.45,4.57,6.08,15.09,39,17.85,47.2,4.47-39.7,4.46-38.55,8.16-57.12l-13.55-12.15c-30.83-27.64-23.43-43.92-20.76-45.11,1-.47,5.45,2.3,9.89,6.14,14.37,12.36,8.76,18.63,25.56,46.53,3.25-13.86,6-25.82,9.35-39.72-29.77-38.76-40.12-50.05-41.27-74.88-.49-10.57,1.18-13.53,7.39-12.83,9.74,1.1,19.48,13.32,23.66,29.64,3.91,15.36,12.06,32.89,11.55,38.47a23.45,23.45,0,0,0,.53,7.19c1.23,4.4.11,0,18.43-50.85l-6-9.77c-15.93-25.77-17.94-54.54-2.66-38.35,12,12.62,10.2,40.85,12.39,39.14.68-.58,15.43-35.12,15.59-36.53.48-5.31-19.41-20.06-20.47-48.41-.31-8.47,2.78-15.18,6.84-14.73,8.59,1,15.13,51.88,16.4,60.66,17.53-42.87,6.11-80.36,24.41-96.37,4.77-4.18,13.88-3.38,17.44,1.47,7.47,10.32-4.86,50.58-20.32,66.26a28.16,28.16,0,0,0-7.18,13c-5.18,20.4,14.5-19.73,45-31,17.86-6.66,28.69-5.4,27.72,3.2-.65,5.72-22.25,20.74-37.25,25.87C1835.59,394.64,1842.15,392.62,1831.3,425.92Z"/><path class="cls-9" d="M1703.8,707.35c-6.51,2.08-11.71,2.83-13.88,2-12.51-4.69-35.52,13.36-24.51,25.4,7.6,8.31,24.69,12,47.47,10.24s142,3.39,143.76-12-62.54-35.63-86.44-33.16C1772.08,700.05,1722.72,701.33,1703.8,707.35Zm146.45,25.25c-8.59,1.69-19.11,4.41-56.1,5.2-115.42,2.5-115.61,2.45-125.36-7.95C1710.71,701.11,1814.18,696.14,1850.25,732.6Zm-178.7-13.26c2.3-1.59,9.44-7.25,9.16-4.77C1681.1,714.62,1680,715.47,1671.55,719.34Z"/><path class="cls-2" d="M1820.26,881.81c-3.7,4.13-4.12,4.24-6.46,1.6-7-7.9-13.28,6-12.63,4.88-2.67-13.71-8-9.73-19.31.17-7.48-22.28-15.22,1.42-20.3-5-3-3.74-9.59-2.5-13,2.44-3.85,5.53-1,.44-5.12-4.18-8.38-9.45-16.41,10.46-15.36,8.31-4.15-6.2-5.3-9-9.44-8.11-4.72.95-7.07,4.67-8.89,14-1.76,9-1.29,12.4,1.79,12.75,1.61.18,2.44-2.08,3.22-8.74,1.69-14.55,5.82-16.62,7.41-3.71,1.27,10.29,5,10,10.43-.86,6.21-12.45,7.24-13.72,8.48,1.58.7,8.67,6,7.11,10.75-3.18,3.23-7,6.43-8.23,7-2.66l.78,8.24c.68,7.19,5.44,4.69,8.86-4.65,11.55-31.54,1.59,27.37,19.63-1.55,10.94-17.53,5.12,2.68,8.79,8.76,4.31,7.14,7.29-5.27,12.29-14.38,3,16.49,3.61,19.64,16.16-2.88,2.07,17.59-1.62,21,3.22,21.53,2.56.29,3.21-.65,3.75-5.45C1833.8,886.8,1830.78,870.11,1820.26,881.81Z"/><path class="cls-10" d="M1691.49,792.78c-46.26-.25-66.46-1.67-67.13,4.2-.08.74,124.1,3.17,187.48-3.33,40.66-4.17,70.41.14,71.49-1.8s24.26,4.6,23.48.76C1904.11,779.52,1774.08,793.23,1691.49,792.78Z"/><path class="cls-10" d="M1888.62,797c-.4,0-268.21,7.17-269.45,18.19-.74,6.59-7.68-3.93,204.32-10.8,71.27-2.31,84.14-2.07,84.43-4.62C1908.55,794.14,1894.84,797.73,1888.62,797Z"/><path class="cls-10" d="M1618,825.59c-.54,4.83,12-1.83,66.21-3,112.77-2.51,118.31-6.76,117.39-5.51-1.53,2.06-5.48,1.91,67.36,1.34,31.24-.25,35.75,1.07,36.89-2.52C1908,809.26,1619.18,815.15,1618,825.59Z"/><path class="cls-10" d="M1897.14,825.78c-193,13-272.45,15.63-276.07,18.51-1.94,1.55,1.23,4.41,4.41,4C1658.59,843.85,1959.28,832.79,1897.14,825.78Z"/></g></g></svg>